<svg xmlns="http://www.w3.org/2000/svg" width="18" height="18" viewBox="0 0 18 18">
    <path fill="#212121" d="M15.567 9c.239 0 .433.19.433.423v7.154c0 .234-.194.423-.433.423h-4.334c-.228 0-.414-.172-.431-.39l-.002-.033V12.48c0-.7-.583-1.269-1.3-1.269-.717 0-1.3.57-1.3 1.269v4.114l-.002.016c-.017.218-.204.39-.431.39H3.433C3.194 17 3 16.81 3 16.577V9.423C3 9.189 3.194 9 3.433 9c.24 0 .434.19.434.423v6.731h3.466V12.48c0-1.166.972-2.115 2.167-2.115 1.195 0 2.167.949 2.167 2.115v3.674h3.466V9.423c0-.234.194-.423.434-.423zM9.239 2.088c.155-.117.367-.117.522 0l8.058 6.088c.197.15.24.434.096.637-.087.122-.221.187-.357.187-.09 0-.182-.029-.26-.088L9.5 3.02 1.703 8.912c-.197.149-.474.105-.618-.099-.144-.203-.101-.488.096-.637z" opacity=".49"/>
</svg>
