<svg xmlns="http://www.w3.org/2000/svg" xmlns:xlink="http://www.w3.org/1999/xlink" width="123" height="36" viewBox="0 0 123 36">
    <defs>
        <path id="nbud5kkzda" d="M0.182 0.115L19.96 0.115 19.96 27.534 0.182 27.534z"/>
    </defs>
    <g fill="none" fill-rule="evenodd">
        <path fill="#FEFEFE" d="M95.77 27.493v-4.489c0-11.71-7.36-14.66-14.249-14.66-5.756 0-13.587 2.191-17.74 5.224V.4H52.459v27.092h11.324v-6.09c3.02-2.275 9.907-4.212 13.776-4.212 6.04 0 6.794 4.212 6.794 8.677v1.625H95.77z"/>
        <g transform="translate(102.122)">
            <mask id="xzksiwik0b" fill="#fff">
                <use xlink:href="#nbud5kkzda"/>
            </mask>
            <path fill="#FEFEFE" d="M19.96.115C7.56 1.282.182 10.035.182 18.582c0 3.156.978 6.233 2.754 8.952H16.42c-3.317-1.978-5.222-5.443-5.222-9.001 0-4.42 3.114-9.054 8.762-10.211V.115z" mask="url(#xzksiwik0b)"/>
        </g>
        <path fill="#FEFEFE" d="M44.558.115c-12.4 1.167-19.779 9.92-19.779 18.467 0 3.156.978 6.233 2.755 8.952h13.483c-3.317-1.978-5.222-5.443-5.222-9.001 0-4.42 3.114-9.054 8.763-10.211V.115zM19.868.115C7.468 1.282.09 10.035.09 18.582c0 3.156.978 6.233 2.754 8.952h13.484c-3.317-1.978-5.222-5.443-5.222-9.001 0-4.42 3.113-9.054 8.762-10.211V.115zM121.704 35.863v-3.365h-.525v2.028c0 .163.004.331.01.47h-.01c-.075-.139-.166-.266-.346-.507l-1.492-1.991h-.53v3.365h.52v-2.114c0-.163 0-.327-.01-.439h.01c.08.138.17.27.33.485l1.553 2.068h.49zm-4.965-1.665c0 .782-.446 1.262-1.107 1.262-.666 0-1.112-.48-1.112-1.262 0-.786.446-1.267 1.112-1.267.69 0 1.107.511 1.107 1.267zm-2.774.01c0 .527.19.98.52 1.293.29.265.681.412 1.147.412.485 0 .89-.168 1.191-.47.306-.305.476-.749.476-1.255 0-.475-.146-.889-.416-1.195-.295-.331-.73-.525-1.25-.525-.487 0-.902.183-1.198.49-.3.31-.47.75-.47 1.25zm-2.038 1.655h.526v-3.365h-.526v3.365zm-1.461-.245l-.15-.398c-.236.132-.506.22-.797.22-.71 0-1.14-.537-1.14-1.262 0-.684.42-1.257 1.176-1.257.32 0 .575.082.835.246l.01-.51c-.185-.103-.485-.19-.85-.19-1.052 0-1.742.776-1.742 1.752 0 .96.605 1.694 1.631 1.694.34 0 .681-.086 1.027-.295zm-3.95 0l-.15-.398c-.235.132-.506.22-.796.22-.711 0-1.142-.537-1.142-1.262 0-.684.421-1.257 1.177-1.257.32 0 .576.082.836.246l.01-.51c-.186-.103-.486-.19-.85-.19-1.052 0-1.742.776-1.742 1.752 0 .96.604 1.694 1.63 1.694.341 0 .681-.086 1.027-.295zm-4.19-.97v-2.15h-.525v2.145c0 .24-.05.45-.185.592-.126.138-.326.22-.616.22-.26 0-.451-.082-.576-.22-.146-.158-.21-.388-.21-.623v-2.114h-.52v2.14c0 .352.075.715.32.954.205.204.525.321.976.321.47 0 .8-.132 1.021-.362.215-.224.315-.546.315-.903zm-4.83-1.154c0 .321-.25.587-.59.587h-.312v-1.119h.302c.426 0 .6.24.6.532zm.915 2.369c-.515-.863-.864-1.46-1-1.532v-.005c.325-.133.62-.428.62-.889 0-.516-.314-.939-1.14-.939h-.821v3.365h.524v-1.364h.307c.13.036.385.496.9 1.364h.61zm-3.674-3.365h-2.536v.46h.955v2.905h.53v-2.906h.907l.144-.459zm-3.749 2.482c0-1.032-1.441-1.012-1.441-1.676 0-.265.235-.388.52-.388.271 0 .526.097.75.236l.006-.5c-.17-.093-.43-.184-.781-.184-.666 0-1.036.407-1.036.898 0 .26.09.45.226.602.4.455 1.196.558 1.196 1.074 0 .306-.315.428-.586.428-.31 0-.57-.132-.736-.25l-.22.403c.21.138.52.29.976.29.636 0 1.126-.366 1.126-.933zm-3.605.883v-3.365h-.524v2.028c0 .163.005.331.01.47h-.01c-.075-.139-.166-.266-.345-.507l-1.493-1.991h-.53v3.365h.52v-2.114c0-.163 0-.327-.01-.439h.01c.08.138.17.27.33.485l1.553 2.068h.49zm-4.964-1.665c0 .782-.446 1.262-1.107 1.262-.666 0-1.111-.48-1.111-1.262 0-.786.445-1.267 1.111-1.267.69 0 1.107.511 1.107 1.267zm-2.773.01c0 .527.19.98.52 1.293.29.265.68.412 1.146.412.486 0 .892-.168 1.192-.47.305-.305.475-.749.475-1.255 0-.475-.145-.889-.415-1.195-.296-.331-.731-.525-1.252-.525-.486 0-.901.183-1.196.49-.3.31-.47.75-.47 1.25zm-1.293 1.41l-.15-.398c-.235.132-.505.22-.796.22-.71 0-1.141-.537-1.141-1.262 0-.684.42-1.257 1.176-1.257.32 0 .576.082.836.246l.01-.51c-.185-.103-.485-.19-.85-.19-1.052 0-1.742.776-1.742 1.752 0 .96.605 1.694 1.631 1.694.34 0 .681-.086 1.026-.295zm-7.082-1.062h-.886l.325-.904c.06-.158.1-.291.13-.409h.005c.02.108.065.246.12.414l.306.9zm1.066 1.307l-1.307-3.375h-.365l-1.276 3.375h.52l.31-.859h1.222l.33.859h.566zm-4.01 0v-.46H67.12v-2.905h-.52v3.365h1.727zm-5.436 0v-.46h-1.242v-1.032h1.071v-.458h-1.07v-.956h1.075l.16-.459h-1.76v3.365h1.766zm-3.834-1.706c0 .659-.34 1.247-1.257 1.247h-.386v-2.442h.386c.85 0 1.257.51 1.257 1.195zm.555-.01c0-.965-.6-1.649-1.817-1.649h-.906v3.365h.885c1.192 0 1.838-.73 1.838-1.716zm-7.319.41h-.886l.326-.905c.06-.158.1-.291.13-.409h.005c.02.108.065.246.12.414l.305.9zm1.067 1.306l-1.307-3.375h-.365l-1.277 3.375h.52l.311-.859h1.221l.33.859h.567zm-4.32 0v-3.365h-.525v2.028c0 .163.004.331.01.47h-.01c-.076-.139-.166-.266-.347-.507l-1.492-1.991h-.53v3.365h.52v-2.114c0-.163 0-.327-.01-.439h.01c.08.138.17.27.331.485l1.552 2.068h.49zm-4.44 0v-.46h-1.243v-1.032h1.072v-.458h-1.072v-.956h1.077l.16-.459h-1.762v3.365H44.6zm-3.14 0v-.46h-1.206v-2.905h-.52v3.365h1.727zm-3.934 0h.525v-3.365h-.525v3.365zm-1.682 0v-3.365h-.525v1.42h-1.668v-1.42h-.525v3.365h.525v-1.476h1.668v1.476h.525zm-4.18-.245l-.15-.398c-.235.132-.505.22-.796.22-.71 0-1.141-.537-1.141-1.262 0-.684.42-1.257 1.176-1.257.32 0 .576.082.836.246l.01-.51c-.185-.103-.485-.19-.851-.19-1.051 0-1.741.776-1.741 1.752 0 .96.605 1.694 1.63 1.694.341 0 .681-.086 1.027-.295zm-7.083-1.062h-.886l.326-.904c.06-.158.1-.291.13-.409h.005c.02.108.065.246.12.414l.305.9zm1.067 1.307l-1.307-3.375h-.366L22.7 35.863h.52l.31-.859h1.222l.33.859h.567zm-4.92-2.37c0 .322-.251.588-.592.588h-.31v-1.119h.3c.426 0 .601.24.601.532zm.914 2.37c-.516-.863-.865-1.46-1-1.532v-.005c.325-.133.62-.428.62-.889 0-.516-.315-.939-1.14-.939H19.3v3.365h.525v-1.364h.306c.13.036.386.496.9 1.364h.61zm-4.775-1.307h-.886l.325-.904c.06-.158.1-.291.13-.409h.005c.021.108.065.246.12.414l.306.9zm1.066 1.307l-1.306-3.375h-.366l-1.276 3.375h.52l.31-.859h1.223l.33.859h.565zm-4.325 0v-3.365h-.505l-.891 1.42c-.09.148-.146.25-.19.347h-.006c-.05-.102-.11-.2-.2-.337l-.956-1.43h-.5v3.365h.52v-2.154c0-.113 0-.2-.015-.348h.01c.065.143.135.24.19.327l.811 1.215h.276l.75-1.2c.05-.086.141-.219.186-.342h.01c-.01.143-.01.235-.01.358v2.144h.52zm-5.682-1.307h-.885l.325-.904c.06-.158.1-.291.13-.409h.005c.02.108.065.246.12.414l.305.9zm1.067 1.307l-1.307-3.375h-.365l-1.277 3.375h.521l.31-.859h1.222l.33.859h.566zm-4.199-.245l-.15-.398c-.236.132-.506.22-.796.22-.711 0-1.141-.537-1.141-1.262 0-.684.42-1.257 1.176-1.257.32 0 .576.082.836.246l.01-.51c-.186-.103-.486-.19-.852-.19-1.05 0-1.74.776-1.74 1.752 0 .96.604 1.694 1.63 1.694.341 0 .681-.086 1.027-.295z"/>
    </g>
</svg>
