<svg xmlns="http://www.w3.org/2000/svg" width="165" height="37" viewBox="0 0 165 37">
    <g fill="none" fill-rule="evenodd">
        <path fill="#FEFEFE" d="M45.75 14.819c-.129 1.066-.708 1.628-1.697 1.628-1.15 0-1.892-.912-1.892-2.318 0-.57.136-1.116.392-1.517.341-.563.844-.827 1.543-.827.826 0 1.432.452 1.602 1.193h.75c-.035-.392-.196-.758-.486-1.082-.452-.503-1.065-.75-1.857-.75-.793 0-1.416.247-1.901.759-.537.57-.801 1.312-.801 2.232 0 1.807 1.022 2.95 2.633 2.95 1.414 0 2.344-.853 2.463-2.268h-.75zM51.948 11.274L48.011 11.274 48.011 16.958 51.99 16.958 51.99 16.302 48.76 16.302 48.76 14.334 51.734 14.334 51.734 13.728 48.76 13.728 48.76 11.93 51.948 11.93zM58.095 11.274h-.716v2.847c0 .033 0 .145.009.392 0 .127 0-.052.008.587l.009.197c.008.34.008.46.025.766-.127-.247-.195-.366-.34-.605-.18-.29-.265-.426-.605-.945l-2.123-3.24h-.81v5.685h.717V13.737l-.01-.18v-.391l-.007-.196c0-.264-.009-.444-.035-.768.163.333.222.436.588 1.006.18.29.35.546.436.682l2.028 3.068h.826v-5.684zM64.013 11.274L59.445 11.274 59.445 11.93 61.354 11.93 61.354 16.958 62.104 16.958 62.104 11.93 64.013 11.93zM66.086 11.93h1.612c.332 0 .579.034.748.094.342.128.538.443.538.87 0 .382-.145.664-.418.826-.221.128-.494.17-1.065.17h-1.415v-1.96zm-.75-.656v5.684h.75v-2.462h1.492c1.006 0 1.295.29 1.346 1.346l.026.434v.086c.017.178.026.272.052.366.033.11.059.18.101.23h.853l-.069-.085c-.11-.119-.178-.392-.221-.895l-.017-.17-.018-.162c-.025-.282-.025-.315-.042-.426-.026-.256-.076-.41-.187-.58-.154-.247-.324-.357-.64-.426.63-.204.98-.698.98-1.389 0-.562-.238-1.023-.69-1.304-.29-.179-.597-.247-1.116-.247h-2.6zM73.956 11.785c1.15 0 1.934.946 1.934 2.318 0 1.423-.775 2.344-1.96 2.344-1.176 0-1.96-.929-1.96-2.335 0-1.431.767-2.327 1.986-2.327m.017-.639c-1.671 0-2.761 1.167-2.761 2.966 0 1.79 1.082 2.974 2.718 2.974 1.628 0 2.718-1.193 2.718-2.965 0-1.764-1.09-2.975-2.675-2.975M81.692 11.93h1.304c.588 0 .97.128 1.296.435.4.383.57.887.57 1.713 0 .766-.17 1.346-.511 1.746-.315.368-.647.478-1.431.478h-1.228V11.93zm-.75-.656v5.684h2.122c.86 0 1.287-.153 1.756-.63.528-.537.8-1.33.8-2.327 0-.929-.29-1.679-.834-2.165-.452-.408-.946-.562-1.807-.562h-2.037zM91.154 11.274L87.218 11.274 87.218 16.958 91.197 16.958 91.197 16.302 87.967 16.302 87.967 14.334 90.942 14.334 90.942 13.728 87.967 13.728 87.967 11.93 91.154 11.93zM95.455 16.958L96.205 16.958 96.205 11.274 95.455 11.274zM102.616 11.274h-.716v2.847c0 .033 0 .145.008.392 0 .127 0-.052.009.587l.008.197c.01.34.01.46.026.766-.128-.247-.196-.366-.34-.605-.18-.29-.265-.426-.606-.945l-2.122-3.24h-.81v5.685h.716V13.737l-.008-.18v-.391l-.01-.196c0-.264-.007-.444-.033-.768.162.333.222.436.588 1.006.18.29.35.546.435.682l2.028 3.068h.827v-5.684zM109.036 11.274h-.716v2.847c0 .033 0 .145.009.392 0 .127 0-.052.009.587l.008.197c.009.34.009.46.025.766-.127-.247-.196-.366-.34-.605-.18-.29-.264-.426-.606-.945l-2.122-3.24h-.81v5.685h.717V13.737l-.009-.18v-.391l-.008-.196c0-.264-.009-.444-.034-.768.162.333.221.436.588 1.006.179.29.35.546.435.682l2.028 3.068h.826v-5.684zM113.394 11.785c1.15 0 1.935.946 1.935 2.318 0 1.423-.776 2.344-1.96 2.344-1.176 0-1.96-.929-1.96-2.335 0-1.431.767-2.327 1.985-2.327m.017-.639c-1.67 0-2.76 1.167-2.76 2.966 0 1.79 1.082 2.974 2.718 2.974 1.628 0 2.719-1.193 2.719-2.965 0-1.764-1.091-2.975-2.677-2.975M121.784 11.274h-.8l-1.202 3.588c-.112.35-.17.528-.282.886-.085.264-.11.35-.17.58-.11-.46-.094-.4-.273-.963l-.06-.17-.102-.341-1.193-3.58h-.836l2.03 5.684h.851l2.037-5.684zM125.631 14.606h-1.942l.57-1.542.06-.162.06-.171c.11-.29.085-.205.11-.28.052-.146.094-.274.18-.504.05.18.085.264.119.366.06.17.195.537.282.784l.561 1.51zm-.528-3.35h-.844l-2.233 5.702h.793l.648-1.747h2.386l.639 1.747h.827l-2.216-5.701zM132.444 14.819c-.128 1.066-.708 1.628-1.696 1.628-1.15 0-1.892-.912-1.892-2.318 0-.57.136-1.116.392-1.517.34-.563.843-.827 1.542-.827.828 0 1.432.452 1.603 1.193h.75c-.035-.392-.196-.758-.486-1.082-.452-.503-1.065-.75-1.858-.75-.793 0-1.415.247-1.9.759-.537.57-.801 1.312-.801 2.232 0 1.807 1.022 2.95 2.633 2.95 1.415 0 2.343-.853 2.463-2.268h-.75zM134.706 16.958L135.455 16.958 135.455 11.274 134.706 11.274zM139.786 11.785c1.15 0 1.935.946 1.935 2.318 0 1.423-.776 2.344-1.96 2.344-1.176 0-1.961-.929-1.961-2.335 0-1.431.768-2.327 1.986-2.327m.018-.639c-1.671 0-2.762 1.167-2.762 2.966 0 1.79 1.083 2.974 2.719 2.974 1.628 0 2.718-1.193 2.718-2.965 0-1.764-1.09-2.975-2.675-2.975M148.62 11.274h-.717v2.847c0 .033 0 .145.008.392 0 .127 0-.052.01.587l.008.197c.009.34.009.46.025.766-.128-.247-.196-.366-.34-.605-.18-.29-.265-.426-.605-.945l-2.123-3.24h-.81v5.685h.716V13.737l-.008-.18v-.391l-.009-.196c0-.264-.008-.444-.033-.768.161.333.221.436.588 1.006.178.29.35.546.434.682l2.028 3.068h.827v-5.684zM157.684 11.274h-.75v3.324c0 .716-.05.996-.213 1.286-.213.384-.648.563-1.337.563-.853 0-1.364-.375-1.484-1.082-.042-.214-.042-.29-.042-.767v-3.324h-.75v3.307c0 .817.076 1.21.307 1.585.375.622 1.005.92 1.985.92 1.219 0 1.944-.477 2.199-1.448.069-.24.085-.461.085-1.05v-3.314zM163.533 14.819c-.128 1.066-.707 1.628-1.696 1.628-1.15 0-1.892-.912-1.892-2.318 0-.57.137-1.116.392-1.517.34-.563.844-.827 1.543-.827.827 0 1.431.452 1.603 1.193h.75c-.035-.392-.198-.758-.486-1.082-.452-.503-1.067-.75-1.859-.75-.793 0-1.414.247-1.9.759-.537.57-.801 1.312-.801 2.232 0 1.807 1.023 2.95 2.633 2.95 1.415 0 2.344-.853 2.463-2.268h-.75zM50.056 24.449H48.58l.435-1.173.045-.123.045-.13c.084-.22.065-.155.084-.212.04-.112.071-.208.136-.383.04.136.065.2.091.279.045.13.15.408.214.595l.427 1.147zm-.402-2.546h-.64l-1.698 4.333h.602l.493-1.328h1.814l.485 1.328h.628l-1.684-4.333zM58.394 21.916h-.544v2.163c0 .027 0 .11.006.299 0 .096 0-.04.006.446l.007.15c.006.259.006.35.019.582-.097-.188-.149-.278-.26-.46-.135-.22-.2-.324-.458-.718l-1.614-2.462h-.614v4.32h.544v-2.448l-.007-.136v-.299l-.007-.148c0-.2-.006-.337-.026-.583.124.252.17.33.448.764.136.22.265.415.33.519l1.542 2.331h.628v-4.32zM64.755 24.449H63.28l.433-1.173.046-.123.045-.13c.084-.22.065-.155.084-.212.04-.112.072-.208.136-.383.04.136.065.2.09.279.046.13.15.408.215.595l.427 1.147zm-.401-2.546h-.642l-1.696 4.333h.602l.493-1.328h1.813l.486 1.328h.629l-1.685-4.333zM72.568 24.61c-.097.81-.537 1.238-1.288 1.238-.875 0-1.439-.693-1.439-1.762 0-.434.104-.849.298-1.153.259-.428.641-.629 1.173-.629.628 0 1.088.344 1.217.908h.57c-.026-.298-.148-.576-.37-.823-.342-.382-.809-.57-1.411-.57s-1.075.188-1.444.576c-.408.435-.609.998-.609 1.697 0 1.373.778 2.241 2 2.241 1.077 0 1.782-.648 1.873-1.722h-.57zM79.784 25.738L77.492 25.738 77.492 21.916 76.922 21.916 76.922 26.236 79.784 26.236zM86.465 21.916L83.472 21.916 83.472 26.236 86.497 26.236 86.497 25.738 84.042 25.738 84.042 24.242 86.303 24.242 86.303 23.782 84.042 23.782 84.042 22.414 86.465 22.414zM93.39 21.916L89.918 21.916 89.918 22.414 91.37 22.414 91.37 26.236 91.939 26.236 91.939 22.414 93.39 22.414zM98.748 22.305c.874 0 1.47.718 1.47 1.761 0 1.082-.59 1.782-1.49 1.782-.894 0-1.489-.706-1.489-1.775 0-1.088.582-1.768 1.509-1.768m.013-.487c-1.27 0-2.099.888-2.099 2.255 0 1.36.823 2.26 2.067 2.26 1.236 0 2.065-.907 2.065-2.254 0-1.34-.829-2.26-2.033-2.26M111.608 24.449h-1.477l.434-1.173.045-.123.046-.13c.084-.22.065-.155.084-.212.039-.112.072-.208.136-.383.039.136.065.2.091.279.045.13.148.408.214.595l.427 1.147zm-.402-2.546h-.64l-1.698 4.333h.603l.492-1.328h1.814l.485 1.328h.628l-1.684-4.333zM119.945 21.916h-.544v2.163c0 .027 0 .11.007.299 0 .096 0-.04.007.446l.005.15c.007.259.007.35.02.582-.097-.188-.148-.278-.259-.46-.136-.22-.2-.324-.46-.718l-1.613-2.462h-.615v4.32h.544v-2.448l-.006-.136v-.299l-.007-.148c0-.2-.006-.337-.026-.583.123.252.169.33.447.764.136.22.266.415.33.519l1.541 2.331h.63v-4.32zM127.758 23.956h-1.89v.46h1.378c-.006.304-.044.525-.142.726-.214.446-.66.706-1.205.706-.933 0-1.521-.68-1.521-1.75 0-1.087.588-1.793 1.496-1.793.699 0 1.192.363 1.276.94h.556c-.084-.862-.803-1.426-1.807-1.426-1.243 0-2.098.926-2.098 2.28 0 1.34.822 2.234 2.06 2.234.595 0 1.03-.2 1.385-.634.032.084.027.064.065.207l.085.33h.362v-2.28zM134.715 21.916L131.723 21.916 131.723 26.236 134.748 26.236 134.748 25.738 132.293 25.738 132.293 24.242 134.555 24.242 134.555 23.782 132.293 23.782 132.293 22.414 134.715 22.414zM141.434 25.738L139.141 25.738 139.141 21.916 138.572 21.916 138.572 26.236 141.434 26.236zM145.122 26.236L145.692 26.236 145.692 21.916 145.122 21.916zM153.199 21.916h-.544v2.163c0 .027 0 .11.006.299 0 .096 0-.04.007.446l.007.15c.005.259.005.35.018.582-.097-.188-.149-.278-.259-.46-.136-.22-.2-.324-.46-.718l-1.612-2.462h-.615v4.32h.544v-2.448l-.007-.136v-.299l-.006-.148c0-.2-.006-.337-.026-.583.123.252.168.33.447.764.136.22.265.415.33.519l1.542 2.331h.628v-4.32zM157.262 26.236L157.832 26.236 157.832 21.916 157.262 21.916z"/>
        <path fill="#D7D9DD" d="M17.158 17.96L17.158 36.417 0.776 25.001 0.776 0.932 14.727 9.397 10.36 12.016 10.364 18.965 12.795 20.604z"/>
        <path fill="#FEFEFE" d="M10.361 18.968L10.359 12.016 12.808 13.518 12.812 20.628z"/>
        <path fill="#AFAEB4" d="M35.403 29.003L31.03 26.399 31.035 19.427 35.403 21.811z"/>
        <path fill="#727276" d="M31.036 19.429L31.033 26.397 17.158 36.418 17.158 17.958 12.81 20.627 12.806 13.518 33.573 0.845 33.58 17.594z"/>
        <path fill="#ECEDEF" d="M37.814 20.046L37.814 27.244 35.403 29.003 35.403 21.81z"/>
    </g>
</svg>
