<svg xmlns="http://www.w3.org/2000/svg" xmlns:xlink="http://www.w3.org/1999/xlink" width="167" height="62" viewBox="0 0 167 62">
    <defs>
        <path id="k596231waa" d="M0 60L166.265 60 166.265 0.842 0 0.842z"/>
    </defs>
    <g fill="none" fill-rule="evenodd">
        <g transform="translate(0 .158)">
            <path fill="#FFF" d="M77.744 45.702c3.957-.263 7.296-1.735 9.992-4.4 2.99-2.963 4.487-6.704 4.487-11.223 0-4.124-1.173-7.655-3.687-10.462-.075-.084-.198-.144-.314-.144-.228 0-.414.186-.414.414 0 .035.006.07.018.106 1.85 4.987.772 9.99-2.5 11.319-2.294.922-5.068-.191-7.253-2.621-.17-.162-.449-.168-.613-.006-.153.149-.17.383-.045.55 0 0 .045.048.051.048 1.89 2.137 2.854 4.783 2.854 7.895 0 3.1-.948 5.705-2.854 7.818-.08.078-.135.18-.135.299 0 .22.188.407.413.407M41.303 35.586c-.383.192-1.245.281-2.283.281h-.78v-4.813h.615c1.003 0 1.874.085 2.307.246.434.156.77.437 1.012.82.239.395.359.826.359 1.305 0 .491-.111.922-.324 1.305-.218.383-.517.664-.906.856zm5.779 8.733c-.336-.479-.775-1.197-1.32-2.149-.871-1.508-1.547-2.568-2.03-3.172-.478-.605-.968-1.084-1.472-1.437.856-.353 1.662-.88 2.116-1.592.458-.707.685-1.55.685-2.526 0-1.424-.463-2.562-1.401-3.399-.933-.833-2.345-1.252-3.934-1.252h-3.937V45.51h2.452v-7.278h.173c.734 0 1.258.089 1.575.269.314.185.659.473 1.047.879.386.403.808.952 1.279 1.641l.75 1.304.698 1.222.44.659c.069.095.114.161.135.203l.685 1.101h2.887l-.828-1.191zM49.955 28.792L58.341 28.792 58.341 31.15 52.435 31.15 52.435 35.364 58.341 35.364 58.341 37.717 52.435 37.717 52.435 45.51 49.955 45.51zM28.934 41.686c-1.125 1.22-2.535 1.837-4.22 1.837-1.676 0-3.073-.604-4.193-1.802-1.113-1.203-1.673-2.711-1.673-4.52 0-1.86.557-3.398 1.67-4.596 1.109-1.203 2.532-1.801 4.262-1.801 1.642 0 3.029.604 4.154 1.819 1.127 1.215 1.697 2.706 1.697 4.483 0 1.826-.57 3.347-1.697 4.58m1.828-10.68c-1.615-1.64-3.64-2.453-6.072-2.453-2.43 0-4.442.814-6.03 2.454-1.59 1.635-2.382 3.7-2.382 6.195 0 2.436.787 4.46 2.367 6.076 1.58 1.616 3.553 2.424 5.922 2.424 2.484 0 4.54-.808 6.175-2.424 1.63-1.616 2.448-3.657 2.448-6.124 0-2.466-.813-4.512-2.428-6.147"/>
            <path fill="#FFF" d="M73.26 41.686c-1.124 1.22-2.534 1.837-4.222 1.837-1.675 0-3.074-.604-4.19-1.802-1.116-1.203-1.676-2.711-1.676-4.52 0-1.86.56-3.398 1.67-4.596 1.11-1.203 2.535-1.801 4.262-1.801 1.643 0 3.032.604 4.156 1.819 1.129 1.215 1.694 2.706 1.694 4.483 0 1.826-.565 3.347-1.694 4.58m1.826-10.68c-1.616-1.64-3.635-2.453-6.07-2.453-2.432 0-4.44.814-6.032 2.454-1.59 1.635-2.383 3.7-2.383 6.195 0 2.436.787 4.46 2.37 6.076 1.575 1.616 3.553 2.424 5.923 2.424 2.483 0 4.537-.808 6.172-2.424 1.63-1.616 2.447-3.657 2.447-6.124 0-2.466-.811-4.512-2.427-6.147M9.177 43.523c-1.91 0-3.495-.604-4.767-1.802-1.27-1.203-1.904-2.711-1.904-4.52 0-1.86.635-3.398 1.898-4.596 1.265-1.203 2.882-1.801 4.845-1.801 1.865 0 3.442.604 4.723 1.819.012.012.027.024.034.042v-2.718c-2.012-.915-3.85-1.376-5.5-1.376-2.396 0-4.404.832-6.042 2.49C.833 32.726.017 34.77.017 37.2c0 1.534.355 2.959 1.073 4.275.71 1.318 1.68 2.353 2.898 3.1 1.224.755 2.72 1.126 4.47 1.126 2.164 0 4.073-.473 5.723-1.436V41.48c-.008.007-.014.007-.023.013-.061.066-.123.126-.186.192-1.281 1.22-2.88 1.837-4.795 1.837zM85.917 25.015c-.575-.58-1.293-.874-2.159-.874-.863 0-1.579.294-2.145.874-.565.58-.846 1.317-.846 2.208 0 .863.278 1.587.84 2.162.56.574 1.263.861 2.105.861.885 0 1.621-.287 2.202-.86.577-.576.865-1.3.865-2.18 0-.879-.284-1.61-.862-2.19"/>
            <mask id="n7bn08yq4b" fill="#fff">
                <use xlink:href="#k596231waa"/>
            </mask>
            <text fill="#FFF" font-family="LucidaGrande, Lucida Grande" font-size="9.01" letter-spacing="-.161" mask="url(#n7bn08yq4b)">
                <tspan x="0" y="6.772">P</tspan> <tspan x="4.819" y="6.772" letter-spacing="-.109">r</tspan> <tspan x="8.396" y="6.772" letter-spacing="-.081">o</tspan> <tspan x="13.85" y="6.772" letter-spacing="-.108">y</tspan> <tspan x="18.449" y="6.772" letter-spacing="-.018">e</tspan> <tspan x="23.451" y="6.772" letter-spacing=".099">c</tspan> <tspan x="28.165" y="6.772" letter-spacing="-.071">t</tspan> <tspan x="31.464" y="6.772" letter-spacing="-.018">o ap</tspan> <tspan x="50.424" y="6.772" letter-spacing="-.08">o</tspan> <tspan x="55.878" y="6.772" letter-spacing="-.055">y</tspan> <tspan x="60.531" y="6.772" letter-spacing="-.018">ado por</tspan>
            </text>
            <path fill="#0166AC" d="M108.128 60L134.286 60 134.286 1.881 108.128 1.881z" mask="url(#n7bn08yq4b)"/>
            <path fill="#E2483E" d="M134.286 60L166.265 60 166.265 1.881 134.286 1.881z" mask="url(#n7bn08yq4b)"/>
        </g>
        <g fill="#FEFEFE">
            <path d="M3.884 4.868c-.602.269-1.064.396-1.612.396-1.327 0-2.01-.924-2.01-2.34C.263 1.572.946.674 2.332.674c.672 0 1.116.165 1.467.389l-.364.66c-.25-.17-.64-.283-1.091-.283-.805 0-1.168.589-1.168 1.474 0 1.049.39 1.61 1.156 1.61.283 0 .54-.04.753-.138v-.826h-.607l-.053-.641h1.46v1.95zM7.497 3.572c0 1.104-.555 1.69-1.52 1.69-.969 0-1.518-.58-1.518-1.69 0-.952.527-1.677 1.518-1.677.978 0 1.52.725 1.52 1.677m-.885 0c0-.778-.23-1.05-.635-1.05-.402 0-.626.278-.626 1.05 0 .753.207 1.058.626 1.058.424 0 .635-.284.635-1.058M8.944 2.29c.146-.198.497-.396.86-.396.76 0 1.308.542 1.308 1.678 0 1.116-.66 1.691-1.414 1.691-.463 0-.733-.179-.94-.456l-.157.391h-.463V.64h.866v1.129l-.06.521zm.06 2.007c.132.181.357.332.588.332.376 0 .654-.277.654-1.057 0-.773-.243-1.043-.64-1.043-.219 0-.457.112-.602.259v1.509z" transform="translate(137 6.158)"/>
        </g>
        <path fill="#FEFEFE" d="M149.032 11.355V8.738l-.378-.077v-.543h1.235v3.237h-.857zm-.028-3.773h.873v-.784h-.873v.784z"/>
        <g fill="#FEFEFE">
            <path d="M14.417 2.81c0 .516.29.8.832.8.331 0 .667-.126.95-.27l.166.606c-.271.146-.714.318-1.222.318-.997 0-1.591-.621-1.591-1.692 0-.997.481-1.677 1.518-1.677.977 0 1.362.726 1.362 1.538v.377h-2.015zm.607-1.281c-.429 0-.607.389-.607.773h1.182c0-.417-.124-.773-.575-.773zM18.922 1.68c-.105-.033-.258-.052-.404-.052-.231 0-.435.098-.58.218v2.352h-.858V.96h.6l.095.437h.017c.1-.232.39-.495.773-.495.17 0 .304.025.377.045l-.02.733zM21.45 4.198V2.274c0-.488-.185-.72-.58-.72-.224 0-.415.1-.567.199v2.445h-.866V.96h.596l.131.37c.185-.216.543-.435 1.022-.435.822 0 1.143.483 1.143 1.3v2.003h-.879zM25.944 2.572c0 1.104-.555 1.69-1.519 1.69-.97 0-1.519-.58-1.519-1.69 0-.952.528-1.677 1.52-1.677.976 0 1.518.725 1.518 1.677m-.885 0c0-.778-.23-1.05-.634-1.05-.403 0-.627.278-.627 1.05 0 .753.204 1.058.627 1.058.422 0 .634-.284.634-1.058M2.458 7.084c-.055-.185-.08-.351-.08-.594v-.977h.859v4.557h-.7l-.1-.357c-.132.198-.442.422-.858.422-.733 0-1.322-.528-1.322-1.683 0-1.071.608-1.685 1.393-1.685.351 0 .628.118.808.317zm-.08.489c-.134-.081-.338-.16-.59-.16-.409 0-.666.278-.666 1.031 0 .772.244 1.063.653 1.063.22 0 .437-.105.603-.277V7.573zM4.758 8.682c0 .517.289.799.83.799.332 0 .669-.125.95-.27l.167.607c-.271.147-.714.318-1.221.318-.997 0-1.593-.621-1.593-1.692 0-.997.484-1.676 1.519-1.676.978 0 1.36.725 1.36 1.538v.376H4.759zM5.364 7.4c-.43 0-.606.39-.606.774H5.94c0-.417-.125-.774-.576-.774zM10.71 10.135c-1.256 0-1.929-.832-1.929-2.317 0-1.388.665-2.274 1.929-2.274.606 0 1.155.132 1.52.377l-.331.7c-.232-.177-.634-.31-1.097-.31-.741 0-1.111.521-1.111 1.5 0 1.03.37 1.557 1.097 1.557.436 0 .873-.185 1.175-.409l.279.7c-.442.305-.944.476-1.532.476M12.825 10.07V5.513h.864v1.195c0 .223-.045.402-.087.5.18-.223.477-.441.933-.441.924 0 1.184.482 1.184 1.3v2.003h-.879V8.14c0-.462-.186-.714-.576-.714-.225 0-.429.093-.575.199v2.445h-.864z" transform="translate(137 7.158)"/>
        </g>
        <path fill="#FEFEFE" d="M153.683 17.227V14.61l-.376-.076v-.543h1.235v3.236h-.86zm-.026-3.773h.87v-.784h-.87v.784z"/>
        <g fill="#FEFEFE">
            <path d="M18.334 4.21V.512h.852v3.652c0 .271.166.312.523.312v.606s-.252.053-.475.053c-.662 0-.9-.35-.9-.925M21.01 3.682c0 .517.29.799.833.799.33 0 .666-.125.949-.27l.167.607c-.272.147-.713.318-1.222.318-.997 0-1.592-.621-1.592-1.692 0-.997.482-1.676 1.52-1.676.976 0 1.36.725 1.36 1.538v.376H21.01zm.606-1.282c-.428 0-.605.39-.605.774h1.182c0-.417-.125-.774-.577-.774zM2.582 42.638l-.01.487c-.116-.006-.297-.031-.464-.086.113.1.227.226.248.387 0 .603-.598.843-1.013.843-.097 0-.212-.02-.318-.046-.075.026-.12.07-.12.137 0 .265 1.561-.046 1.561.878 0 .577-.552.894-1.17.894-.517 0-1.039-.226-1.039-.678 0-.317.25-.482.653-.543-.306-.034-.613-.13-.613-.417 0-.205.19-.356.467-.376-.246-.135-.441-.34-.441-.692 0-.651.617-.84 1.013-.84.266 0 .818.048 1.246.052m-1.341 2.319c-.23.02-.376.15-.376.362 0 .215.196.37.462.37.295 0 .491-.15.491-.405 0-.215-.191-.296-.577-.327m.532-1.535c0-.291-.247-.368-.437-.368-.191 0-.441.077-.441.368 0 .31.236.385.441.385.2 0 .437-.074.437-.385M5.218 43.862c0 .839-.423 1.286-1.155 1.286-.74 0-1.154-.442-1.154-1.286 0-.723.4-1.275 1.154-1.275.744 0 1.155.552 1.155 1.275m-.674 0c0-.591-.175-.798-.481-.798s-.478.212-.478.798c0 .574.156.805.478.805.32 0 .48-.216.48-.805M6.316 42.887c.111-.149.377-.3.652-.3.578 0 .994.412.994 1.275 0 .85-.5 1.286-1.074 1.286-.35 0-.555-.137-.712-.346l-.12.295h-.35v-3.463h.656v.858l-.046.395zm.046 1.527c.101.136.27.252.447.252.285 0 .497-.21.497-.804 0-.586-.186-.793-.488-.793-.167 0-.347.085-.456.195v1.15z" transform="translate(137 12.158)"/>
        </g>
        <path fill="#FEFEFE" d="M145.381 57.256L146.042 57.256 146.042 56.548 145.381 56.548z"/>
        <g fill="#FEFEFE">
            <path d="M28.518 50.93c-.14.077-.472.218-.845.218-.73 0-1.173-.417-1.173-1.28 0-.804.443-1.28 1.169-1.28.327 0 .608.064.842.2l-.17.447c-.173-.106-.4-.15-.615-.15-.343 0-.558.23-.558.782 0 .558.205.784.562.784.256 0 .507-.096.668-.186l.12.465zM28.959 50.444v-2.81h.647v2.774c0 .207.126.237.399.237v.463s-.192.04-.362.04c-.502 0-.684-.267-.684-.704M3.606 7.433v.905c.161-.386.088-.703 0-.905M5.38 2.525c.024-.009-.011-.127.105-.135.108-.006.267.087.287.186.023.117-.072.395.296.437 0 0-.002.056-.007.116-.008.065-.025.134-.055.193h.068c.49.023.767-.014.909-.162 0 0 .084-.089.127-.179.125-.256.143-.488.077-.676h-.001l-.014-.037c-.01-.024-.018-.045-.031-.067-.111-.195-.397-.444-.751-.563-.025-.004-.048-.009-.073-.009-.004 0-.006-.002-.006-.003 0 0 .006-.006.014-.008h-.002.003c.008-.002.076.002.076.002.266.031.71.294.799.56.086-.05.162-.203.176-.329.009-.025-.01-.186.059-.326.02-.044 0-.093-.036-.11-.038-.019-.087-.002-.108.04-.065.135-.22.061-.153-.076.019-.044 0-.092-.037-.109-.037-.018-.086-.003-.108.04-.063.131-.212.057-.152-.074.022-.043.002-.09-.034-.109-.034-.017-.087-.002-.11.041-.061.136-.216.06-.152-.078.02-.04 0-.09-.037-.109-.036-.016-.087-.002-.107.042-.048.101-.085.158-.13.205.296.06.604.22.803.426 0 0 .083.091.093.11.006.014.009.026.006.03-.002.004-.006 0-.008-.003-.03-.037-.061-.067-.094-.092-.33-.276-.617-.388-.851-.42-.16.018-.114.197-.097.31-.266-.057-.47.142-.484.325 0 .07.012.14.05.216.003.005.002.013-.002.014-.011.006-.05-.027-.071-.08-.016-.04-.03-.089-.035-.136-.217.013-.416.128-.4.327.009.118.146.265.199.27m.765-.305c.054-.067.075.222.3.14-.163.194-.378-.006-.3-.14m-.018-.144c.086-.053.164-.224.296-.139.062.032.123.097.19.146.07.05.148.093.179.157.04.077-.064.264-.184.097-.077-.123-.187-.35-.361-.26-.141.071-.24.173-.276.077-.011-.048.102-.048.156-.078m-.62.037c-.038.081-.155.081-.172.185-.096-.088.085-.288.172-.185M11.324 11.733c-.149-.182-.549-.092-.549-.092.215-.638-.375-.808-.375-.808-.21-.056-.35-.016-.439.045l-.007.002c0 .004 0 .005-.005.007l-.04.034c-.052.056-.087.13-.087.214 0 .17.136.306.308.306.065 0 .124-.02.175-.056.06-.045.107-.108.123-.18.08.05.113.141.113.141.17.544-.443.74-.443.74-1.346.405-2.174-.292-2.174-.292l.235-.127c.081-.036.155-.047.215-.047-.003.012-.005.025-.005.04 0 .147.121.264.267.264.15 0 .27-.117.27-.265 0-.049-.015-.093-.039-.132l.005-.002-.02-.028c-.16-.24-.704-.082-.704-.082.181-.446.02-.768.02-.768-.1-.165-.082-.227-.082-.227 0-.16-.039-.176-.039-.176-.08-.112-.23-.05-.23-.05-.219.048-.264-.043-.264-.043-.183-.126-.262-.05-.262-.05-.079.054.03.19.03.19-.194 0-.253.247-.253.247-.08.41.262.445.262.445.241.012.244-.187.244-.187.032-.188-.239-.199-.239-.199.048-.113.13-.11.13-.11.282-.07.411.25.411.25.224.358-.064.694-.064.694-.047.051-.094.021-.094.021-.159-.067-.388-.237-.388-.237l-.024-.014h-.093c-.107 0-.219.034-.294.064.11.114.464.413.464.413-.268.21-.422.065-.422.065-.128-.138-.097-.37-.078-.466l-.029.013c-.123.054-.247.104-.373.153.127.22.326.55.326.55-.308.115-.375-.3-.389-.524l-.18.068c.015.05.016.09.016.09.02.226.227.501.227.501-.219-.047-.356.095-.356.095-.139.118-.136.28-.126.344.004.082.071.148.155.148.085 0 .156-.07.156-.156s-.066-.153-.149-.158c.07-.17.232-.034.232-.034.238.214-.136.456-.136.456-.267.178-.52-.163-.52-.163.28-.498.333-.846.323-1.06l-.29.094c.131.45-.18.707-.18.707-.09-.06-.103-.302-.103-.302-.028-.106-.059-.203-.093-.294-.085.024-.167.046-.254.067.096.281.136.695.136.695-.049.058-.202.075-.202.075-.219.018-.104-.105-.104-.105.11-.093.084-.158.084-.158-.064-.15-.304-.012-.304-.012-.32.178-.226.366-.226.366.041.117.365.23.365.23-.174.133-.51.076-.55.07-.01-.094-.077-.17-.167-.194l-.022-.005c-.117-.013-.176.037-.208.084-.016.021-.03.044-.039.07l-.196-.043c-.139-.02-.216-.414-.26-.758l-.162.018c.05.368.12.696.12.696-.07 0-.359-.203-.359-.203-.363-.218-.61-.15-.618-.146-.18.033-.32.192-.32.383 0 .213.175.387.388.387.21 0 .382-.168.388-.377.135.065.263.143.263.143.347.232.675.26.764.26.023.13.138.226.274.226.106 0 .201-.057.245-.146.745-.025 1.015-.354 1.015-.354.08-.103.1-.042.1-.042.27.395.797.154.797.154.101-.05.124.017.124.017.107.167.27.078.27.078.21-.106.086-.237.086-.237-.069-.074.018-.07.018-.07.245.036.293-.107.293-.107.052-.113-.126-.21-.126-.21-.048-.063.046-.112.046-.112.148-.085.124-.17.124-.17.185.004.17-.082.17-.082.005-.074-.225-.07-.225-.07-.184-.019-.146-.112-.146-.112.272-.01.681-.13.681-.13.6.487 1.485.604 1.485.604.02.088-.01.21-.016.226h-.01c-.083 0-.147.062-.147.141 0 .076.064.14.141.14.015 0 .041-.007.041-.007.284-.075.307-.494.307-.494.811.077 1.364-.533 1.364-.533.08-.07.12-.049.136-.027l.004.002c.042.054.105.086.176.086.082 0 .15-.039.192-.1.026-.048.038-.092.042-.129v-.006c.004-.093-.048-.15-.048-.15M1.559 12.776c.078-.038.093-.127.093-.127.013-.222-.147-.322-.152-.324-.095.002-.191.005-.29.006l-.291-.006c-.003.002-.164.102-.15.324 0 0 .017.089.094.127 0 0-.205.087-.208.228 0 0-.024.106.158.252 0 0 .132.148.17.258 0 0 .01.159.228.159.217 0 .227-.16.227-.16.039-.11.17-.257.17-.257.18-.146.159-.252.159-.252-.004-.141-.208-.228-.208-.228" transform="translate(120 6.158)"/>
        </g>
        <g fill="#FEFEFE">
            <path d="M4.073.878L4.178.866 4.111.74zM.488.882L.593.892.552.757z" transform="translate(119 17.158)"/>
        </g>
        <g fill="#FEFEFE">
            <path d="M1.071.588l-.01-.001-.03.162c.037.005.062.006.073.003.016-.003.027-.011.034-.023.01-.01.014-.026.02-.048.001-.03 0-.052-.016-.066C1.132.6 1.107.59 1.072.588M2.613.714c-.037 0-.064.013-.084.04-.02.028-.03.073-.03.136-.004.068.003.116.02.146.016.031.045.048.08.048.036.002.064-.01.084-.037.02-.028.031-.074.035-.143.001-.06-.006-.109-.022-.14-.017-.03-.044-.049-.083-.05M3.958.713C3.92.714 3.895.73 3.877.76c-.018.03-.023.075-.022.137.004.067.014.116.035.144.02.03.044.045.081.041.037 0 .065-.016.083-.044.016-.028.025-.076.022-.142-.004-.062-.014-.11-.034-.14C4.023.726 3.996.71 3.958.712" transform="translate(118 17.158)"/>
        </g>
        <path fill="#FEFEFE" d="M118.286 17.863L118.39 17.885 118.361 17.745z"/>
        <g fill="#FEFEFE">
            <path d="M1.238.895l-.059.161.022.008c.031.012.055.013.07.002.016-.01.03-.026.037-.05.008-.02.012-.038.008-.056-.004-.013-.01-.027-.02-.035-.01-.01-.03-.018-.058-.03M1.753 1.07c-.034-.01-.064-.003-.091.018-.025.022-.047.06-.066.122-.022.065-.028.113-.018.148.008.033.029.055.063.068.037.009.067.004.092-.016.027-.02.05-.061.073-.128.016-.058.02-.107.013-.141-.008-.033-.03-.057-.066-.071M2.251 1.221c-.006 0-.012 0-.019-.004l-.043.16c.038.011.06.014.075.013.012 0 .024-.008.036-.017.009-.012.017-.027.022-.048.009-.029.007-.052-.005-.067-.008-.016-.033-.026-.066-.037M10.283 1.228c-.018-.008-.043-.006-.076.004-.006 0-.01.004-.017.004l.043.16c.036-.01.06-.018.07-.026.01-.01.018-.02.023-.034.002-.014.002-.03-.005-.052-.009-.03-.02-.048-.038-.056" transform="translate(115 16.158)"/>
        </g>
        <path fill="#FEFEFE" d="M126.175 17.336L126.275 17.298 126.18 17.196z"/>
        <g fill="#FEFEFE">
            <path d="M11.584 7.624c-.042-.031-.094-.045-.149-.045-.056 0-.101.016-.101.016-.2.053-2.055.871-5.123.874-3.07-.003-4.924-.821-5.125-.874 0 0-.043-.016-.1-.016-.056 0-.107.014-.15.045l-.629.494h.004c.182 0 .387.094.393.098 1.635.717 3.511 1.012 5.607 1.031 2.097-.019 3.97-.314 5.605-1.031.008-.004.212-.098.395-.098h.002l-.629-.494zm-5.977.918l.13.007-.155.096h-.026l.051-.103zm-4.181-.486c-.01.028-.028.047-.049.06-.025.014-.051.017-.078.015-.028-.003-.061-.012-.102-.028l-.031-.009-.037.099c-.004.017-.004.031-.002.041.002.008.016.019.033.027l.01.002-.01.033-.222-.081.009-.034.008.002c.022.01.035.01.045.005.008-.007.016-.017.023-.037l.09-.244c.006-.017.008-.032.006-.042-.006-.009-.015-.018-.039-.025l-.008-.005.012-.031.168.057c.041.014.074.028.094.037.023.012.043.025.056.041.016.019.026.037.03.058.004.018.002.041-.006.059zm.506.269c-.02.058-.057.101-.11.132-.056.028-.118.03-.191.009-.047-.016-.088-.04-.119-.073-.032-.033-.047-.068-.055-.11-.004-.04-.002-.076.01-.111.01-.037.033-.072.064-.1.032-.029.071-.046.11-.052.042-.007.082-.002.124.012.073.022.126.062.152.117.028.057.033.114.015.176zm.441.217c.015.046.025.073.035.084.008.011.019.019.032.021l-.01.036-.13-.038c-.012-.015-.023-.057-.04-.125-.008-.034-.015-.057-.019-.066-.005-.011-.011-.018-.014-.023-.009-.005-.024-.009-.047-.015l-.028.1c-.005.019-.005.035 0 .043.004.009.017.018.038.023l.006.001-.008.035-.228-.06.011-.036.009.002c.02.007.033.007.041-.001.009-.006.018-.017.022-.037l.066-.249c.005-.021.007-.033.002-.044-.006-.01-.018-.014-.038-.022l-.008-.003.009-.035.168.048.039.008.082.023c.017.009.033.02.046.033.015.016.024.03.029.05.007.019.007.038.002.056-.015.051-.052.079-.115.08.013.015.03.051.048.111zm.717.287l-.389-.084.006-.034h.008c.02.005.037.005.044-.002.009-.006.013-.02.017-.038l.056-.254c.003-.019.003-.034-.002-.044-.006-.01-.018-.015-.039-.021l-.008-.001.008-.033.23.049-.008.033-.007-.001c-.022-.004-.037-.004-.046.003-.007.006-.013.02-.017.039l-.05.245c-.005.018-.007.03-.007.037.002.005.007.011.013.017.007.007.022.013.047.018.036.008.066.004.088-.011.024-.014.04-.036.056-.068l.034.007-.034.143zm.481.087l-.215-.038.008-.037c.02.004.031.004.031.004.01-.005.014-.008.015-.015.001-.004 0-.013-.003-.022l-.002-.009-.006-.033-.132-.026-.011.022c-.01.013-.016.023-.016.029-.003.01 0 .017.007.023.005.006.018.008.033.012l-.007.035-.143-.024.008-.036c.025.007.053-.013.081-.057l.191-.309.038.006.075.358c.006.037.016.057.025.067.009.008.018.014.03.014l-.007.036zm.738.103l-.135-.017c-.011-.016-.03-.056-.054-.122-.013-.032-.023-.054-.029-.063-.006-.009-.013-.016-.02-.018-.006-.005-.02-.007-.046-.011l-.011.102c-.003.021-.002.035.005.043.003.009.018.015.039.019h.007l-.003.034-.236-.029.006-.037.008.002c.022.003.036 0 .044-.006.009-.007.013-.021.016-.04l.034-.257c.001-.019 0-.033-.005-.042-.005-.01-.018-.016-.04-.018l-.009-.001.004-.036.175.023.039.006c.038.004.066.009.085.014.016.005.032.013.05.026.015.011.027.027.036.044.007.019.009.036.007.057-.007.051-.041.083-.102.095.014.012.033.044.059.101.021.043.037.07.045.081.01.008.024.013.035.015l-.004.035zm.481.049l-.217-.02.003-.036c.02.002.032.002.036-.002.005-.003.01-.008.01-.013 0-.007 0-.013-.005-.023l-.003-.01-.009-.033-.132-.013-.013.02c-.008.016-.011.025-.011.032 0 .01.002.019.008.024.006.003.018.007.035.008l-.004.037-.144-.015.003-.035c.029.001.053-.019.077-.064l.168-.325.036.003.103.354c.011.033.02.055.031.062.01.01.02.013.032.015l-.004.034zm.472-.375l-.278.351.103.008c.027.001.047.001.061-.004.013-.004.026-.013.04-.026.01-.012.021-.031.03-.053l.036.002-.018.131-.391-.03.001-.028.271-.352-.07-.006c-.045-.002-.075 0-.092.008-.015.01-.027.031-.042.062l-.033-.003.015-.115.368.027-.001.028zm.519.375c-.046.042-.106.061-.181.058-.051-.002-.097-.015-.137-.037-.036-.024-.065-.054-.079-.092-.016-.036-.023-.072-.02-.108 0-.041.012-.078.036-.114.024-.039.054-.064.092-.081.037-.017.079-.023.121-.023.078.005.138.029.179.075.042.046.063.102.061.167-.004.06-.027.112-.072.155zm.642-.339c-.013 0-.021.004-.031.007-.01.008-.015.015-.02.026-.003.01-.007.023-.007.041v.335h-.043l-.281-.321v.2c0 .032.005.053.016.063.011.009.026.014.045.014v.035h-.164v-.035c.014 0 .027-.004.037-.009.009-.008.017-.017.018-.024.004-.011.005-.024.006-.044L6 8.794c0-.045-.02-.066-.062-.066v-.037l.148.001.237.269V8.8c0-.047-.017-.072-.057-.072v-.036l.157.001v.036zm.728.321c-.043.048-.1.071-.174.074-.052.002-.099-.007-.139-.026-.041-.02-.069-.05-.089-.084-.018-.037-.026-.073-.029-.109 0-.038.006-.077.029-.117.02-.037.048-.067.085-.085.036-.02.076-.032.119-.032.078-.005.14.015.185.058.046.043.069.097.071.161.003.062-.016.116-.058.16zm.371.036l-.003-.037.006-.001c.021 0 .037-.007.041-.014.007-.01.01-.024.007-.044l-.022-.257c0-.02-.007-.033-.014-.041-.008-.006-.022-.009-.044-.008l-.006.002-.003-.037.234-.02.004.036-.009.001c-.023 0-.037.007-.04.015-.007.008-.01.023-.007.044l.021.246c.002.019.002.033.005.038.003.006.009.01.02.013.01.005.024.005.048.003.038-.003.066-.015.084-.036.015-.02.026-.047.031-.08l.035-.003.01.144-.398.036zm.669-.067l-.004-.033c.019-.004.032-.006.036-.012.004-.004.006-.009.006-.013l-.008-.02-.005-.01-.016-.03-.135.015-.004.022c-.006.018-.008.027-.006.033 0 .011.006.018.012.02.006.006.018.006.034.004l.005.034-.143.019-.003-.036c.027-.004.047-.03.06-.077l.095-.353.037-.005.175.32c.018.031.033.051.044.057.011.006.022.007.032.007l.005.034-.217.024zm.752-.43c-.006-.02-.017-.033-.026-.047-.013-.009-.021-.017-.031-.018-.009-.002-.023-.001-.041.001l-.071.013.024.148.034-.005c.016-.004.028-.008.033-.016.006-.008.008-.022.006-.045l.033-.005.025.147-.034.008c-.006-.024-.011-.039-.02-.042-.007-.009-.02-.011-.035-.008l-.036.008.02.116c.003.017.008.032.016.038.008.007.023.009.046.006l.009-.002.004.036-.233.038-.005-.037.005-.001c.023-.003.037-.009.042-.018.004-.009.005-.024.002-.043l-.04-.258c-.004-.017-.009-.03-.016-.038-.008-.006-.023-.007-.047-.005l-.005.001-.005-.036.361-.056.021.114-.036.006zm.508-.107l.029.142c.006.031.006.057.006.077 0 .02-.002.04-.014.061-.012.023-.029.041-.052.055-.024.019-.052.028-.084.036-.033.006-.062.007-.092 0-.027-.005-.051-.014-.068-.031-.016-.012-.03-.03-.04-.047-.009-.017-.014-.041-.022-.067l-.032-.17c-.002-.021-.01-.034-.018-.04-.008-.007-.025-.007-.046-.002l-.009-.034.227-.046.006.036-.006.002c-.02.003-.034.009-.04.018-.006.01-.006.024-.001.044l.032.17c.007.03.013.054.023.07.008.016.024.031.042.038.02.012.042.014.064.007.028-.004.048-.014.064-.031.016-.019.024-.036.025-.057.003-.02-.001-.047-.007-.082l-.027-.144c-.008-.044-.034-.061-.077-.052l-.006-.036.158-.03.008.033c-.01.003-.017.006-.027.014-.008.006-.016.015-.017.026-.002.01 0 .021.001.04zm.199.298l-.008-.035.008-.002c.02-.007.033-.012.038-.022.006-.01.006-.022 0-.044l-.058-.251c-.006-.021-.011-.033-.02-.038-.009-.006-.022-.006-.045-.003l-.008.003-.007-.036.363-.083.033.108-.035.008c-.013-.016-.022-.033-.032-.041-.011-.011-.02-.015-.03-.017-.009-.001-.022 0-.041.005l-.079.018.035.148.039-.009c.019-.006.03-.011.035-.019.005-.009.006-.026 0-.044l.036-.01.034.145-.034.007-.002-.004c-.002-.013-.009-.024-.016-.032-.007-.009-.023-.011-.043-.007l-.041.01.025.106c.005.022.009.033.014.038.002.007.009.01.021.012.012.001.027 0 .049-.005.026-.007.045-.015.057-.023.012-.012.02-.027.028-.046.006-.02.009-.04.009-.061l.034-.01.03.141-.389.093zm.814-.206c-.019-.012-.05-.042-.097-.092l-.053-.047c-.007-.005-.016-.009-.022-.009 0 0-.026 0-.047.009l.028.098c.003.019.011.032.021.038.009.006.022.006.042 0l.009-.003.01.035-.228.063-.009-.035.009-.001c.02-.006.032-.013.038-.024.004-.009.002-.023-.002-.042l-.069-.25c-.006-.019-.013-.031-.023-.036-.008-.006-.022-.006-.042 0l-.008.001-.012-.036.17-.045.038-.012c.037-.007.064-.016.084-.02.017-.001.035 0 .055.005.02.004.037.015.052.029.013.012.023.029.028.047.013.051-.005.093-.058.126.019.007.052.03.097.07.037.035.06.051.072.058.014.003.025.005.039 0l.009.034-.131.039zm.204-.062l-.009-.026.119-.429-.067.022c-.043.015-.068.028-.082.042-.011.012-.015.037-.015.072l-.035.013-.028-.116.35-.112.007.026-.118.431.094-.034c.027-.008.048-.018.058-.026.012-.008.018-.023.026-.039.005-.015.008-.035.008-.061l.034-.01.034.126-.376.121zm.657-.223l-.014-.035c.019-.007.03-.013.032-.017.005-.005.005-.012.002-.017l-.013-.016-.006-.01-.024-.024-.125.046-.002.023c0 .018.002.03.005.034.003.01.008.017.017.018.008 0 .018-.001.036-.008l.011.035-.136.052-.01-.035c.024-.009.038-.04.039-.09l.006-.365.035-.012.249.267c.023.027.044.044.054.046.014 0 .022 0 .035-.002l.011.031-.202.079zM4.254 1.53c-.102-.052-.187-.108-.245-.146-.054.035-.144.09-.23.146h.475zM5.364 1.426c-.042.018-.128.054-.194.091l-.029.013H7.12l-.026-.012c-.072-.038-.16-.074-.2-.092-.01-.004-.017-.009-.023-.01-.09-.039-.177-.067-.258-.089h-.966c-.082.022-.168.05-.259.088l-.023.011M8.338 1.386l-.006.003c-.04.031-.11.087-.205.141h.416c-.074-.05-.148-.102-.195-.138-.003-.003-.008-.004-.01-.006M3.748 5.333V4.311c-.08.197-.2.619 0 1.022" transform="translate(115 9.158)"/>
        </g>
        <path fill="#FEFEFE" d="M121.129 12.776L119.233 12.167 120.712 12.167z"/>
        <g fill="#FEFEFE">
            <path d="M10.12 6.664H7.6l-.002.004c-.002.026.014.051.03.066.013.016.05.062.1.134h2.33l.062-.204zM10.019 7.001H7.815c.034.061.07.127.109.202h2.033l.062-.202zM9.916 7.337H7.982c.026.063.048.131.069.203h1.804l.061-.203zM9.815 7.676h-1.73c.011.066.022.133.027.204h1.64l.063-.204zM8.709 8.35h-.598c-.008.06-.022.128-.042.202h.922l-.282-.203zM8.523 8.216l-.286-.203H8.12v.017c.005.026.01.09.005.186h.398zM10.138 6.664l-.01-.03V8.618l1.898-.609h-1.48l-.041-.129h1.668c.008-.07.02-.138.036-.204h-1.764l-.041-.136h1.844c.022-.07.047-.138.075-.203H10.34l-.04-.134h2.082c.038-.074.075-.14.112-.202H10.24l-.041-.133h2.382c.066-.099.12-.162.135-.178.012-.012.012-.022.014-.026h-2.593zM10.584 9.699v1.519c.064-.043.133-.078.203-.105v-1.26l-.203-.154zM10.24 9.438v2.195l.077-.122.01-.02c.031-.059.072-.11.117-.156V9.591l-.204-.155zM9.903 9.525v1.766c.063.056.12.123.163.202l.011.017c.007.011.017.026.028.046V9.37l-.202.155zM9.566 9.78v1.316c.07.025.137.058.202.098V9.629l-.202.15zM10.92 11.066c.07-.021.139-.036.204-.047v-.91l-.204-.154v1.11zM9.23 11.012c.061.01.131.022.202.042v-1.17l-.203.152v.976z" transform="translate(111 4.158)"/>
            <path d="M10.129 8.618l-.691.252-.26-.184H8.03c-.02.063-.045.131-.075.203-.022.051-.046.102-.072.155v1.5c.04.05.107.12.202.185V8.89h.133v1.923c.06.034.127.063.2.09V8.89h.138v2.053c.06.016.13.027.2.036V8.89h.137v2.1l.087.002c.016 0 .057.002.116.007v-.859l-.116.09 1.149-1.61zm-1.033.271h.134v.594l-.134.396v-.99zM12.317 8.89h-.002c-.03-.073-.058-.14-.078-.204H11.08l-.259.184-.505-.184-.186-.069 1.127 1.593v.791c.08-.008.138-.01.16-.01h.044V8.888h.135v2.093c.072-.006.141-.015.203-.03V8.89h.133v2.028c.075-.023.142-.05.203-.08V8.888h.135v1.87c.077-.053.142-.104.188-.153.006-.006.01-.015.014-.023V9.198c-.063-.11-.114-.213-.154-.309zm-1.06 1.27l-.133-.396V8.89h.132v1.27zM11.266 8.552h.933c-.02-.077-.03-.144-.038-.203h-.613l-.282.203zM12.02 8.013l-.284.203h.415c-.002-.069.005-.115.008-.14 0-.023.002-.043.003-.063h-.143zM13.128 4.019c.06.002.114 0 .164-.008.63-.164.655-.941.55-.992-.004.009-.006.006-.01-.005-.014.047-.031.094-.051.135-.04.078-.09.13-.104.122-.004-.003-.007-.013-.003-.02.14-.24.134-.43.063-.665-.05-.126-.124-.253-.245-.338-.318-.222-.956-.262-1.301.008-.121-.122-.272-.211-.452-.274-.043.193-.258.454-.445.587-.038.026-.145.098-.19.098 0 0-.041-.008-.003-.043.338-.21.503-.465.507-.785v-.006c-.01-.16-.052-.46-.247-.672-.307-.335-1.134-.381-1.514-.065-.1.106-.165.233-.198.39.04-.114.129-.232.307-.287.166-.053.488-.016.537.178-.284-.292-.802-.076-.873.419V1.79c-.007.034-.025.036-.025.036h-.002c-.015-.002-.034-.002-.026-.224.006-.138.048-.31.112-.454-.637-.114-1.401.197-1.388 1.143.012.133.059.258.182.398.022.027.004.039.004.039-.02.01-.1-.043-.145-.107-.063-.086-.12-.201-.147-.311-.4-.144-.646-.148-.872-.127-.234.022-.543.229-.651.373-.05.062-.103.153-.144.23-.077.15-.136.345-.114.564.037.37.218.682.487.829.37.205.84.176 1.008.15.09-.02.187-.051.286-.12l.039-.027.016-.013c.149-.13.238-.326.225-.586 0-.004.007-.014.013-.014.016 0 .038.068.037.158-.002.1-.027.218-.066.318 0 .016 0 .032.002.05.006.036.02.074.04.1.07.078.246.104.383.049.006-.003.017-.002.017.004 0 .018-.092.115-.26.115-.034 0-.07-.003-.103-.011.09.159.356.269.627.252.005-.001.015.006.015.01 0 .018-.067.04-.157.04-.124 0-.275-.03-.385-.088.128.158.352.298.73.35.01.044-.285.01-.372-.02.175.688.543.609.55.656-.108.036-.183.169-.106.318.39-.14.68-.151.767-.151.088 0 .388.012.787.156.044-.056.045-.12.024-.177-.06-.172-.588-.305-1.084-.158-.021.006-.043.018-.063.032l-.007-.001c-.002 0 .002-.007.007-.011v-.002c.006-.008.065-.042.065-.042.218-.113.667-.157.914-.034h.004c.21.09.398-.166.332-.3.155.009.272-.088.282-.245-.031.019-.057.03-.081.04v.002c-.056.028-.108.03-.113.022-.002-.002-.001-.003 0-.006h-.002l.002-.001.004-.004c.025-.011.045-.021.067-.033.289-.167.429-.494.4-.594-.024.058-.114.106-.201.109-.046.003-.073-.006-.076-.014 0-.005.006-.01.006-.01.04-.002.07-.018.102-.04.1-.073.195-.207.24-.317-.18-.172-.244-.373-.348-.641-.04-.1-.123-.202-.248-.213h-.052c-.015.002-.03.004-.045.008-.002.003-.007 0-.008-.002.137-.115.289.009.377.06.016-.255.107-.321.115-.315 0 0 .005.01.002.01-.176.523.17 1.018.445 1.177.362.198 1.024.225 1.464-.147h-.001c-.08.02-.163.037-.237.038-.087.003-.157-.018-.158-.035 0-.008.01-.012.016-.012m-5.92-.03c.235-.06.438-.184.379-.404-.017-.061-.071-.111-.16-.121-.13-.01-.217.083-.283.182.016-.205.144-.338.35-.314.11.012.258.113.28.228.064.325-.234.459-.566.43m.828-.232c.098-.27.149-.675-.275-.781-.331-.083-.631.165-.783.303.098-.305.429-.532.868-.435-.09-.255-.416-.362-.797-.151-.092.049-.16.108-.222.162.069-.191.226-.333.407-.4.289-.105.582.007.732.156.47.46.213 1.113.07 1.146m2.173 1.395c-.194.007-.217-.131-.253-.278.085.069.205.16.196.004-.073-.063-.506-.175-.393-.364.07-.104.306.31.372.172.039-.28-.834-.367-.81-.607.005-.131.689.332.788.322-.01-.148-1.018-.56-1.326-1.11-.021-.04-.034-.073-.027-.08.004-.001.008 0 .01.004.189.3.682.703 1.3.87.21.06.313.732.143 1.067m.229.17c-.067-.018-.03-.135-.03-.186 0-.29-.006-.568-.078-.808-.033-.12-.13-.502-.386-.987.097.114.484.712.539 1.166.032.254.078.594-.045.815m.313-1.724c.186.077-.091.449-.113.517.044-.02.192-.178.252-.13.094.079-.197.46-.273.486-.411-.534.115-.694.134-.873m-.05 1.567c-.054-.024-.056-.134-.047-.185.02-.135.176-.2.248-.273.018-.001.008.217-.201.458m-.047-.378c-.081-.141.13-.313.176-.453.257-.038-.065.412-.176.453m.229-3.664c-.013-.016.37.075.438.414.014.21-.102.276-.125.265-.008-.002-.01-.018-.008-.025.059-.142.036-.364-.073-.495-.08-.095-.221-.145-.232-.16m2.156 2.093c-.004.003-.008.003-.01 0s-.004-.005-.004-.01c0-.03.005-.064.008-.095.009-.078.009-.157-.01-.245-.097-.414-.437-.558-.683-.314 0 0 .267-.495.86-.315.148.048.259.166.342.349.069.159.04.322-.007.415-.002.002-.005.002-.005.002-.007-.002-.01-.005-.007-.01.016-.092-.01-.25-.064-.375-.031-.068-.097-.185-.197-.212.06.088.102.16.13.22.038.087.038.135.04.174.004.185-.084.394-.17.47h-.011c-.004-.002-.004-.005-.003-.01.096-.223.104-.418.026-.595-.01-.02-.017-.036-.03-.056-.068-.126-.188-.27-.367-.263.086.06.158.15.207.26.104.236.084.502-.045.61" transform="translate(111 4.158)"/>
            <path d="M18.807 8.41c-.06-.984-.137-1.867-.376-2.68-.146-.497-.428-1.518-1.088-1.658-.311-.066-.545.22-.538.48.002.225.159.333.09.553-.082.144-.164.302-.204.463-.042.159.1.225.056.394-.2-.028-.305.137-.601.076-.271.113-.543.063-.546.057 0-.005.008-.008.014-.008.297-.01.563-.105.619-.236.059-.198.024-.495-.126-.603-.166.035-.25.18-.841.145-.485-.028-.606.062-.673.357-.03-.048-.031-.087-.026-.14.019-.161.18-.26.376-.282.043-.07.048-.124.048-.202-.09-.007-.131-.01-.243.008-.23.036-.55.168-.63.399-.008.026-.014.075-.014.12 0 .037.006.07.015.103.008.025.019.049.025.074.074.16.257.249.646.268.007-.002.015.005.015.012-.002.017-.08.03-.178.02 0 0-.361.003-.523-.186l-.028.033c-.1.1-.28.197-.437.206-.178.008-.372-.105-.44-.2-.236-.314.068-.858.063-1.06-.015-.542-.751-.3-1.02-.157-.323.169-.58.44-.794.709-.116.142-.245.318-.312.472.095.043.377.166.589.169l.012.002.074.002c.11 0 .322-.018.475-.148.015-.013.08-.063.17-.063.07 0 .13.026.187.078.037.03.502.402.653.505.023.012.067.054.075.118.006.037-.001.096-.058.162-.033.039-.268.313-.42.685-.022.056-.043.11-.061.17-.056.197-.096.513.18.609 0 0 .305.08.28-.425 0 0 .05.324.286.313.1-.005.192-.104.175-.321-.02-.21-.017-.447.023-.711.003-.01.005-.017.006-.027.004.004.008.027.023.129.014.132-.078 1.302.883 2.094 0 0-.406-.197-.687-.695-.163.097-.384.302-.282.742.053.15.157.292.237.335.005.004.01.012.01.02 0 .02-.053.06-.138-.028V9.66c-.013-.013-.027-.03-.041-.046-.034-.051-.058-.1-.077-.146-.111-.098-.213-.201-.313-.304l-.001-.002c-.077-.157-.034-.625-.492-.627H12.86c-.02.002-.047.004-.077.01l-.017.003c-.12-.41-.086-.67-.081-.71.094-.592.514-1.082.56-1.137.017-.02.038-.05.034-.078-.004-.023-.022-.04-.025-.041l-.003-.002c-.158-.106-.613-.47-.665-.511l-.004-.006c-.034-.03-.071-.05-.111-.05-.057 0-.1.04-.1.04-.184.153-.42.176-.546.176-.044 0-.075-.004-.088-.007h-.006c-.266-.007-.596-.164-.661-.195-.453-.19-.804-.2-.87-.2-.063 0-.414.01-.866.2-.065.03-.397.188-.66.195H8.67c-.012.002-.045.007-.092.007-.125 0-.363-.023-.544-.174l-.003-.003s-.042-.038-.098-.038c-.04 0-.078.019-.111.049l-.005.006c-.051.042-.508.405-.664.51l-.003.003c-.004.002-.022.018-.026.04-.002.029.017.06.032.079.048.055.467.545.56 1.137.006.022.016.112.006.257-.038-.125-.076-.235-.103-.313-.015-.066-.036-.123-.067-.173l-.002-.002c-.063-.1-.157-.174-.26-.231-.082-.046-.171-.06-.25-.114-.122-.084-.25-.173-.33-.33-.003-.303-.16-.53-.16-.53.043-.021.228.113.242.442.218-.227.327-.561.407-.927.165-.226.624-.137.799-.106.046.007.122.02.157.05.05.033.06.112.13.14.072.032.155.009.244 0 .027.034.045.076.065.118.028 0 .05-.002.05-.002l.012-.002h.007c.25-.003.59-.17.622-.185l.007-.005c.012-.004.024-.01.036-.013-.098-.122-.25-.16-.386-.182-.171-.026-.265-.172-.428-.207-.042-.01-.188-.032-.235-.013-.365.046-.622-.091-.96-.115-.324-.023-.334.197-.45.379-.044.068-.096.149-.15.199-.088.087-.192.089-.3.172-.005-.003-.01-.005-.016-.01-.021-.111-.068-.291-.151-.414l-.004-.006-.021-.04c-.18-.277-.38-.488-.768-.58-.074-.03-.086-.034-.136-.073-.061-.05-.016-.107 0-.114.113-.063.302-.042.43-.101.309-.145.2-.406.08-.428-.16-.03-.44-.104-.497-.136-.072-.047-.121-.178-.242-.223-.094-.028-.172-.025-.258-.014-.074.012-.123.067-.177.058.07-.1.193-.151.349-.164-.137-.038-.09-.26-.215-.31-.052-.008-.132.016-.22.06-.01-.068-.051-.302-.18-.38-.104-.06-.143.035-.137.094.004.054.16.12.186.36-.026.019-.055.037-.08.056-.02-.1-.065-.252-.166-.31-.106-.061-.143.03-.137.093.006.05.14.109.18.314-.037.029-.07.06-.104.089-.21-.057-.254-.205-.307-.214-.06-.012-.156.017-.107.126s.207.17.303.2c-.024.024-.047.049-.067.073-.242-.05-.291-.212-.345-.223-.061-.012-.157.018-.108.127.067.14.305.204.367.217-.041.067-.06.127-.05.17-.19-.022-.522.08-.46.3.06.045.286-.136.487-.035.137.209.354.22.402.257.075.06.088.168.12.267.062.179.189.325.296.486.116.175.235.36.356.513.015.043.03.089.02.15-.137.22-.55.479-.72.638-.171.16-1.791 1.393-1.995 1.932-.046.12-.072.276-.065.437-.1.052-.271.02-.322-.036-.108-.128.11-.248.057-.416-.023-.065-.11-.088-.178-.065-.12.043-.146.285-.086.43.016.04.08.094.035.126-.061.023-.1-.038-.1-.124-.032.025-.065.08-.048.14.03.118.174.12.22.15-.005.054-.085.078-.14.029-.09.132.01.183.033.186.097.019.202-.07.264-.078.028.067-.02.088-.121.115.162.197.308-.14.486-.1.056.013.565.488.48.85-.005.02-.025.073-.035.087-.113.139-.301.247-.43.379-.265.17.254 1.237.21 1.784-.031.213.185.173.309.52-.132.004-.26.034-.326.133l-.02.028.003.002c-.022.039-.036.083-.036.132 0 .148.12.265.268.265.148 0 .268-.117.268-.265 0-.014-.003-.027-.004-.04.057 0 .133.012.213.048l.234.127s-.826.697-2.173.29c0 0-.613-.195-.441-.738 0 0 .03-.092.112-.143.016.074.062.137.124.182.049.035.109.055.175.055.169 0 .306-.136.306-.305 0-.085-.033-.158-.086-.214-.013-.012-.025-.023-.041-.034l-.005-.004-.005-.005c-.09-.061-.23-.101-.441-.046 0 0-.588.17-.373.808 0 0-.4-.09-.55.093 0 0-.053.057-.047.15v.006c.003.038.014.082.04.129.042.06.112.1.192.1.072 0 .136-.032.179-.085v-.002c.017-.022.057-.043.138.026 0 0 .553.61 1.364.534 0 0 .023.419.307.493 0 0 .026.008.04.008.078 0 .142-.064.142-.14 0-.08-.064-.142-.142-.142h-.015c-.005-.015-.036-.137-.02-.226 0 0 .89-.116 1.488-.604 0 0 .41.119.68.13 0 0 .039.094-.143.113 0 0-.232-.004-.226.07 0 0-.018.085.168.08 0 0-.022.087.125.17 0 0 .095.05.044.113 0 0-.175.098-.125.21 0 0 .049.144.297.107 0 0 .084-.003.016.07 0 0-.123.132.086.238 0 0 .162.089.269-.078 0 0 .024-.068.123-.018 0 0 .53.242.8-.153 0 0 .018-.061.097.042 0 0 .273.329 1.015.354.046.089.139.146.245.146.136 0 .25-.097.274-.227.09 0 .416-.027.765-.26 0 0 .127-.077.263-.142.006.209.177.377.389.377.213 0 .39-.174.39-.388 0-.19-.142-.35-.322-.382-.01-.004-.257-.073-.618.146 0 0-.291.203-.36.203 0 0 .068-.328.12-.696-.054-.005-.11-.012-.162-.02-.044.346-.12.739-.261.76l-.196.042c-.01-.025-.023-.048-.038-.07-.03-.046-.092-.096-.208-.084l-.022.006c-.088.023-.158.1-.166.193-.042.007-.378.064-.551-.07 0 0 .324-.113.363-.23 0 0 .096-.188-.225-.365 0 0-.24-.14-.304.01 0 0-.024.067.084.159 0 0 .116.124-.104.106 0 0-.151-.018-.201-.075 0 0 .04-.414.136-.696-.086-.021-.17-.043-.255-.066-.032.09-.065.188-.092.293 0 0-.013.242-.101.303 0 0-.313-.258-.182-.707-.096-.031-.194-.062-.29-.096-.01.216.042.563.325 1.062 0 0-.256.34-.52.163 0 0-.377-.242-.136-.456 0 0 .16-.136.232.034-.086.005-.15.072-.15.157 0 .086.07.157.156.157.084 0 .15-.067.154-.148.01-.064.012-.226-.127-.344 0 0-.134-.143-.353-.096 0 0 .205-.274.226-.501 0 0 0-.04.016-.09-.06-.021-.12-.045-.18-.067-.015.224-.082.638-.39.524 0 0 .199-.331.328-.55-.125-.048-.25-.098-.37-.152-.01-.002-.02-.008-.033-.013.018.093.047.328-.08.465 0 0-.154.144-.42-.065 0 0 .354-.298.463-.414-.074-.03-.187-.063-.291-.063h-.097c-.006.004-.014.008-.02.014 0 0-.232.17-.391.237 0 0-.048.03-.091-.021 0 0-.291-.336-.07-.695 0 0 .134-.32.415-.25 0 0 .082-.002.129.11 0 0-.271.012-.24.2 0 0 .002.199.248.186 0 0 .338-.035.258-.444 0 0-.06-.248-.252-.248 0 0 .109-.135.03-.19 0 0-.08-.076-.261.05 0 0-.046.092-.265.043 0 0-.15-.061-.23.05 0 0-.038.017-.038.177 0 0 .018.06-.082.227 0 0-.054.108-.064.29-.067-.053-.145-.093-.226-.106-.111-.116-.12-.658-.236-.922-.026-.061.055-.336.056-.628.816-.174 1.125-.801 1.209-1.077.126-.451-.041-.91-.061-1.033-.004-.014.014-.014.02 0 .035.068.064.14.089.213.393.029.662-.032.854-.102.01-.006.02-.008.029-.013.014-.005.029-.01.04-.016.034-.014.066-.03.097-.045.014-.005.023-.011.035-.018.57-.293.829-.766.985-1.036-.081-.016-.326-.094-.407-.22.21.018.369.105.579.108.31.002.517-.172.86-.131 0 .02.043.163.263.253.006.194.019.359.079.515.017.045.029.063.029.063s-.257.198-.19.363c.02.046.036.09.053.129-.011 0-.025-.001-.036-.007-.04-.016-.084.05-.14.14-.03.046-.165.327-.065.35.023.005.044.006.065.006-.053.29-.05.669.19 1.018l.002.005c.014.025.383.628 1.377.628h.014c.1 0 .974.017 1.284.599.019.035.088.13.163.13.077 0 .145-.095.164-.13.312-.582 1.183-.6 1.284-.6h.013c.995 0 1.364-.602 1.379-.627v-.005c.122-.177.184-.361.206-.538.197-.106.186-.546.187-.624.053.078.17.297.41.353-.038.207-.025.549.198.597.068.006.125-.095.108-.173.19.549.03.887.177.927.185.003.194-.324.21-.333.015.029.075.127.08.275.003.17-.023.34.055.37.255.043.133-.708.332-.632-.05.33-.001.519.137.572-.005.152-.022.3-.085.3-.368.083-.703-.207-1.026-.121l-.034-.021c-.591-.32-.962-.076-1.001-.11-.167-.151-.23.077-.278.05-.31-.173-.48.124-.561.136-.072.012-.205-.156-.345.194-.066.155-.41.22-.44.228-.137.017-.17-.077-.17-.077-.013-.041-.025-.073-.04-.102-.013-.026-.028-.048-.05-.068-.046-.043-.096-.051-.14-.046-.102.006-.183.092-.183.193 0 .046.015.087.04.12.01.009.042-.035.087-.032.076.003.139.062.139.136v.004c.009.157-.231.315-.231.315-.14.124-.314-.048-.314-.048-.1-.078-.163-.087-.163-.087-.102.004-.148.11-.148.11s-.047-.106-.15-.11c0 0-.064.009-.164.087 0 0-.175.172-.312.048 0 0-.24-.158-.231-.315v-.004c0-.074.062-.133.138-.136.046-.003.076.04.088.032.024-.033.039-.074.039-.12 0-.101-.081-.187-.185-.193-.041-.005-.093.003-.137.046-.021.02-.04.042-.051.068-.014.029-.03.06-.04.102 0 0-.032.094-.171.077-.028-.007-.372-.073-.437-.228-.143-.35-.276-.182-.347-.194-.08-.012-.251-.31-.561-.135-.048.026-.111-.202-.277-.05-.033.028-.326-.153-.798.018-.027-.057-.178-.085-.22-.1-.096-.028-.182-.104-.241-.135-.134-.066-.351-.024-.5-.043-.061-.007-.145-.04-.193-.07-.2-.121-.42-.27-.545-.444l-.08-.107c-.06-.077-.09-.132-.135-.26-.07-.24.035-.497.072-.741.016-.118.022-.164.026-.234-.19.048-.438.053-.745-.031.078.26.092.53.065.745.117.09.187.235.195.305.014.124-.043.252.029.35.106.147.34.282.487.38.049.032.713.547.8.566.094.019.153-.051.238-.037.027.006.049.027.07.045 0 0 .056.062.14.115-.202.126-.455.278-.641.37 0 0-.3.163-.156.166 0 0 .207-.007.226.039 0 0-.087.035-.222.094.314.112.634.213.96.303.21-.206.478-.428.737-.525 0 0 .378.015.499-.258.039-.085.195.158.526-.025.03-.016.08.072.174.098.032.008-.134.032-.101.177.005.019-.27.003-.358.154-.026.044-.61.032-1.125.47l.293.067c.172-.13.379-.217.617-.204 0 0 .318.02.452.396.197.029.398.054.6.075l-.003-.003c.05-.025.33-.16.203-.325 0 0-.064-.083-.18.027 0 0-.073.066-.104-.038 0 0-.008-.058-.04-.108 0 0-.054-.081.056-.044 0 0 .1.032.193.018.1-.005.177-.087.177-.19 0-.102-.073-.201-.178-.201 0 0-.02.005-.02.015.013.013.024.03.024.054 0 .038-.031.078-.068.067-.113-.031-.081-.253.074-.26 0 0 .137.007.252.145 0 0 .266.397.508.48.015.007-.042.143.11.19.019.006-.001.124.155.112 0 0 .038.054.074.137.138.002.278.006.419.006.139 0 .279-.004.419-.006.038-.083.067-.137.067-.137.163.012.14-.106.159-.112.153-.047.094-.183.11-.19.245-.083.508-.48.508-.48.116-.138.252-.145.252-.145.157.007.189.229.074.26-.035.01-.067-.03-.067-.067 0-.023.01-.041.025-.054 0-.01-.017-.015-.017-.015-.11 0-.183.099-.183.202 0 .102.079.184.177.189.095.014.194-.018.194-.018.11-.037.056.044.056.044-.032.05-.04.108-.04.108-.03.104-.104.038-.104.038-.116-.11-.181-.027-.181-.027-.126.165.15.3.205.325 0 0-.002 0-.003.003.2-.021.402-.046.599-.075.134-.376.45-.396.45-.396.24-.013.446.075.618.204l.295-.067c-.518-.438-1.1-.426-1.126-.47-.088-.151-.364-.135-.358-.154.034-.145-.131-.17-.101-.177.093-.026.144-.114.174-.098.329.183.489-.06.526.025.122.273.497.258.497.258.26.097.529.319.738.525.298-.082.594-.174.882-.276 0-.003-.004-.007-.005-.01-.004-.015-.01-.031-.018-.05-.002-.004-.002-.008-.005-.013l-.001-.002c-.011-.026-.027-.051-.042-.077-.076-.125-.186-.251-.222-.291l-.002-.002c-.008-.008-.011-.014-.011-.014s.217-.33.352-.106c.012.03-.012.108-.148.109 0 0 .16.246.198.418l.002-.001c.069-.025.116-.041.14-.048.013-.005.027-.006.04-.008-.084-.167-.212-.261-.175-.316.03-.015.15.044.218-.056.016-.023.034-.144.047-.273.086.046.184.049.217.05.223-.004.306-.341.245-.452.033-.021.163-.127.177-.1.069.159.432.33.4-.027.058.172.103.37.304.354.148-.034.05-.285.104-.285.044.072.104.359.32.29.067-.025.119-.074.12-.17.014-.275-.776-1.718-.847-2.344-.014-.005-.024-.008-.038-.016-.078-.038-.084-.162-.072-.252 0-.008.004-.012.005-.018-.096-.017-.244-.101-.27-.363 0-.237.106-.355.126-.355.01 0 .01.016.009.024-.06.185-.104.408.033.533.027.023.078.047.137.052.039-.08.097-.12.109-.117.006 0 .005.013.003.018-.074.127-.073.305-.003.385.032.036.096.062.143.064.22-.08.332-.5.38-.63.148.032-.236.878.06 1.06.12-.01.19-.151.234-.274.096.25-.311.775-.018.893.18.046.244-.413.248-.356.05.703-.316 1.04-.08 1.15.199.094.266-.478.266-.407-.006.748-.381.957-.223 1.088.185.075.319-.377.316-.272-.016.67-.352.848-.201 1.062.172.242.492-.437.509-.31.019.155-.365.932-.144.985.187.047.25-.22.267-.275.578-1.93.597-3.805.56-4.437m-5.734-3.535c-.007.009-.028.01-.034.006-.15-.077-.44-.072-.645.037-.15.078-.272.23-.296.242-.025.012.247-.402.696-.445.272 0 .299.138.279.16m.972 1.248c-.062.11-.152.24-.292.274-.256.06-.512-.148-.52-.18-.013-.03.21.106.424.09.162-.011.287-.123.379-.196.009-.014.019 0 .009.012M3.195 13.12h.003v.002c.033.026.074.05.109.08.01.01.02.02.027.032-.02.04-.062.038-.113.015 0 0-.008 0-.012-.003-.048-.022-.093-.052-.124-.075-.041.062.034.126.072.177-.006.02-.024.029-.051.032h-.002c-.027.005-.062-.001-.083-.011h-.006c-.076-.037-.09-.148-.091-.21-.004-.052-.033-.15-.13-.204.152-.097.38.144.402.165m1.377-8.337c.226.085.248-.203.302-.137.078.133-.138.334-.302.137m.287-.232c-.094-.008-.16-.066-.244 0-.008.006-.125.094-.1.207.008.076-.102.11-.137.064-.082-.188.219-.45.293-.472.172-.062.299.044.487.072.109.015.226-.002.314.007.2.017.15.164.115.187-.17.046-.263-.082-.408-.102-.103-.012-.217.045-.32.037m.77 1.193c-.243-.084-.526-.124-.63-.321.358.027.706.03.93.157l.027.017c.069.047.254.195.336.469-.301-.19-.408-.231-.662-.322m1.823 2.11c-.07.018-.083-.29-.453-.215-.201.087-.351.033-.476-.02.528-.296.969.003.929.236m5.443.789c.024-.004.05-.006.075-.005l.005-.001c.025 0 .052.004.079.01.015.002.067.099.09.196.008.023.05.17.099.22.049.05.03.147-.09.132h-.008c-.127-.023-.274-.223-.213-.424-.035-.007-.065-.007-.093-.004h-.001c-.017.004-.036.007-.048.012l-.013.005-.025.015-.02.01c-.031.028-.042.075-.086.076.005-.075.048-.141.113-.185l.002-.001c.04-.027.084-.046.134-.056m-5.366.703l-.01.03c-.01.018-.017.034-.023.05l-.012.02c-.005.012-.011.023-.018.03-.004.01-.01.016-.014.022-.01.014-.021.029-.031.04-.005.005-.006.008-.011.01-.008.01-.02.02-.028.028-.005.003-.01.007-.014.012l-.042.025h-.006c-.015.007-.03.014-.046.016-.004 0-.01.003-.011.004-.021.003-.038.004-.057.004-.006-.013-.008-.028-.008-.04V9.6c0-.055.058-.107.083-.17.024-.057.018-.097.053-.14.057-.007.105.015.122-.04-.087-.068-.093-.208.018-.321.158-.162-.001-.502.028-.545.048.04.083.154.098.296l.002.035c0 .016.002.03.005.046V8.928l-.003.034c-.002.012-.002.028-.002.04l-.003.03-.007.059-.006.036c-.001.014-.005.027-.008.038 0 .01-.002.02-.004.032l-.01.035c-.003.02-.01.036-.014.054l-.012.033c-.001.009-.005.02-.01.029m5.116 1.163c-.034.056-.365.569-1.23.569-.08 0-.774.013-1.011.456l-.013.019c-.028.049-.117.19-.155.267-.007.015-.026.024-.04.024-.017 0-.032-.01-.04-.024-.037-.077-.126-.218-.154-.267-.01-.011-.013-.02-.013-.02-.238-.442-.932-.455-1.01-.455-.868 0-1.2-.513-1.234-.57-.431-.633-.025-1.351-.022-1.358.355-.613.32-1.033.31-1.112 0-.676-.424-1.19-.472-1.246-.05-.055-.054-.104-.05-.134.009-.063.055-.1.07-.105.096-.066.302-.196.392-.25l.038-.025c.008-.005.023-.011.032-.011.026 0 .047.017.087.047.084.066.24.187.515.187.048 0 .097-.003.148-.011.144-.023.378-.141.38-.142.072-.04.162-.078.205-.096l.02-.01c.385-.16.709-.17.799-.17.088 0 .413.01.795.17l.022.008c.039.019.132.059.205.098 0 0 .237.119.379.142.052.008.1.01.149.01.272 0 .43-.12.515-.186.039-.03.062-.047.089-.047.01 0 .029.007.037.015l.04.026c.095.057.29.182.39.25.007 0 .054.037.063.098.004.032-.001.08-.05.135-.046.057-.471.57-.471 1.238-.011.088-.046.508.309 1.12.017.033.399.74-.024 1.36m.614-.523c-.006.01-.015.019-.02.029l-.024.022h-.003c-.01.006-.014.01-.024.015l-.003.003c-.01.003-.018.003-.025.006h-.01-.034l-.024-.008-.013-.005c-.01-.003-.018-.01-.026-.014-.005-.002-.011-.005-.016-.01-.01-.006-.02-.015-.03-.023l-.013-.011s-.057-.098.03-.108l.035.032.009.005c.006.007.013.009.02.012h.006c.01.005.018.005.024 0 .008-.003.012-.005.017-.012.003-.002.003-.005.004-.007l.009-.017.002-.01c.005-.008.01-.02.01-.034l.002-.012c0-.01.003-.02.005-.027 0-.007 0-.015.002-.023 0-.006 0-.014.002-.024.01-.152 0-.362.048-.433.002-.006.007-.011.012-.014l.003-.003.01-.006h.009c.01 0 .019 0 .026.006 0 .002.004.004.006.007l.007.01c0 .007.003.01.006.014 0 .006.002.012.004.019 0 .004 0 .01.003.018v.044c0 .04-.003.09 0 .15v.027c0 .036.005.072.009.11.01.083-.01.197-.055.272m1.602.31c-.453.035-.75-.378-.726-.368.025.006.156.154.31.216.214.08.505.035.652-.081.006-.005.024-.008.035 0 .022.022 0 .179-.271.234m-8.348 1.34c-.001.009-.004.017-.01.022-.001.003-.005.005-.008.007-.002.004-.007.008-.01.01-.02.009-.045.013-.077.015-.052 0-.108-.01-.144-.015-.005.034.013.056.04.076 0 .002.004.002.004.002.012.009.024.014.037.022.022.01.043.019.06.029.005.048-.08.079-.12.079-.086 0-.143-.095-.171-.152-.007-.006-.015-.012-.026-.017-.006-.005-.012-.01-.018-.013-.076-.043-.188-.056-.297-.062.02-.196.557-.061.572-.057.056.014.125.014.17.042l-.002.013m8.147.467h-.001c-.001.01-.007.02-.007.029-.103 0-.321-.152-.323-.153-.03-.02-.125-.073-.206-.045-.088.039-.128.128-.175.173l-.015-.05s0-.004-.004-.006l-.001-.042v-.016-.033c.005-.006.006-.01.009-.017.005-.014.01-.026.018-.038l.016-.022c.004-.005.009-.01.014-.013.009-.006.015-.014.028-.02.003-.002.005-.004.01-.005.047-.025.104-.035.166-.031.08.004.165.034.226.087.074.066.219.085.308.089 0 0-.043.063-.063.113m1.978-5.924c-.058.05-.201.126-.297.149-.187.045-.36-.021-.438-.136.137-.044.257.05.446.029.055-.006.126-.022.177-.034.056-.02.097-.073.156-.073.022.023-.022.049-.044.065m1.769 5.085c-.038.188-.128.662-.146.622.398-3.58.18-4.466.11-4.452-.054.019-.118.44-.317.312-.194-.124.445-.914.19-1.35-.058-.068-.112.098-.213.069-.264-.088.144-.768.067-.84-.057-.051-.256-.093-.262-.346-.003-.114.075-.207-.018-.302-.074-.071-.06.066-.136.033-.124-.132-.01-.28-.071-.378-.034-.025-.12.08-.186.027-.073-.06.04-.174-.05-.216-.116.016-.288.144-.254.334.019.099.135.164.126.276-.005.096-.125.21-.145.26-.171.388.117.467.075.604-.017.064-.14.1-.22.07-.102-.042-.127-.388-.091-.53.039-.162.263-.36.262-.447-.002-.098-.108-.213-.121-.347-.017-.21.14-.411.348-.368.133.027.222.143.304.24.034.038.079.072.105.107.239.295.433.823.548 1.247.343 1.245.504 3.209.095 5.375" transform="translate(111 4.158)"/>
        </g>
    </g>
</svg>
