<svg xmlns="http://www.w3.org/2000/svg" width="24" height="24" viewBox="0 0 24 24">
    <g fill="none" fill-rule="evenodd">
        <path fill="#212121" fill-rule="nonzero" d="M8.076 15c.252 0 .476-.032.672-.096.196-.064.361-.152.495-.265.134-.114.236-.248.306-.404.07-.156.105-.326.105-.51 0-.51-.298-.832-.894-.966.134-.046.25-.102.347-.168.097-.066.177-.14.24-.22a.846.846 0 00.139-.261.947.947 0 00.045-.293c0-.178-.03-.338-.09-.48a.896.896 0 00-.284-.363 1.387 1.387 0 00-.495-.231 2.836 2.836 0 00-.727-.081H6.438V15h1.638zm-.186-2.46h-.645v-1.254h.69c.272 0 .472.048.6.144.128.096.192.257.192.483 0 .218-.071.377-.213.477-.142.1-.35.15-.624.15zm.174 1.83h-.819v-1.272h.816c.142 0 .263.014.363.042a.66.66 0 01.246.121.475.475 0 01.141.193.792.792 0 01.005.508.528.528 0 01-.133.21.654.654 0 01-.242.144 1.132 1.132 0 01-.377.054zm3.692.63v-4.338h-.81V15h.81zm2.186 0v-2.802a3.706 3.706 0 00-.021-.369l1.329 2.469c.03.056.069.1.117.13a.303.303 0 00.168.047h.111c.064 0 .12-.015.168-.046a.346.346 0 00.117-.131l1.311-2.46a4.2 4.2 0 00-.018.36V15h.711v-4.338h-.609c-.036 0-.067.001-.093.003a.252.252 0 00-.07.015.153.153 0 00-.058.039.333.333 0 00-.049.072l-1.284 2.403a2.67 2.67 0 00-.096.201c-.03.07-.059.141-.087.213l-.085-.209a2.44 2.44 0 00-.095-.199l-1.296-2.409a.303.303 0 00-.051-.072.167.167 0 00-.058-.039.252.252 0 00-.071-.015 1.236 1.236 0 00-.093-.003h-.609V15h.711z" opacity=".52"/>
        <rect width="18" height="17" x="3" y="4" stroke="#969696" rx="1"/>
    </g>
</svg>
