<svg xmlns="http://www.w3.org/2000/svg" width="24" height="24" viewBox="0 0 24 24">
    <g fill="none" fill-rule="evenodd">
        <path fill="#18BEA8" fill-rule="nonzero" d="M8.076 15c.252 0 .476-.032.672-.096.196-.064.361-.152.495-.265.134-.114.236-.248.306-.404.07-.156.105-.326.105-.51 0-.51-.298-.832-.894-.966.134-.046.25-.102.347-.168.097-.066.177-.14.24-.22.063-.082.109-.168.139-.261.03-.093.045-.191.045-.293 0-.178-.03-.338-.09-.48-.06-.142-.155-.263-.284-.363-.129-.1-.293-.177-.495-.231-.2-.054-.443-.081-.727-.081H6.438V15h1.638zm-.186-2.46h-.645v-1.254h.69c.272 0 .472.048.6.144.128.096.192.257.192.483 0 .218-.071.377-.213.477-.142.1-.35.15-.624.15zm.174 1.83h-.819v-1.272h.816c.142 0 .263.014.363.042.1.028.182.069.246.121.064.054.111.118.141.193.03.074.045.159.045.253 0 .09-.014.175-.04.255-.027.08-.072.15-.133.21-.06.06-.142.108-.242.144-.102.036-.227.054-.377.054zm3.692.63v-4.338h-.81V15h.81zm2.186 0v-2.802c0-.054-.002-.113-.005-.175-.002-.063-.008-.128-.016-.194l1.329 2.469c.03.056.069.1.117.13.048.031.104.047.168.047h.111c.064 0 .12-.015.168-.046.048-.031.087-.075.117-.131l1.311-2.46c-.006.064-.01.127-.014.189-.003.062-.004.119-.004.171V15h.711v-4.338h-.609c-.036 0-.067.001-.093.003-.026.002-.05.007-.07.015-.021.008-.04.021-.058.039-.017.018-.033.042-.049.072l-1.284 2.403c-.034.064-.066.131-.096.201s-.059.141-.087.213l-.085-.209c-.03-.068-.061-.135-.095-.199l-1.296-2.409c-.016-.03-.033-.054-.051-.072-.018-.018-.037-.031-.058-.039-.021-.008-.045-.013-.071-.015-.026-.002-.057-.003-.093-.003h-.609V15h.711z"/>
        <rect width="18" height="17" x="3" y="4" stroke="#18BEA8" rx="1"/>
    </g>
</svg>
