<svg xmlns="http://www.w3.org/2000/svg" width="24" height="24" viewBox="0 0 24 24">
    <path fill="#18BEA8" d="M18.047 3c.581 0 1.055.473 1.055 1.055v1.863c0 .194-.158.352-.352.352-.194 0-.352-.158-.352-.352V4.055c0-.194-.157-.352-.351-.352H4.055c-.194 0-.352.158-.352.352v15.89c0 .194.158.352.352.352h13.992c.194 0 .351-.158.351-.352v-.984c0-.194.158-.352.352-.352.194 0 .352.158.352.352v.984c0 .582-.474 1.055-1.055 1.055H4.055C3.473 21 3 20.527 3 19.945V4.055C3 3.473 3.473 3 4.055 3zM5.039 14.69c.194 0 .351.157.351.351v3.568h11.321v-.422c0-.194.158-.351.352-.351.194 0 .351.157.351.352v.773c0 .194-.157.352-.351.352H5.039c-.194 0-.352-.158-.352-.352v-3.92c0-.194.158-.352.352-.352zm12.407-7.707c.241-.155.54-.201.816-.127.278.074.512.263.644.518.057.11.174.179.3.173.286-.014.567.095.77.298.203.203.312.484.298.77-.006.125.062.242.173.3.255.131.444.366.518.643.074.278.028.575-.127.817-.067.105-.067.24 0 .345.155.242.201.54.127.817-.074.277-.263.512-.518.644-.11.057-.179.174-.173.298.014.287-.095.568-.298.771-.203.203-.484.312-.77.299-.125-.006-.243.062-.3.172-.042.082-.095.157-.156.223v3.284c0 .142-.086.27-.217.324-.043.018-.09.027-.135.027-.09 0-.18-.035-.248-.102l-.877-.873-.877.873c-.1.1-.252.13-.383.075-.13-.054-.216-.182-.216-.324v-3.284c-.062-.066-.115-.141-.157-.223-.057-.11-.174-.178-.299-.172-.286.013-.567-.096-.77-.299-.203-.203-.312-.484-.299-.77.002-.045-.005-.088-.02-.128h-6.83c-.194 0-.352-.158-.352-.352 0-.194.158-.352.352-.352h6.197c-.015-.036-.027-.073-.037-.111-.075-.277-.028-.575.126-.817.012-.018.02-.037.028-.056H7.422c-.194 0-.352-.157-.352-.351 0-.195.158-.352.352-.352h6.135c-.019-.133-.01-.27.025-.403.074-.277.263-.512.518-.643.11-.058.178-.175.172-.3-.013-.286.096-.567.299-.77.203-.203.484-.312.77-.298.125.005.242-.062.3-.173.131-.255.366-.444.643-.518.277-.074.575-.028.817.127.105.067.24.067.345 0zm-4.048 8.439c.137-.137.36-.137.497 0s.137.36 0 .497l-.697.698c-.137.136-.316.204-.495.204s-.358-.068-.494-.204l-.432-.432-.279.278c-.137.137-.36.137-.497 0s-.137-.36 0-.497l.281-.281c.273-.273.716-.273.99 0l.431.432zm4.048-1.31c-.105-.067-.24-.067-.345 0-.18.116-.39.17-.601.16v2.11l.525-.523c.137-.136.359-.136.496 0l.526.523v-2.11l-.049.002c-.194 0-.386-.055-.552-.161zm-12.407-.776c.093 0 .183.038.248.103.066.065.103.156.103.248 0 .093-.037.184-.103.25-.065.064-.155.102-.248.102s-.183-.038-.249-.103c-.065-.065-.103-.156-.103-.248 0-.093.038-.184.103-.25.066-.064.156-.102.249-.102zm8.608 0c.194 0 .351.157.351.351 0 .195-.157.352-.352.352H9.627c-.194 0-.351-.157-.351-.351 0-.195.157-.352.351-.352zm4.433-5.8c-.088-.025-.178-.01-.255.039-.335.215-.768.215-1.104 0-.076-.05-.167-.063-.255-.04-.088.024-.16.081-.201.162-.183.354-.558.57-.956.552-.091-.004-.177.029-.241.093-.064.065-.098.15-.093.241.018.398-.199.773-.552.956-.081.042-.139.114-.162.201-.024.088-.01.18.04.256.214.335.214.768 0 1.104-.05.076-.064.167-.04.255.023.088.08.16.162.201.096.05.182.115.256.19.006.006.012.011.017.018.187.198.292.467.279.748-.005.091.028.177.093.241.064.064.15.098.24.093.399-.018.774.199.957.552.042.081.113.139.201.162.088.024.179.01.255-.04.168-.107.36-.16.552-.16.192 0 .385.053.552.16.077.05.168.064.255.04.088-.023.16-.08.202-.162.183-.354.558-.57.956-.552.09.005.176-.029.24-.093.065-.064.098-.15.094-.24-.019-.399.198-.774.552-.957.08-.042.138-.113.162-.201.023-.088.01-.179-.04-.255-.215-.336-.215-.769 0-1.104.05-.077.063-.168.04-.256-.024-.088-.081-.159-.162-.2-.354-.184-.57-.559-.552-.957.004-.09-.029-.176-.093-.24-.065-.065-.15-.098-.241-.094-.398.019-.773-.198-.956-.552-.042-.08-.114-.138-.202-.162zm-1.017-2.848c.194 0 .351.157.351.351v.914c0 .194-.157.352-.351.352-.194 0-.352-.158-.352-.352v-.562H5.391v6.996c0 .194-.158.351-.352.351-.194 0-.352-.157-.352-.351V5.039c0-.194.158-.351.352-.351zm1.385 4.903c.137-.137.36-.137.497 0 .137.138.137.36 0 .498l-1.415 1.415c-.069.069-.159.103-.249.103s-.18-.034-.248-.103l-.714-.713c-.137-.137-.137-.36 0-.497.138-.138.36-.138.498 0l.464.464zM7.043 7.148c.092 0 .183.038.249.103.065.066.103.157.103.249s-.038.183-.103.249c-.066.065-.157.103-.249.103s-.183-.038-.249-.103c-.065-.066-.103-.157-.103-.249s.038-.183.103-.249c.066-.065.157-.103.249-.103zm3.023 0c.194 0 .352.158.352.352 0 .194-.158.352-.352.352h-1.71c-.195 0-.352-.158-.352-.352 0-.194.157-.352.351-.352z"/>
</svg>
