<svg xmlns="http://www.w3.org/2000/svg" width="24" height="24" viewBox="0 0 24 24">
    <path d="M18.047 3c.581 0 1.055.473 1.055 1.055v1.863a.352.352 0 11-.704 0V4.055a.352.352 0 00-.351-.352H4.055a.352.352 0 00-.352.352v15.89c0 .194.158.352.352.352h13.992a.352.352 0 00.351-.352v-.984a.352.352 0 11.704 0v.984c0 .582-.474 1.055-1.055 1.055H4.055A1.056 1.056 0 013 19.945V4.055C3 3.473 3.473 3 4.055 3zM5.039 14.69c.194 0 .351.157.351.351v3.568h11.321v-.422a.352.352 0 11.703 0v.774a.352.352 0 01-.351.352H5.039a.352.352 0 01-.352-.352v-3.92c0-.194.158-.352.352-.352zm12.407-7.707a1.025 1.025 0 011.46.391.32.32 0 00.3.173 1.024 1.024 0 011.068 1.069.32.32 0 00.173.299 1.025 1.025 0 01.391 1.46.32.32 0 000 .345 1.025 1.025 0 01-.391 1.46.32.32 0 00-.173.3 1.025 1.025 0 01-1.069 1.069.32.32 0 00-.299.172 1.02 1.02 0 01-.156.223v3.284a.352.352 0 01-.6.249l-.877-.873-.877.873a.352.352 0 01-.6-.25v-3.283a1.02 1.02 0 01-.156-.223.32.32 0 00-.299-.172 1.024 1.024 0 01-1.069-1.07.318.318 0 00-.02-.127h-6.83a.352.352 0 110-.704h6.197a1.025 1.025 0 01.09-.928.317.317 0 00.027-.056H7.422a.352.352 0 110-.703h6.135a1.021 1.021 0 01.543-1.046.32.32 0 00.172-.3 1.025 1.025 0 011.07-1.068.321.321 0 00.298-.173 1.025 1.025 0 011.46-.391.32.32 0 00.346 0zm-4.048 8.439a.352.352 0 11.497.497l-.697.698a.697.697 0 01-.99 0l-.431-.432-.279.278a.352.352 0 01-.497-.497l.281-.281a.7.7 0 01.99 0l.431.432zm4.048-1.31a.32.32 0 00-.345 0c-.18.116-.39.17-.601.16v2.11l.525-.523a.352.352 0 01.496 0l.526.523v-2.11l-.049.002c-.194 0-.386-.055-.552-.161zm-12.407-.776a.354.354 0 01.351.351.353.353 0 01-.6.25.354.354 0 010-.498.354.354 0 01.249-.103zm8.608 0a.352.352 0 110 .703h-4.02a.352.352 0 110-.703zm4.433-5.8a.316.316 0 00-.255.039 1.025 1.025 0 01-1.104 0 .316.316 0 00-.255-.04.316.316 0 00-.201.162c-.183.354-.558.57-.956.552a.316.316 0 00-.241.093.316.316 0 00-.093.241c.018.398-.199.773-.552.956a.316.316 0 00-.162.201.316.316 0 00.04.256c.214.335.214.768 0 1.104a.316.316 0 00-.04.255c.023.088.08.16.162.201a1.017 1.017 0 01.273.208c.187.198.292.467.279.748a.316.316 0 00.093.241c.064.064.15.098.24.093.399-.018.774.199.957.552.042.081.113.139.201.162.088.024.179.01.255-.04a1.022 1.022 0 011.104 0c.077.05.168.064.255.04a.316.316 0 00.202-.162c.183-.354.558-.57.956-.552a.316.316 0 00.24-.093.316.316 0 00.094-.24 1.026 1.026 0 01.552-.957.316.316 0 00.162-.201.316.316 0 00-.04-.255 1.025 1.025 0 010-1.104.316.316 0 00.04-.256.316.316 0 00-.162-.2 1.026 1.026 0 01-.552-.957.316.316 0 00-.093-.24.316.316 0 00-.241-.094 1.025 1.025 0 01-.956-.552.316.316 0 00-.202-.162zm-1.017-2.848c.194 0 .351.157.351.351v.914a.352.352 0 11-.703 0v-.562H5.391v6.996a.352.352 0 11-.704 0V5.039c0-.194.158-.351.352-.351zm1.385 4.903a.352.352 0 01.497.498l-1.415 1.415a.35.35 0 01-.497 0l-.714-.713a.352.352 0 01.498-.497l.464.464zM7.043 7.148a.354.354 0 01.352.352.354.354 0 01-.352.352.354.354 0 01-.352-.352.354.354 0 01.352-.352zm3.023 0a.352.352 0 110 .704h-1.71a.352.352 0 110-.704z" opacity=".541"/>
</svg>
