<svg xmlns="http://www.w3.org/2000/svg" width="16" height="19" viewBox="0 0 16 19">
    <path fill="#18BEA8" d="M10.716 0c.027 0 .055.004.081.01l.019.007c.024.008.048.018.07.031l.023.015c.026.017.05.037.07.062l.003.002 3.484 4.185c.057.068.083.154.084.241.002.014.004.028.004.042v2.201h.433c.56 0 1.013.477 1.013 1.065v5.538c0 .588-.453 1.065-1.013 1.065h-.433v3.79c0 .412-.318.746-.709.746H2.155c-.391 0-.709-.334-.709-.745v-3.791h-.433c-.56 0-1.013-.477-1.013-1.065V7.861c0-.588.454-1.065 1.013-1.065h.433V.746c0-.412.318-.746.709-.746zm3.13 14.464H2.154v3.589h11.69v-3.59zM2.491 8.267c-.493 0-.96.034-1.32.094v4.46c.244.034.603.067 1.109.067.845 0 1.537-.188 1.992-.586.417-.37.717-.97.717-1.839 0-.801-.281-1.36-.73-1.71-.416-.331-.948-.486-1.768-.486zm10.998-.013c-1.416 0-2.46.862-2.466 2.37-.007.668.211 1.26.608 1.652.398.403.968.612 1.755.612.57 0 1.14-.148 1.442-.256v-2.391H13.22v.802h.666v.95c-.077.04-.256.066-.48.066-.801 0-1.358-.552-1.358-1.488 0-.984.615-1.469 1.428-1.469.474 0 .769.088 1.006.195l.205-.822c-.212-.107-.64-.221-1.198-.221zM6.303 8.3H5.26l1.025 4.54h1.07l.41-1.953c.102-.458.173-.889.25-1.402h.013c.05.52.121.944.204 1.402l.366 1.953h1.057l1.114-4.54h-.993l-.352 1.86c-.09.539-.186 1.07-.25 1.576h-.012c-.065-.506-.135-.99-.231-1.523L8.584 8.3H7.546l-.365 1.86c-.109.558-.212 1.104-.282 1.596h-.013c-.07-.458-.16-1.045-.256-1.583L6.303 8.3zM2.491 9c.933 0 1.517.493 1.509 1.427C4 11.5 3.36 12.007 2.377 12c-.135 0-.284 0-.377-.02V9.04c.093-.02.25-.04.491-.04zm7.87-8.255H2.155v6.051h11.69V4.93h-3.13c-.195 0-.354-.167-.354-.373V.745z"/>
</svg>
