<svg xmlns="http://www.w3.org/2000/svg" width="24" height="24" viewBox="0 0 24 24">
    <path fill="#18BEA8" d="M15.143 3c.075 0 .132 0 .188.036 0 .019.019.019.019.019 0 .018.019.018.019.018l.019.018 3.574 3.483v.019c.02.054.038.11.038.182V19.76c0 .328-.15.656-.376.875l-.02.018c-.225.22-.545.347-.883.347H6.262c-.338 0-.658-.146-.903-.365-.226-.237-.376-.547-.357-.875V4.24c0-.328.15-.656.376-.875.226-.22.546-.365.903-.365zm-.452.766H6.262c-.132 0-.244.036-.338.128-.076.09-.132.2-.132.328h.019V19.76c0 .128.037.237.131.328.094.073.207.128.339.128h11.44c.112 0 .225-.055.32-.128l.018-.018c.094-.091.15-.2.15-.328V7.158h-2.144c-.358 0-.696-.128-.94-.365l-.02-.018c-.263-.255-.414-.584-.414-.948V3.766zM11.5 8c.894 0 1.787.335 2.476 1.024C14.665 9.713 15 10.606 15 11.5c0 .894-.335 1.787-1.024 2.476C13.287 14.665 12.394 15 11.5 15c-.894 0-1.787-.354-2.476-1.024C8.335 13.287 8 12.394 8 11.5c0-.894.335-1.787 1.024-2.476C9.713 8.335 10.606 8 11.5 8zm0 .82c-.689 0-1.378.26-1.899.781-.54.521-.8 1.21-.782 1.899 0 .689.26 1.378.782 1.899.521.521 1.21.782 1.899.782.689 0 1.378-.26 1.899-.782.521-.521.782-1.21.782-1.899 0-.34-.064-.681-.191-1.001-.016.075-.053.146-.111.202l-2.263 2.182c-.161.156-.444.156-.606 0l-.889-.857c-.161-.156-.161-.429 0-.584.162-.156.445-.156.606 0l.586.564 1.96-1.89c.123-.118.317-.146.474-.084-.098-.152-.214-.297-.348-.43-.521-.522-1.21-.783-1.899-.783zm4-4.507h-.018v1.514c0 .146.075.292.169.383l.019.018c.113.091.244.146.395.146h1.561L15.5 4.314z"/>
</svg>
