<svg xmlns="http://www.w3.org/2000/svg" width="24" height="24" viewBox="0 0 24 24">
    <path d="M15.143 3c.075 0 .132 0 .188.036 0 .019.019.019.019.019 0 .018.019.018.019.018l.019.018 3.574 3.483v.019c.02.054.038.11.038.182V19.76c0 .328-.15.656-.376.875l-.02.018a1.273 1.273 0 01-.883.347H6.262c-.338 0-.658-.146-.903-.365-.226-.237-.376-.547-.357-.875V4.24c0-.328.15-.656.376-.875A1.3 1.3 0 016.28 3zm-.452.766H6.262a.461.461 0 00-.338.128.515.515 0 00-.132.328h.019V19.76c0 .128.037.237.131.328a.55.55 0 00.339.128h11.44a.543.543 0 00.32-.128l.018-.018a.45.45 0 00.15-.328V7.158h-2.144c-.358 0-.696-.128-.94-.365l-.02-.018a1.305 1.305 0 01-.414-.948V3.766zM11.5 8a3.48 3.48 0 012.476 1.024A3.48 3.48 0 0115 11.5a3.48 3.48 0 01-1.024 2.476A3.48 3.48 0 0111.5 15a3.56 3.56 0 01-2.476-1.024A3.48 3.48 0 018 11.5a3.48 3.48 0 011.024-2.476A3.48 3.48 0 0111.5 8zm0 .82c-.689 0-1.378.26-1.899.781A2.53 2.53 0 008.82 11.5c0 .689.26 1.378.782 1.899.521.521 1.21.782 1.899.782.689 0 1.378-.26 1.899-.782.521-.521.782-1.21.782-1.899 0-.34-.064-.681-.191-1.001a.39.39 0 01-.111.202l-2.263 2.182a.451.451 0 01-.606 0l-.889-.857a.413.413 0 010-.584.451.451 0 01.606 0l.586.564 1.96-1.89a.453.453 0 01.474-.084A2.677 2.677 0 0011.5 8.82zm4-4.507h-.018v1.514a.56.56 0 00.169.383l.019.018a.618.618 0 00.395.146h1.561L15.5 4.314z" opacity=".501"/>
</svg>
