<svg xmlns="http://www.w3.org/2000/svg" width="34" height="34" viewBox="0 0 34 34">
    <path d="M23.5 3c.828 0 1.5.65 1.5 1.45v9.077a.492.492 0 01-.5.483.492.492 0 01-.5-.483V4.45a.492.492 0 00-.5-.483h-20c-.276 0-.5.216-.5.483v26.1c0 .267.224.483.5.483h20c.276 0 .5-.216.5-.483v-4.833c0-.267.224-.484.5-.484s.5.217.5.484v4.833c0 .801-.672 1.45-1.5 1.45h-20c-.828 0-1.5-.649-1.5-1.45V4.45C2 3.65 2.672 3 3.5 3zM6.488 22.422c1.524-.677 3.348-.531 4.712.378.234.156.281.45.106.659a.574.574 0 01-.741.094 3.7 3.7 0 00-2.065-.612c-1.9 0-3.441 1.37-3.441 3.059 0 1.69 1.54 3.059 3.441 3.059 1.9 0 3.441-1.37 3.441-3.06 0-.259.237-.47.53-.47.292 0 .529.211.529.47C13 28.21 10.985 30 8.5 30S4 28.21 4 26c0-1.515.963-2.9 2.488-3.578zm2.78 2.703a.398.398 0 01.602.027c.164.192.174.5.023.706l-1.566 1.84a.826.826 0 01-.63.302.826.826 0 01-.625-.302l-.94-1.102A.567.567 0 016 26.227c0-.138.047-.271.131-.369a.4.4 0 01.626 0l.94 1.102zM30.105 9.049a1.57 1.57 0 011.14.142c.345.189.597.5.7.865.109.371.055.769-.15 1.102l-.25.413c.236.132.316.42.18.646l-1.25 2.056.435.238c.345.188.596.5.7.864.103.366.05.756-.15 1.083l-2 3.292a.499.499 0 01-.304.223.523.523 0 01-.381-.048.477.477 0 01-.23-.302.455.455 0 01.07-.367l2-3.292a.453.453 0 00.05-.36.479.479 0 00-.235-.29l-.435-.238-4.295 7.082-1.905 2.199-.5.793a1.518 1.518 0 01-1.305.703c-.133 0-.266-.015-.395-.047l-1.165 1.4a1.028 1.028 0 01-.928.347.992.992 0 01-.782-.588l-.31-.746-.185.29c-.223.354-.66.531-1.084.438a.967.967 0 01-.77-.847l-.176-1.928-1.225 3.505a.499.499 0 01-.475.323.451.451 0 01-.155-.038.47.47 0 01-.315-.598l1.23-3.506c.15-.427.597-.696 1.069-.642.47.055.837.416.876.865l.17 1.9.18-.29c.195-.308.558-.486.936-.458a.996.996 0 01.85.592l.314.75 1.125-1.31a1.366 1.366 0 01-.08-1.54l.5-.888 1.05-2.665 4.25-6.996-.435-.237a.462.462 0 01-.185-.646.499.499 0 01.304-.224.524.524 0 01.38.048l.436.238 1.27-2.057a.515.515 0 01.68-.171l.25-.413c.198-.328.526-.567.91-.665zm-8.26 14.738l-.25.413a.46.46 0 00.15.622.522.522 0 00.395.075.499.499 0 00.325-.226l.25-.409-.87-.475zm1.12-2.688l-.71 1.805.74.408.25.138 1.295-1.487-1.575-.864zm4.415-7.448l-4 6.583 1.73.95 4-6.583-1.73-.95zM10.5 19a.5.5 0 010 1h-5a.5.5 0 110-1zm5.056 0c.245 0 .444.224.444.5s-.199.5-.444.5h-3.112c-.245 0-.444-.224-.444-.5s.199-.5.444-.5zm.944-3a.5.5 0 010 1h-10a.5.5 0 110-1zm5.056 0c.245 0 .444.224.444.5s-.199.5-.444.5h-3.112c-.245 0-.444-.224-.444-.5s.199-.5.444-.5zm-.056-3a.5.5 0 010 1h-11a.5.5 0 110-1zm7.38-1.814l-1 1.643 1.73.95 1-1.643-1.73-.95zm1.582-1.234l-.097.014a.497.497 0 00-.305.223l-.25.413.87.475.25-.413a.477.477 0 00.05-.361.48.48 0 00-.235-.29.55.55 0 00-.38-.047zM18.5 10a.5.5 0 010 1h-10a.5.5 0 110-1zm2-5a.5.5 0 010 1H8v1h12.5a.5.5 0 010 1h-13a.5.5 0 01-.5-.5v-2a.5.5 0 01.5-.5z"/>
</svg>
