<svg xmlns="http://www.w3.org/2000/svg" width="34" height="34" viewBox="0 0 34 34">
    <path d="M30.574 30.206c.235 0 .426.178.426.397 0 .22-.19.397-.426.397H4.426C4.191 31 4 30.822 4 30.603c0-.22.19-.397.426-.397zm-19.856-3.177c.237 0 .43.178.43.397 0 .22-.193.398-.43.398h-6.29c-.236 0-.428-.178-.428-.398 0-.219.192-.397.429-.397zm9.53 0c.236 0 .428.178.428.397 0 .22-.191.398-.428.398h-6.29c-.237 0-.429-.178-.429-.398 0-.219.192-.397.43-.397zm10.323 0c.237 0 .429.178.429.397 0 .22-.192.398-.429.398h-6.29c-.236 0-.428-.178-.428-.398 0-.219.192-.397.429-.397zM20.626 4c.392 0 .71.33.71.734v1.763a.724.724 0 01-.71.734h-.994v.881h.994c.242 0 .455.125.584.315l3.871-2.5a.695.695 0 01.754 0l4.263 2.753c.209.135.334.368.334.623v1.76a.73.73 0 01.568.72v1.175a.73.73 0 01-.568.72v4.435a.73.73 0 01.568.72v1.174a.73.73 0 01-.568.72v3.833h.142c.235 0 .426.197.426.44 0 .244-.19.441-.426.441h-10.8a.434.434 0 01-.427-.44c0-.244.191-.441.427-.441h.71v-3.833a.73.73 0 01-.568-.72v-1.174a.73.73 0 01.568-.72v-4.435a.73.73 0 01-.568-.72v-1.175a.73.73 0 01.568-.72v-2.07H13.38v10.72c0 .244-.19.441-.426.441a.434.434 0 01-.427-.44V11.93h-.852v2.79a.724.724 0 01-.71.735H9.825a.724.724 0 01-.71-.734v-2.79H7.695v3.823c.96.069 1.76.834 1.89 1.833l.266 2.069a.438.438 0 01-.366.494.43.43 0 01-.48-.378l-.266-2.069c-.079-.612-.589-1.073-1.186-1.073-.598 0-1.108.461-1.187 1.073l-.704 5.457c-.045.353.059.71.286.978.227.268.556.422.9.422h1.706c-.358-.436-.575-1-.575-1.615 0-1.377 1.084-2.497 2.416-2.497H12.1c1.332 0 2.416 1.12 2.416 2.497 0 .615-.217 1.18-.576 1.615h4.128c.236 0 .427.197.427.44 0 .244-.191.441-.427.441H12.1a.434.434 0 01-.426-.44c0-.244.19-.44.426-.44.862 0 1.563-.726 1.563-1.616 0-.891-.701-1.616-1.563-1.616h-1.705c-.862 0-1.563.725-1.563 1.616 0 .89.7 1.615 1.563 1.615.235 0 .426.197.426.44 0 .244-.19.441-.426.441H4.426a.434.434 0 01-.426-.44c0-.244.19-.44.426-.44h.759a2.172 2.172 0 01-.368-1.518l.704-5.456a2.113 2.113 0 011.321-1.706V11.49c0-.244.191-.44.426-.44h1.848v-.441c0-.405.318-.735.71-.735h1.137c.392 0 .71.33.71.735v.44h.853V8.846c0-.405.319-.734.71-.734h.996v-.881h-.995a.724.724 0 01-.71-.734V4.734c0-.405.318-.734.71-.734zm2.7 16.742h-1.99v3.818h1.99v-3.818zm6.253 0h-1.99v3.818h1.99v-3.818zm.568-1.763H20.77v.882h4.12c.236 0 .427.197.427.44 0 .244-.191.44-.426.44h-.711v3.819h2.558v-3.818h-.142a.434.434 0 01-.427-.44c0-.244.191-.441.427-.441h3.552v-.882zm-11.45.11c.216 0 .391.133.391.297 0 .274-.292.496-.65.496h-3.464c-.359 0-.65-.222-.65-.496 0-.164.174-.298.39-.298.17 0 .315.083.368.199h3.247c.054-.116.199-.199.369-.199zm-.26-1.589c.36 0 .651.223.651.496 0 .165-.175.298-.39.298-.17 0-.315-.083-.369-.198h-3.247c-.053.115-.198.198-.368.198-.216 0-.39-.133-.39-.298 0-.273.292-.496.65-.496zm11.71-5.57h-9.379v.881h6.395c.236 0 .426.198.426.441s-.19.44-.426.44h-5.826v4.406h8.242v-4.405h-.71a.434.434 0 01-.427-.441c0-.243.191-.44.426-.44h1.28v-.882zm-1.926 2.394c.219 0 .397.196.397.438v2.3c0 .242-.178.438-.397.438h-1.589c-.219 0-.397-.196-.397-.438v-2.3c0-.242.178-.438.397-.438zm-3.971 0c.22 0 .397.196.397.438v2.3c0 .242-.178.438-.397.438h-1.588c-.22 0-.397-.196-.397-.438v-2.3c0-.242.177-.438.397-.438zm-4.789 1.588c.233 0 .421.133.421.298 0 .273-.314.496-.702.496h-4.155c-.387 0-.701-.223-.701-.496 0-.165.188-.298.42-.298.184 0 .34.083.398.198h3.922c.058-.115.214-.198.397-.198zm8.362-.712h-.794v1.423h.794V15.2zm-3.97 0h-.794v1.423h.794V15.2zm-4.673-.876c.388 0 .702.222.702.496 0 .164-.188.298-.42.298-.184 0-.34-.083-.398-.199h-3.922c-.058.116-.214.199-.397.199-.233 0-.421-.134-.421-.298 0-.274.314-.496.701-.496zm-8.359-3.569h-.853v3.819h.853v-3.819zm7.877 1.98c.215 0 .39.134.39.298 0 .274-.292.496-.65.496h-3.464c-.359 0-.65-.222-.65-.496 0-.164.174-.298.39-.298.17 0 .315.083.368.199h3.247c.054-.116.199-.199.369-.199zm-.26-1.588c.358 0 .65.223.65.496 0 .165-.175.298-.39.298-.17 0-.315-.083-.369-.198h-3.247c-.053.115-.198.198-.368.198-.216 0-.39-.133-.39-.298 0-.273.292-.496.65-.496zm7.02-4.425l-4.121 2.662v1.665h8.242V9.384L26.63 7.48a1.193 1.193 0 01-.793 2.08 1.193 1.193 0 01-1.19-1.192 1.193 1.193 0 011.67-1.09l-.86-.556zm.38 1.249a.397.397 0 10.001.795.397.397 0 000-.795zM8.558 4.794c.74 0 1.365.449 1.557 1.059h.209c.892 0 1.617.653 1.617 1.456 0 .803-.725 1.456-1.617 1.456H7.97c-.892 0-1.618-.653-1.618-1.456 0-.22.198-.397.441-.397.244 0 .441.177.441.397 0 .365.33.662.736.662h2.353c.405 0 .735-.297.735-.662 0-.365-.33-.662-.735-.662h-.589c-.243 0-.44-.178-.44-.397 0-.365-.33-.662-.736-.662H5.618c-.406 0-.736.297-.736.662 0 .365.33.662.736.662.243 0 .44.177.44.397 0 .22-.197.397-.44.397C4.726 7.706 4 7.053 4 6.25c0-.803.726-1.456 1.618-1.456zM18.78 7.231h-3.695v.881h3.695v-.881zm1.705-2.35H13.38V6.35h7.105V4.88z"/>
</svg>
