<svg xmlns="http://www.w3.org/2000/svg" width="24" height="24" viewBox="0 0 24 24">
    <g fill="#17BDA7">
        <path d="M6.249 5.673H5.103c-.153 0-.276.124-.276.277v1.428c0 .152.123.276.276.276H6.25c.153 0 .277-.124.277-.276V5.95c0-.153-.124-.277-.277-.277zm-.277 1.428H5.38v-.874h.592V7.1zM7.53 7.654h1.146c.153 0 .277-.124.277-.276V5.95c0-.153-.124-.277-.277-.277H7.53c-.153 0-.276.124-.276.277v1.428c0 .152.123.276.276.276zm.277-1.427h.592V7.1h-.592v-.874zM6.249 8.34H5.103c-.153 0-.276.123-.276.276v1.428c0 .153.123.277.276.277H6.25c.153 0 .277-.124.277-.277V8.616c0-.153-.124-.277-.277-.277zm-.277 1.427H5.38v-.874h.592v.874zM8.953 10.044V8.616c0-.153-.124-.276-.277-.276H7.53c-.153 0-.276.123-.276.276v1.428c0 .153.123.277.276.277h1.146c.153 0 .277-.124.277-.277zm-.554-.277h-.592v-.874h.592v.874z" transform="translate(5.387 5)"/>
        <path d="M13.764 9.868c0-.542-.209-1.036-.55-1.405V4.994c0-.153-.125-.276-.277-.276h-2.77v-.29c0-.153-.124-.276-.277-.276h-6c-.153 0-.277.123-.277.276v.29H.843c-.153 0-.277.123-.277.276v3.469c-.342.37-.551.864-.551 1.405 0 .542.21 1.036.551 1.406v2.616c0 .153.124.277.277.277h12.094c.152 0 .276-.124.276-.277v-2.616c.342-.37.551-.864.551-1.406zM1.813 13.613h-.694V11.7c.213.113.446.19.694.223v1.69zM.568 9.868c0-.837.683-1.519 1.521-1.519.84 0 1.522.682 1.522 1.52 0 .837-.683 1.519-1.522 1.519-.838 0-1.52-.682-1.52-1.52zm3.045 3.745H2.366v-1.69c.49-.066.927-.303 1.247-.649v2.34zm0-5.15c-.38-.41-.922-.667-1.524-.667-.35 0-.68.087-.97.24V5.271h2.494v3.192zm9.598 1.405c0 .838-.682 1.52-1.521 1.52-.839 0-1.521-.682-1.521-1.52 0-.837.682-1.519 1.52-1.519.84 0 1.522.682 1.522 1.52zm-1.798 3.745h-1.246v-2.339c.32.346.756.583 1.246.649v1.69zm-3.574 0H5.94v-1.771H7.84v1.771zm.277-2.324H5.664c-.153 0-.277.123-.277.276v2.048h-1.22V4.705h5.446v1.32c0 .152.124.276.277.276.153 0 .277-.124.277-.277v-.753h2.493v2.765c-.29-.153-.62-.24-.97-.24-.605 0-1.15.26-1.53.673-.026-.125-.137-.22-.27-.22-.153 0-.277.124-.277.277v5.087h-1.22v-2.048c0-.153-.125-.276-.277-.276zm3.85 2.324v-1.69c.248-.033.482-.11.694-.223v1.913h-.693z" transform="translate(5.387 5)"/>
        <path d="M9.634 7.386c.045.106.153.176.269.17.112-.005.213-.08.249-.187.037-.108.001-.23-.087-.303-.093-.076-.229-.083-.329-.016-.108.072-.152.216-.102.336zM5.785 2.163l-.07.855c-.007.096.036.19.114.246.078.057.18.069.27.032l.79-.33.792.33c.034.014.07.021.107.021.057 0 .114-.018.162-.053.078-.056.121-.15.113-.246l-.069-.855.559-.65c.062-.074.083-.174.053-.266-.03-.092-.106-.162-.2-.184L7.573.865 7.126.133C7.076.05 6.986 0 6.89 0c-.097 0-.186.05-.237.133l-.446.732-.834.198c-.094.022-.17.092-.2.184s-.01.192.054.266l.558.65zm.662-.786c.072-.017.134-.062.173-.125l.27-.444.27.444c.038.063.1.108.172.125l.505.12-.338.393c-.048.057-.072.13-.066.203l.042.517-.479-.2c-.034-.014-.07-.02-.106-.02-.037 0-.073.006-.107.02l-.479.2.042-.517c.006-.074-.018-.146-.066-.203l-.338-.393.505-.12zM9.304 2.788l-.052.639c-.008.096.035.19.113.246.078.057.18.069.27.032l.59-.247.592.247c.034.014.07.021.106.021.058 0 .115-.018.163-.053.078-.057.12-.15.113-.246l-.052-.639.417-.486c.063-.073.083-.174.054-.265-.03-.092-.106-.162-.2-.184l-.623-.148-.333-.547c-.05-.083-.14-.133-.237-.133-.096 0-.186.05-.236.133l-.333.547-.624.148c-.093.022-.169.092-.199.184-.03.091-.01.192.053.265l.418.486zm.592-.571c.072-.017.134-.063.172-.126l.157-.258.158.258c.038.063.1.109.172.126l.294.07-.197.229c-.048.056-.072.129-.066.202l.025.301-.28-.116c-.033-.014-.07-.021-.106-.021-.036 0-.072.007-.106.02l-.279.117.024-.3c.006-.074-.017-.147-.065-.203l-.197-.23.294-.07zM2.632 2.788l-.052.639c-.007.096.035.19.113.246.048.035.106.053.163.053.036 0 .072-.007.107-.021l.59-.247.592.247c.09.037.191.025.27-.032.077-.056.12-.15.113-.246l-.052-.639.417-.486c.063-.073.083-.174.053-.265-.03-.092-.105-.162-.2-.184l-.622-.148-.334-.547c-.05-.083-.14-.133-.236-.133-.097 0-.186.05-.236.133l-.334.547-.623.148c-.094.022-.17.092-.2.184-.03.091-.009.192.054.265l.417.486zm.592-.571c.072-.017.134-.063.173-.126l.157-.258.157.258c.039.063.1.109.172.126l.294.07-.196.229c-.049.056-.072.129-.066.202l.024.301-.279-.116c-.068-.028-.144-.028-.213 0l-.278.116.024-.3c.006-.074-.018-.147-.066-.203l-.196-.23.293-.07z" transform="translate(5.387 5)"/>
    </g>
</svg>
