<svg xmlns="http://www.w3.org/2000/svg" width="34" height="34" viewBox="0 0 34 34">
    <g>
        <path d="M22.648 22.875v-.087h2.349c.522 0 .957-.435.957-.957v-2.48c0-.522-.435-.957-.957-.957h-2.35v-2.567c0-.522-.435-.957-.957-.957h-5.83c-.217 0-.39.044-.521.174-.174-.087-.348-.174-.522-.174h-5.83c-.522 0-.957.435-.957.957v2.48c0 .522.435.957.957.957h2.35V21.918h-2.35c-.522 0-.957.435-.957.957v2.48c0 .522.435.957.957.957h2.35v2.567c0 .522.434.957.956.957h5.83c.218 0 .392-.044.522-.174.174.087.348.174.522.174h5.83c.522 0 .957-.435.957-.957v-2.48c0-.522-.435-.957-.957-.957h-2.35v-2.567zm-6.787-7.178h5.83c.043 0 .086.043.086.087v2.48c0 .043-.043.087-.087.087h-5.786c-.043 0-.087-.044-.087-.087v-2.48c-.043-.044 0-.087.044-.087zm0 3.61h2.219c.043 0 .087.044.087.088v2.48c0 .043-.044.087-.087.087h-5.787c-.043 0-.087-.044-.087-.087v-2.48c0-.044.044-.087.087-.087h3.568zm-6.874-.913c-.043 0-.087-.043-.087-.087v-2.48c0-.043.044-.087.087-.087h5.83c.043 0 .087.044.087.087v2.48c0 .044-.044.087-.087.087h-5.83zm0 7.135c-.043 0-.087-.044-.087-.087v-2.48c0-.043.044-.087.087-.087h5.83c.043 0 .087.044.087.087v2.48c0 .043-.044.087-.087.087h-5.83zm9.136 3.567h-5.83c-.043 0-.087-.043-.087-.087v-2.48c0-.043.044-.086.087-.086h5.787c.043 0 .087.043.087.087v2.48c.043.043 0 .086-.044.086zm0-3.61h-2.219c-.043 0-.087-.044-.087-.088v-2.48c0-.043.044-.086.087-.086h5.786c.044 0 .087.043.087.087v2.48c0 .043-.043.086-.087.086h-3.567zm6.874.913c.043 0 .087.044.087.087v2.48c0 .043-.044.087-.087.087h-5.83c-.043 0-.087-.044-.087-.087v-2.48c0-.043.044-.087.087-.087h5.83zm-3.307-4.437h-2.523c-.043 0-.087-.044-.087-.087v-2.48c0-.044.044-.087.087-.087h5.83c.043 0 .087.043.087.087v2.48c0 .043-.044.087-.087.087H21.69zM17.514 13.609l-1.305-5.003c-.044-.13-.174-.261-.305-.305-.13-.043-.304 0-.435.13l-1.087 1.045v-.74c0-.13-.044-.26-.174-.348l-.479-.391c.174-.392.087-.827-.217-1.132l-1.784-1.61c-.392-.347-1-.347-1.349.044l-.087.087c-.348.392-.348 1 .044 1.349l1.783 1.61c.174.174.392.26.653.26h.044c.087 0 .174-.043.26-.043l.436.348v1.392l-1.654 1.654c-.13.087-.174.26-.13.435.043.174.13.26.304.304l4.916 1.48h.131c.13 0 .217-.044.304-.131.131-.13.175-.261.131-.435zm-4.611-5.96l-.087.087c-.044.043-.087.043-.087.043s-.044 0-.088-.043l-1.74-1.61c-.043-.044-.043-.087 0-.13l.087-.088c.044-.043.087-.043.13 0l1.785 1.61c.043.044.043.087 0 .13zm.087 4.394l.957-.958.913.87c.087.088.174.131.305.131.13 0 .217-.043.304-.13.174-.175.174-.436 0-.61l-.913-.826.957-.957.957 3.524-3.48-1.044z"/>
    </g>
</svg>
