<svg xmlns="http://www.w3.org/2000/svg" width="34" height="34" viewBox="0 0 34 34">
    <path fill="#3FBFAD" d="M16.5 2a.5.5 0 01.5.5V16h13.5a.5.5 0 01.5.5v14a.5.5 0 01-.5.5h-28a.5.5 0 01-.5-.5v-28a.5.5 0 01.5-.5zM7.526 17H3v6.026A7.5 7.5 0 019.975 30H16v-4.526A8.997 8.997 0 017.526 17zM3 26.03V30h3.97A4.507 4.507 0 003 26.03zm0-2.011v1.004A5.509 5.509 0 017.978 30H8.98A6.51 6.51 0 003 24.019zm27 0A6.51 6.51 0 0024.019 30h1.004A5.509 5.509 0 0130 25.023zm0 2.01A4.507 4.507 0 0026.03 30H30zM30 17h-4.526A8.997 8.997 0 0117 25.474V30h6.026A7.5 7.5 0 0130 23.026V17zm-19.981 0H8.515A8.011 8.011 0 0016 24.485V22.98A6.51 6.51 0 0110.019 17zm14.466 0H22.98A6.51 6.51 0 0117 22.981v1.503A8.011 8.011 0 0024.485 17zM16 17h-4.975A5.505 5.505 0 0016 21.974V17zm5.974 0H17v4.974A5.505 5.505 0 0021.974 17zM16 8.515A8.011 8.011 0 008.515 16h1.504A6.51 6.51 0 0116 10.019zM16 3H9.975A7.5 7.5 0 013 9.975V16h4.526A8.997 8.997 0 0116 7.526V3zm0 8.025A5.505 5.505 0 0011.025 16H16zm12.77-8.89a.483.483 0 01.672 0l1.419 1.387a.457.457 0 010 .656L28.098 6.88a4.967 4.967 0 01.095 3.942l.265.647c.125.305.189.63.189.957 0 1.422-1.18 2.575-2.636 2.575h-1.532c-.477 0-.945-.127-1.355-.367l-1.615-.947-2.712.829a.492.492 0 01-.285 0 .462.462 0 01-.31-.583l.862-2.697a4.03 4.03 0 01-.168-.298l-.431-.842A4.234 4.234 0 0118 8.191c-.012-2.382 1.954-4.322 4.39-4.334h.629c.283 0 .567.023.846.068l.39.064a5.24 5.24 0 011.891.712zM26.259 7.3l-.437.427c.376.483.609 1.057.673 1.66.156 1.57-.832 3.03-2.37 3.504l-1.401.428.89.521c.261.153.561.233.866.232h1.532c.215 0 .428-.04.628-.118a1.634 1.634 0 00.936-2.14l-.335-.819a.46.46 0 010-.345l.069-.168a4.044 4.044 0 00.057-2.886l-.067.065a.483.483 0 01-.671 0l-.37-.36zm-3.146.026c-1.07.002-2.017.68-2.34 1.679l-1.394 4.36L23.84 12c1.107-.342 1.818-1.393 1.706-2.522a2.339 2.339 0 00-.406-1.089l-.923.902-.672-.656.923-.902a2.463 2.463 0 00-1.356-.41zm-.093-2.54h-.628A3.466 3.466 0 0019.747 6a3.29 3.29 0 00-.734 2.813c.06.301.162.593.302.868l.152.297.4-1.25c.116-.372.299-.72.54-1.028 1.132-1.453 3.254-1.735 4.74-.63l.437-.426-.376-.368a.457.457 0 010-.657l.25-.246a4.294 4.294 0 00-1.36-.467l-.389-.064a4.403 4.403 0 00-.69-.055zM8.98 3H7.978A5.509 5.509 0 013 7.978V8.98A6.51 6.51 0 008.981 3zm-2.01 0H3v3.97A4.507 4.507 0 006.97 3zm22.136.12l-2.892 2.826.747.73 2.89-2.826-.745-.73z"/>
</svg>
