<svg xmlns="http://www.w3.org/2000/svg" width="34" height="34" viewBox="0 0 34 34">
    <path d="M7.447 1a3.494 3.494 0 013.492 2.964l.044-.002a3.858 3.858 0 013.172 1.812c.688 1.099.78 2.47.245 3.651a4.512 4.512 0 013.608 4.46 4.57 4.57 0 01-.884 2.722 5.208 5.208 0 012.841 4.682 5.147 5.147 0 01-5.067 5.211c-.847 0-1.68-.22-2.418-.637V30h8.483v-1.5h-.499a.5.5 0 010-1h.5V27h-.5a.5.5 0 010-1h.5v-1.5h-.5a.5.5 0 010-1h.5a.5.5 0 11.997 0h7.985a.5.5 0 11.998 0h.499a.5.5 0 010 1h-.5V26h.5a.5.5 0 010 1h-.5v.5h.5a.5.5 0 010 1h-.5V30h.5a.5.5 0 010 1H2.499a.5.5 0 010-1h6.987v-4.137a4.926 4.926 0 01-2.419.637A5.147 5.147 0 012 21.29a5.208 5.208 0 012.842-4.682 4.57 4.57 0 01-.884-2.722 4.514 4.514 0 013.606-4.462A3.868 3.868 0 017.404 9H4.495a2.497 2.497 0 01-2.483-2.264 2.5 2.5 0 012.014-2.691A3.495 3.495 0 017.447 1zm3.536 23.592c-.154.19-.32.37-.5.536V30h.999v-4.872a5.148 5.148 0 01-.5-.536zM29.946 28.5H21.96V30h7.985v-1.5zm0-1.5H21.96v.5h7.985V27zm0-2.5H21.96V26h7.985v-1.5zM10.983 4.962a2.82 2.82 0 00-2.764 2.865c0 .622.201 1.226.571 1.724a.5.5 0 01.043.522.515.515 0 01-.5.271 3.48 3.48 0 00-3.377 3.541 3.566 3.566 0 001.065 2.562.5.5 0 01-.194.831 4.185 4.185 0 00-2.829 4.01 4.147 4.147 0 004.07 4.212 3.994 3.994 0 003.355-1.853l-3.286-3.293a.5.5 0 01.705-.707l2.642 2.646v-5.086l-2.35-2.353a.5.5 0 01.707-.707l1.643 1.646V13.5a.5.5 0 11.998 0v2.293l1.643-1.646a.498.498 0 01.706.707l-2.35 2.353v5.086l2.642-2.646a.498.498 0 01.706.707l-3.287 3.293a3.993 3.993 0 003.356 1.853 4.226 4.226 0 004.022-3.596 4.232 4.232 0 00-2.782-4.626.5.5 0 01-.193-.831 3.567 3.567 0 001.065-2.562 3.483 3.483 0 00-3.417-3.539.51.51 0 01-.453-.274.498.498 0 01.035-.52c.37-.5.57-1.103.572-1.725a2.82 2.82 0 00-2.764-2.865zm15.47.538a3.496 3.496 0 013.463 3.045 2.5 2.5 0 012.015 2.691 2.497 2.497 0 01-2.484 2.264h-5.989a2.497 2.497 0 01-2.483-2.264 2.5 2.5 0 012.014-2.691A3.496 3.496 0 0126.453 5.5zm0 1A2.498 2.498 0 0023.958 9a.5.5 0 01-.5.5c-.826 0-1.496.672-1.496 1.5 0 .829.67 1.5 1.497 1.5h5.988c.827 0 1.497-.671 1.497-1.5 0-.828-.67-1.5-1.497-1.5a.499.499 0 01-.5-.5c0-1.38-1.116-2.5-2.494-2.5zM7.46 2l-.168.008A2.493 2.493 0 004.995 4.5a.5.5 0 01-.5.5c-.826 0-1.497.672-1.497 1.5 0 .829.67 1.5 1.497 1.5H7.23c-.003-.057-.01-.115-.01-.173a3.856 3.856 0 012.726-3.713 2.491 2.491 0 00-2.654-2.106z"/>
</svg>
