<svg xmlns="http://www.w3.org/2000/svg" width="34" height="34" viewBox="0 0 34 34">
    <path d="M19.775 6c.01 0 .02.005.028.004a.465.465 0 01.123.025l.043.016a.46.46 0 01.14.096l4.75 4.815c.04.04.072.088.095.14.007.016.01.03.016.046a.46.46 0 01.024.124c0 .01.006.02.006.03v20.222a.478.478 0 01-.475.482H6.475A.478.478 0 016 31.518V6.481C6 6.215 6.213 6 6.475 6zm-.475.963H6.95v24.074h17.1v-19.26h-4.275a.478.478 0 01-.475-.48V6.962zM27.525 3c.262 0 .475.216.475.482v25.037a.478.478 0 01-.475.481H26.1v-.963h.95V3.963H9.95v.963H9V3.482C9 3.216 9.213 3 9.475 3zM10 28v-1h11v1H10zm11-4v1H10v-1h11zm0-3v1h-7v-1h7zm-8 0v1h-3v-1h3zm8-3v1H10v-1h11zm0-2v1H10v-1h11zm0-3v1H10v-1h11zm-7-3v1h-4v-1h4zm6.25-2.356v3.17h3.128l-3.128-3.17z"/>
</svg>
