<svg xmlns="http://www.w3.org/2000/svg" width="34" height="34" viewBox="0 0 34 34">
    <path fill="#18BEA8" d="M3.85 8v23.144h27.3V8H32v24H3V8h.85zM23 28v1h-1v-1h1zm3 0v1h-1v-1h1zM7 28v1H6v-1h1zm4-1v1h-1v-1h1zm-3-1v1H7v-1h1zm3.89-18v15.13H15V24h-4V8h.89zM24 8v16h-4v-.87h3.11V8H24zm-4.438 2v2.076h-1.033v5.162h.25v1.244H20v2.937C20 22.842 18.878 24 17.5 24c-1.379 0-2.5-1.158-2.5-2.581v-2.937h1.22v-1.244h.251v-5.162h-1.033V10h4.124zm-2.473 9.33h-1.267v2.089c0 .955.752 1.733 1.678 1.733.925 0 1.678-.778 1.678-1.733V19.33h-1.267v2.824h-.822V19.33zM29 21v1h-1v-1h1zm-3-1v1h-1v-1h1zm4-9.3V20h-1v-9.3h1zM28 18v1h-1v-1h1zm-10.042.086h-.916v.396h.916v-.396zm-.25-6.01h-.415v5.162h.414v-5.162zm1.032-1.228h-2.48v.38h2.48v-.38zM7 10v1H6v-1h1zm23-.65v.81h-1v-.81h1zM9 8v1H8V8h1zm21 0v.81h-1V8h1zM9.539 3c.599 0 .913.125 1.19.236.24.095.428.17.848.17H12V7H3V3.406h.423c.42 0 .609-.075.848-.17.277-.11.591-.236 1.19-.236.6 0 .914.125 1.19.236.24.095.429.17.85.17.42 0 .608-.075.848-.17A2.81 2.81 0 019.539 3zm20 0c.599 0 .913.125 1.19.236.24.095.428.17.848.17H32V7h-9V3.406h.423c.42 0 .609-.075.848-.17.277-.11.591-.236 1.19-.236.6 0 .914.125 1.19.236.24.095.429.17.85.17.42 0 .608-.075.848-.17A2.81 2.81 0 0129.539 3zm0 .762c-.42 0-.61.075-.849.17-.277.11-.59.236-1.19.236-.599 0-.913-.125-1.19-.236a1.92 1.92 0 00-.848-.17c-.42 0-.61.075-.849.17-.203.081-.427.17-.768.212v2.094h7.31V4.144c-.341-.042-.564-.131-.768-.212a1.92 1.92 0 00-.848-.17zm-20 0c-.42 0-.61.075-.849.17a2.81 2.81 0 01-1.19.236c-.599 0-.913-.125-1.19-.236a1.92 1.92 0 00-.848-.17c-.42 0-.61.075-.849.17-.203.081-.427.17-.768.212v2.094h7.31V4.144c-.341-.042-.565-.131-.768-.212a1.92 1.92 0 00-.848-.17zM30 5v1h-1.359V5H30zm-1.887 0v1h-.792V5h.792zm-1.32 0v1H26V5h.792z"/>
</svg>
