<svg xmlns="http://www.w3.org/2000/svg" width="34" height="34" viewBox="0 0 34 34">
    <path fill="#18BEA8" d="M19.91 7c.851 0 1.544.707 1.544 1.577v3.276c.958.13 1.7.968 1.7 1.98 0 .92-.613 1.695-1.442 1.926v2.489c0 2.016-1.243 3.741-2.987 4.421v.887c0 .609-.486 1.104-1.082 1.104h-.045v3.853c0 .426.184.827.505 1.1.323.276.746.39 1.161.312a11.878 11.878 0 004.92-2.138.508.508 0 01.718.118.533.533 0 01-.115.734 12.889 12.889 0 01-5.338 2.32 2.409 2.409 0 01-2.006-.539 2.5 2.5 0 01-.875-1.907V24.66h-.058a1.094 1.094 0 01-1.081-1.104v-.887c-1.745-.68-2.987-2.405-2.987-4.421v-2.489A1.994 1.994 0 0111 13.833c0-1.012.742-1.85 1.7-1.98V8.577c0-.87.692-1.577 1.544-1.577.852 0 1.545.707 1.545 1.577v3.259h2.575v-3.26c0-.869.693-1.576 1.545-1.576zM6.281 9.228c.154-.244.456-.301.672-.127a.587.587 0 01.113.756c-2.786 4.396-2.776 10.406-.023 14.79.28-.157.591-.24.914-.24.545 0 1.058.238 1.444.672.797.896.797 2.353 0 3.25A1.929 1.929 0 017.958 29a1.929 1.929 0 01-1.445-.672c-.72-.81-.79-2.079-.207-2.977-1.466-2.293-2.261-4.995-2.304-7.842-.045-2.993.743-5.856 2.28-8.281zM7.957 25.49c-.288 0-.559.126-.762.355a1.324 1.324 0 000 1.715.998.998 0 001.525 0c.421-.473.421-1.242 0-1.715a1.015 1.015 0 00-.763-.355zm18.189.657a.5.5 0 11.71.703.5.5 0 01-.71-.703zM9.228 6.506c2.616-1.84 5.84-2.716 9.08-2.463a13.78 13.78 0 018.654 3.946 13.676 13.676 0 011.391 17.792.539.539 0 01-.87-.634c3.72-5.061 3.18-11.958-1.283-16.4C21.88 4.449 14.852 3.862 9.85 7.38a.54.54 0 01-.751-.128.534.534 0 01.129-.747zm8.467 16.43a4.56 4.56 0 01-1.236 0v.62c0 .03.023.053.051.053h1.133a.052.052 0 00.052-.053zm2.987-7.106h-7.21v2.418c0 2.029 1.617 3.68 3.605 3.68 1.987 0 3.605-1.651 3.605-3.68V15.83zm-2.916.34c.215-.194.61-.227.881-.073.272.153.318.435.103.628l-.826.744h.449c.223 0 .43.085.542.222a.34.34 0 01.004.446l-1.3 1.636c-.115.145-.327.227-.546.227a.828.828 0 01-.308-.058c-.302-.122-.408-.395-.237-.61l.768-.968h-.669c-.24 0-.46-.098-.564-.252-.105-.155-.077-.338.072-.473zm3.43-3.283h-8.239a.938.938 0 00-.927.946c0 .521.416.946.927.946h8.24a.938.938 0 00.927-.946.938.938 0 00-.927-.946zM19.91 8.05a.521.521 0 00-.515.526v3.259h1.03v-3.26a.521.521 0 00-.515-.525zm-5.665 0a.521.521 0 00-.515.526v3.259h1.03v-3.26a.521.521 0 00-.515-.525zm-6.092.096a.496.496 0 01.704.698l-.008.008a.495.495 0 11-.704-.698z"/>
</svg>
