<svg xmlns="http://www.w3.org/2000/svg" width="34" height="34" viewBox="0 0 34 34">
    <path fill="#18BEA8" d="M31.35 3c.348 0 .63.278.63.622v27.35a.626.626 0 01-.63.622h-5.04a.626.626 0 01-.63-.622v-.621H9.3v.621a.626.626 0 01-.63.622H3.63a.626.626 0 01-.63-.622V3.622C3 3.278 3.282 3 3.63 3zm-.63 1.243H4.26v26.108h3.78V9.838c0-.343.282-.622.63-.622h17.64c.348 0 .63.279.63.622V30.35h3.78V4.243zM16.86 10.46H9.3v18.648h7.56V10.459zm8.82 0h-7.56v18.648h7.56V10.46zm3.15 7.46c.348 0 .63.278.63.621a.626.626 0 01-.63.622.626.626 0 01-.63-.622c0-.343.282-.621.63-.621zm0-2.487c.348 0 .63.278.63.622a.626.626 0 01-.63.621.626.626 0 01-.63-.621c0-.344.282-.622.63-.622zM13.265 5.67a.637.637 0 01.891 0l1.26 1.243a.616.616 0 010 .88.637.637 0 01-.892 0l-.814-.805-.814.804a.637.637 0 01-.89 0 .616.616 0 010-.879zm6.3 0a.637.637 0 01.89 0l.815.803.814-.803a.637.637 0 01.891 0 .616.616 0 010 .88l-1.26 1.242a.637.637 0 01-.89 0l-1.26-1.243a.616.616 0 010-.879z"/>
</svg>
