<svg xmlns="http://www.w3.org/2000/svg" width="18" height="18" viewBox="0 0 18 18">
    <path fill="#9E9E9E" d="M9 0C4.03 0 0 4.03 0 9s4.03 9 9 9 9-4.03 9-9-4.03-9-9-9zm4.11 7.017c.003.089.005.178.005.267 0 2.73-2.078 5.878-5.877 5.878-1.167 0-2.253-.342-3.167-.928.162.019.326.028.493.028.968 0 1.859-.33 2.566-.884-.905-.017-1.667-.614-1.93-1.435.126.024.255.038.388.038.189 0 .371-.026.545-.073-.945-.19-1.657-1.025-1.657-2.025v-.026c.278.154.597.247.935.258-.554-.37-.919-1.003-.919-1.72 0-.378.102-.733.28-1.038C5.79 6.607 7.313 7.43 9.03 7.515c-.035-.15-.054-.309-.054-.47 0-1.14.925-2.066 2.066-2.066.594 0 1.131.251 1.508.653.47-.093.913-.265 1.312-.502-.155.482-.482.887-.909 1.143.418-.05.817-.161 1.187-.326-.277.415-.627.779-1.03 1.07z"/>
</svg>
