<svg xmlns="http://www.w3.org/2000/svg" width="18" height="18" viewBox="0 0 18 18">
    <g fill="none" fill-rule="evenodd">
        <g fill="#999" fill-rule="nonzero">
            <g>
                <path d="M12.658 6.352c.185-.307.573-.434.905-.297l.965.4c.331.137.516.502.43.85-.052.206-.107.417-.163.627.297.234.566.503.8.8.21-.056.422-.11.628-.162.347-.087.712.098.85.429l.4.966.033.1c.076.307-.055.638-.33.804-.183.11-.37.22-.559.328.044.376.044.756 0 1.133.188.108.375.219.558.328.307.185.435.573.297.905l-.4.965c-.137.332-.502.516-.849.43-.206-.052-.417-.107-.627-.163-.235.297-.504.566-.8.8.056.212.11.423.162.628.086.347-.099.712-.43.85l-.965.4c-.332.137-.72.009-.904-.298-.11-.183-.221-.37-.33-.558-.375.044-.755.044-1.131 0-.11.19-.22.377-.329.558-.135.224-.378.352-.628.352-.093 0-.187-.018-.276-.055l-.966-.4c-.331-.137-.516-.502-.43-.849.052-.206.107-.417.163-.627-.297-.235-.566-.504-.8-.8-.21.056-.422.11-.628.161-.347.087-.712-.098-.85-.429l-.4-.965c-.136-.332-.009-.72.298-.905.182-.11.37-.22.558-.328-.044-.376-.044-.756 0-1.132-.188-.109-.375-.22-.558-.33-.306-.183-.434-.572-.297-.903l.4-.966c.137-.331.502-.516.85-.43.205.052.416.107.627.163.234-.297.503-.566.8-.8-.056-.21-.11-.421-.162-.628-.087-.347.098-.712.429-.85l.966-.4c.33-.136.72-.009.904.298.11.182.22.37.328.558.376-.044.757-.044 1.133 0 .108-.188.219-.375.328-.558zm.645.439c-.105.175-.21.355-.314.535-.147.256-.43.398-.722.361-.335-.041-.674-.041-1.008 0-.29.037-.574-.105-.72-.36-.105-.182-.21-.362-.315-.536l-.888.367c.05.199.102.4.156.602.077.284-.023.584-.254.765-.266.206-.506.446-.713.712-.18.232-.48.332-.765.255-.202-.054-.404-.106-.602-.156l-.367.888c.175.105.355.21.536.315.255.147.397.43.36.721-.041.335-.041.674 0 1.008.036.29-.105.574-.36.72-.181.105-.361.21-.536.316l.367.887c.198-.05.4-.102.602-.156.284-.077.585.023.765.255.207.265.446.505.712.712.232.18.332.48.255.765-.054.202-.106.404-.156.602l.888.368c.104-.175.21-.355.315-.536.147-.256.43-.397.721-.361.335.042.674.042 1.008 0 .29-.036.574.106.72.36.104.18.21.36.316.537l.887-.368c-.05-.197-.102-.4-.156-.601-.077-.285.023-.585.255-.765.265-.207.505-.447.712-.713.18-.232.48-.332.765-.255.201.054.404.107.602.156l.368-.888c-.176-.105-.356-.21-.536-.314-.256-.147-.397-.43-.361-.722.041-.335.042-.674 0-1.008-.036-.29.105-.574.36-.72.181-.105.361-.21.537-.315l-.368-.888c-.198.05-.4.102-.601.156-.285.077-.585-.023-.765-.254-.207-.266-.447-.506-.713-.713-.232-.18-.332-.48-.255-.765.054-.201.106-.404.156-.602zm-2.555 2.52c1.352-.56 2.908.085 3.468 1.437l.061.163c.446 1.312-.2 2.767-1.498 3.305-.327.136-.671.203-1.015.203-.344 0-.689-.067-1.016-.203-.655-.271-1.165-.782-1.437-1.437-.56-1.352.085-2.908 1.437-3.468zm1.013.577c-.239 0-.481.046-.715.143-.955.396-1.41 1.495-1.015 2.45.192.463.552.824 1.015 1.015.463.192.973.192 1.435 0 .956-.395 1.411-1.495 1.015-2.45-.298-.722-.998-1.158-1.735-1.158z" transform="translate(-4465 -884) translate(4465 884)"/>
            </g>
        </g>
    </g>
</svg>
