<svg xmlns="http://www.w3.org/2000/svg" width="74" height="72" viewBox="0 0 74 72">
    <g fill="none" fill-rule="evenodd">
        <g fill-rule="nonzero">
            <g>
                <path fill="#3FBFAD" stroke="#3FBFAD" d="M36.5 12C22.969 12 12 22.969 12 36.5S22.969 61 36.5 61 61 50.031 61 36.5c0-6.498-2.581-12.73-7.176-17.324C49.23 14.58 42.998 12 36.5 12h0z" transform="translate(-650 -330) translate(650 330)"/>
                <g fill="#2266D3" transform="translate(-650 -330) translate(650 330) translate(14 14)">
                    <rect width="3.417" height="5.907" x="20.758" rx="1.709"/>
                    <rect width="3.417" height="5.907" x="20.758" y="39.014" rx="1.709"/>
                    <rect width="5.909" height="3.416" x="39.023" y="20.753" rx="1.708"/>
                    <rect width="5.909" height="3.416" y="20.752" rx="1.708"/>
                    <path d="M12.693 2.619c.944 0 1.709.765 1.71 1.709v2.49c0 .944-.765 1.709-1.709 1.709-.944 0-1.709-.765-1.709-1.709v-2.49c0-.944.765-1.709 1.708-1.709z" transform="rotate(-30.001 12.694 5.573)"/>
                    <path d="M32.205 36.406c.943 0 1.708.765 1.708 1.708v2.491c0 .943-.764 1.708-1.708 1.708-.943 0-1.708-.765-1.709-1.708v-2.491c0-.943.765-1.708 1.708-1.708z" transform="rotate(-30.001 32.205 39.36)"/>
                    <path d="M38.1 11.005h2.492c.944 0 1.709.765 1.709 1.708 0 .944-.765 1.708-1.708 1.709H38.1c-.944 0-1.709-.766-1.709-1.71 0-.943.765-1.707 1.708-1.707z" transform="rotate(-30.001 39.346 12.713)"/>
                    <path d="M4.305 30.51l2.492.001c.944 0 1.709.765 1.709 1.709 0 .943-.765 1.708-1.708 1.708H4.306c-.944 0-1.709-.766-1.709-1.71 0-.942.765-1.707 1.708-1.707z" transform="rotate(-30.001 5.552 32.22)"/>
                    <path d="M5.54 9.773c.944 0 1.709.765 1.71 1.709v2.492c0 .943-.765 1.708-1.708 1.708-.944 0-1.71-.765-1.71-1.709v-2.492c0-.943.765-1.708 1.708-1.708z" transform="rotate(-59.999 5.541 12.727)"/>
                    <path d="M39.336 29.282c.943 0 1.708.765 1.708 1.708v2.492c0 .943-.764 1.708-1.708 1.708-.943 0-1.708-.765-1.708-1.708V30.99c0-.943.764-1.708 1.707-1.708z" transform="rotate(-59.999 39.336 32.236)"/>
                    <path d="M30.947 3.878h2.491c.944 0 1.709.765 1.709 1.709 0 .943-.765 1.708-1.708 1.708h-2.491c-.944 0-1.709-.765-1.709-1.709 0-.943.765-1.708 1.708-1.708z" transform="rotate(-59.999 32.193 5.587)"/>
                    <path d="M11.437 37.666h2.49c.944 0 1.71.765 1.71 1.71 0 .942-.765 1.707-1.709 1.707h-2.49c-.945 0-1.71-.765-1.71-1.709 0-.943.765-1.708 1.708-1.708z" transform="rotate(-59.999 12.682 39.375)"/>
                </g>
                <path fill="#FF723B" d="M25.523 70.904C6.606 64.949-4.076 45.074 1.459 26.128 6.755 8.029 25.364-3.09 43.922.76 59.09 3.893 70.617 16.205 72.675 31.471c2.058 15.267-5.8 30.162-19.603 37.156l-1.91-3.722c13.753-6.968 20.624-22.636 16.402-37.396C63.34 12.749 49.205 3.02 33.824 4.292 18.442 5.562 6.114 17.476 4.4 32.727c-1.714 15.25 7.664 29.576 22.383 34.192 1.06.33 1.677 1.424 1.41 2.496-.282 1.12-1.424 1.802-2.55 1.522-.04-.01-.08-.02-.12-.033z" transform="translate(-650 -330) translate(650 330)"/>
                <path fill="#FF723B" d="M62.419 10c7.82 8.253 11.322 19.656 9.476 30.842C70.048 52.03 63.063 61.722 53 67.06L53.996 69c10.635-5.385 17.964-15.58 19.64-27.325C75.313 29.931 71.127 18.112 62.42 10z" transform="translate(-650 -330) translate(650 330)"/>
                <path fill="#FF723B" d="M58.818 69.985l-5.947-10.34c-.241-.42-.684-.667-1.153-.643-.468.023-.886.314-1.088.756l-4.506 9.863c-.184.403-.162.875.058 1.258s.61.624 1.036.644l10.454.476c.468.02.91-.229 1.15-.65.239-.42.238-.944-.004-1.364z" transform="translate(-650 -330) translate(650 330)"/>
                <path fill="#F79219" d="M58.818 69.984L52.87 59.641c-.214-.376-.593-.617-1.012-.641l5.352 9.303c.242.42.243.944.003 1.365-.24.421-.682.67-1.15.65L46.04 69.86c-.097.388-.02.801.208 1.124.229.322.584.52.968.538l10.455.476c.469.02.91-.23 1.15-.65.239-.42.237-.945-.004-1.365z" transform="translate(-650 -330) translate(650 330)"/>
                <path fill="#FFF" d="M49.7 43.455l-2.628-2.629-1.969-1.968c-.4-.4-1.047-.4-1.447 0l-3.134 3.135c-.192.192-.452.3-.724.3-.271 0-.531-.108-.723-.3l-7.067-7.067c-.4-.4-.4-1.048 0-1.448l3.134-3.134c.192-.192.3-.452.3-.724 0-.271-.108-.531-.3-.723l-1.968-1.969-2.629-2.629c-.4-.399-1.047-.399-1.447 0l-1.31 1.311-.474.474c-3.277 3.277-2.98 8.291.297 11.567l8.737 8.738c3.277 3.276 8.291 3.574 11.568.297l.474-.474 1.31-1.31c.192-.192.3-.452.3-.723 0-.272-.108-.532-.3-.724z" transform="translate(-650 -330) translate(650 330)"/>
                <path fill="#E6E7E8" d="M48.265 43.449l-1.302 1.312-.471.474c-3.255 3.28-8.237 2.983-11.492-.297l1.437 1.448c3.255 3.28 8.237 3.578 11.492.298l.471-.475 1.302-1.312c.19-.192.298-.453.298-.724 0-.272-.107-.532-.298-.724L48.265 42c.397.4.397 1.048 0 1.449zM32.315 29.355l-3.026 2.935c-.385.374-.385.98 0 1.355L30.686 35c-.386-.374-.386-.98 0-1.355l3.025-2.935c.185-.18.289-.424.289-.678 0-.254-.104-.498-.29-.677L32.316 28c.185.18.289.423.289.677 0 .254-.104.498-.29.678z" transform="translate(-650 -330) translate(650 330)"/>
                <path fill="#D1D3D4" d="M25.993 28.137L34.446 28.137 34.446 29.534 25.993 29.534z" transform="translate(-650 -330) translate(650 330) rotate(45 30.22 28.836)"/>
                <path fill="#D1D3D4" d="M40.393 42.534L48.846 42.534 48.846 43.931 40.393 43.931z" transform="translate(-650 -330) translate(650 330) rotate(45 44.62 43.233)"/>
            </g>
        </g>
    </g>
</svg>
