<svg xmlns="http://www.w3.org/2000/svg" width="18" height="18" viewBox="0 0 18 18">
    <path fill="#212121" d="M14.6 16.467c.147 0 .267.12.267.266 0 .148-.12.267-.267.267H3.4c-.147 0-.267-.12-.267-.267 0-.147.12-.266.267-.266zM2.333 10.6c1.318 0 1.334 3.432 1.334 3.467 0 .644-.46 1.182-1.067 1.306v1.36c0 .148-.12.267-.267.267-.147 0-.266-.12-.266-.267v-1.36C1.459 15.25 1 14.711 1 14.067c0-.035.015-3.467 1.333-3.467zm14.4-3.733c.148 0 .267.12.267.266v9.6c0 .147-.12.267-.267.267-.147 0-.266-.12-.266-.267v-8.8h-2.934c-.147 0-.266-.12-.266-.266 0-.148.12-.267.266-.267h2.934v-.267c0-.147.12-.266.266-.266zM11.4 12.2c.147 0 .267.12.267.267 0 .147-.12.266-.267.266h-.267V15.4h2.4c.148 0 .267.12.267.267 0 .147-.12.266-.267.266H4.467c-.148 0-.267-.12-.267-.266 0-.148.12-.267.267-.267h2.4v-2.667H6.6c-.147 0-.267-.12-.267-.266 0-.147.12-.267.267-.267zm-.8.533H9.267V13.8c.147 0 .266.12.266.267 0 .147-.12.266-.266.266V15.4H10.6v-2.667zm-1.867 0H7.4V15.4h1.333v-1.067c-.147 0-.266-.12-.266-.266 0-.148.12-.267.266-.267v-1.067zM5.533 6.6c.148 0 .267.12.267.267V14.6c0 .147-.12.267-.267.267-.147 0-.266-.12-.266-.267V6.867c0-.148.12-.267.266-.267zm-3.2 4.533c-.443 0-.8 1.605-.8 2.934 0 .44.36.8.8.8.441 0 .8-.36.8-.8 0-1.329-.356-2.934-.8-2.934zm10.134-4.8c.147 0 .266.12.266.267v8c0 .147-.12.267-.266.267-.148 0-.267-.12-.267-.267v-8c0-.147.12-.267.267-.267zm2.666 6.134c.148 0 .267.12.267.266v1.6c0 .147-.12.267-.267.267h-1.066c-.148 0-.267-.12-.267-.267v-1.6c0-.147.12-.266.267-.266zm-.266.533h-.534v1.067h.534V13zm.266-3.733c.148 0 .267.12.267.266v1.6c0 .148-.12.267-.267.267h-1.066c-.148 0-.267-.12-.267-.267v-1.6c0-.147.12-.266.267-.266zM8.2 9c.147 0 .267.12.267.267v1.6c0 .147-.12.266-.267.266H7.133c-.147 0-.266-.12-.266-.266v-1.6c0-.148.12-.267.266-.267zM3.933 9c.148 0 .267.12.267.267v1.6c0 .147-.12.266-.267.266-.147 0-.266-.12-.266-.266V9.533h-.534V9.8c0 .147-.12.267-.266.267-.148 0-.267-.12-.267-.267v-.533c0-.147.12-.267.267-.267zm6.934 0c.147 0 .266.12.266.267v1.6c0 .147-.12.266-.266.266H9.8c-.147 0-.267-.12-.267-.266v-1.6c0-.148.12-.267.267-.267zm4 .8h-.534v1.067h.534V9.8zm-6.934-.267H7.4V10.6h.533V9.533zm2.667 0h-.533V10.6h.533V9.533zM1.267 6.867c.147 0 .266.12.266.266V7.4h2.934c.147 0 .266.12.266.267 0 .147-.12.266-.266.266H1.533v2.134c0 .147-.12.266-.266.266-.148 0-.267-.12-.267-.266V7.133c0-.147.12-.266.267-.266zM8.2 5.8c.147 0 .267.12.267.267v1.6c0 .147-.12.266-.267.266H7.133c-.147 0-.266-.12-.266-.266v-1.6c0-.147.12-.267.266-.267zm2.667 0c.147 0 .266.12.266.267v1.6c0 .147-.12.266-.266.266H9.8c-.147 0-.267-.12-.267-.266v-1.6c0-.147.12-.267.267-.267zm-2.934.533H7.4V7.4h.533V6.333zm2.667 0h-.533V7.4h.533V6.333zM10.867 1c.147 0 .266.12.266.267v1.066c0 .148-.12.267-.266.267H9.8c-.147 0-.267-.12-.267-.267 0-.147.12-.266.267-.266h.8v-.534H9.267V3.25l3.87 2.322c.126.076.168.24.092.366-.05.084-.139.13-.23.13-.046 0-.093-.013-.136-.038L9 3.71 5.137 6.029c-.126.076-.29.034-.365-.092-.077-.126-.035-.29.09-.366L8.734 3.25V1.267c0-.148.12-.267.267-.267z" opacity=".49"/>
</svg>
