<svg xmlns="http://www.w3.org/2000/svg" width="28" height="28" viewBox="0 0 28 28">
    <path fill="#3FBFAD" d="M20.72 5A2.282 2.282 0 0123 7.28v3.262a1.18 1.18 0 01-1.179 1.179h-2.594v.375l1.08 1.079a5.698 5.698 0 011.684 4.06v4.177a8.187 8.187 0 01-.784 3.486.393.393 0 11-.71-.337 7.395 7.395 0 00.708-3.149v-4.178a4.917 4.917 0 00-1.453-3.503l-.525-.524v6.738c0 .796-.648 1.444-1.444 1.444a1.442 1.442 0 01-1.37-.987l-.591-1.778a.44.44 0 00-.859.14v3.047c0 .476.093.94.276 1.38l.578 1.387a.393.393 0 11-.726.302l-.578-1.387a4.349 4.349 0 01-.336-1.682v-1.955H12.14a.393.393 0 110-.786h2.037v-.306a1.228 1.228 0 012.39-.388l.593 1.777a.657.657 0 001.281-.208V7.28c0-.57.212-1.093.56-1.493H7.279c-.823 0-1.493.67-1.493 1.493v14.542c0 .217.176.393.393.393h5.162a.393.393 0 110 .786H6.179A1.18 1.18 0 015 21.821V7.279A2.282 2.282 0 017.28 5zm-7.663 17.214a.396.396 0 01.393.393.396.396 0 01-.393.393.396.396 0 01-.393-.393.396.396 0 01.393-.393zm-3.432-5.66c.433 0 .786.353.786.787v1.729a.787.787 0 01-.786.786h-1.73a.787.787 0 01-.786-.786v-1.73c0-.433.353-.785.786-.785zm0 .787h-1.73v1.729h1.73v-1.73zm0-5.503c.433 0 .786.353.786.787v1.729a.787.787 0 01-.786.786h-1.73a.787.787 0 01-.786-.786v-1.73c0-.433.353-.786.786-.786zm7.021 2.516a.393.393 0 110 .786H12.14a.393.393 0 010-.786zm-7.021-1.73h-1.73v1.73h1.73v-1.73zM20.72 5.787c-.824 0-1.494.67-1.494 1.493v3.656h2.594a.393.393 0 00.393-.393V7.279c0-.823-.67-1.493-1.493-1.493zM9.625 7.122c.433 0 .786.353.786.786v1.73a.787.787 0 01-.786.786h-1.73a.787.787 0 01-.786-.786v-1.73c0-.433.353-.786.786-.786zm7.021 2.516a.393.393 0 110 .786h-2.709a.393.393 0 110-.786zm-4.506 0a.396.396 0 01.393.393.396.396 0 01-.393.393.395.395 0 01-.393-.393.395.395 0 01.393-.393zm-2.515-1.73h-1.73v1.73h1.73v-1.73z"/>
</svg>
