<svg xmlns="http://www.w3.org/2000/svg" width="28" height="28" viewBox="0 0 28 28">
    <path fill="#212121" d="M20.779 3c.263 0 .51.103.696.29l1.004 1.006a.983.983 0 01.288.698.983.983 0 01-.288.699l-.868.87-.901.904h2.48c.18 0 .324.145.324.324v6.597l.967-.97a.322.322 0 01.551.229v11.03a.323.323 0 01-.323.323H13.715a.323.323 0 01-.228-.553l1.858-1.864H5.478a2.428 2.428 0 01-1.707-.697 2.443 2.443 0 01-.731-1.57.326.326 0 01-.008-.07V6.486a2.547 2.547 0 012.54-2.547c.178 0 .323.145.323.324v3.204h10.023l2.247-2.254 1.05-1.053.868-.87a.977.977 0 01.696-.29zM5.249 4.614a1.902 1.902 0 00-1.571 1.873V18.55a2.519 2.519 0 011.571-.831v-2.046a.323.323 0 11.646 0v2.349a.323.323 0 01-.323.324c-.032 0-.064 0-.096.002l-.023.002a1.904 1.904 0 00-.072.005l-.02.003-.075.01c-.005 0-.01 0-.014.002l-.08.014-.005.001a1.902 1.902 0 00-1.322 1.037l-.001.003-.035.077-.007.018a1.86 1.86 0 00-.025.063l-.012.034-.016.048a1.706 1.706 0 00-.06.243l-.002.01c-.005.028-.01.056-.013.085a1.917 1.917 0 00-.015.184c.031.98.82 1.748 1.8 1.748H15.99l1.309-1.313a.322.322 0 01.457 0 .325.325 0 010 .458l-3.262 3.272h9.891v-1.545h-.595a.323.323 0 010-.648h.595v-.976h-.595a.323.323 0 010-.648h.595v-.976h-.595a.323.323 0 010-.648h.595v-.976h-.595a.323.323 0 010-.648h.595v-2.858l-5.68 5.699a.322.322 0 01-.457 0 .325.325 0 010-.458l4.619-4.634v-6.92h-2.804l-6.645 6.666a.324.324 0 01-.026.023l-.006.004a.314.314 0 01-.022.016l-.008.005a.313.313 0 01-.023.012l-.008.004a.334.334 0 01-.023.01l-.005.002-1.969.697h6.416a.323.323 0 010 .648H8.802a.323.323 0 010-.648h1.074a.328.328 0 01.013-.049l.429-1.219.63-1.788.002-.007a.325.325 0 01.014-.031l.01-.019.007-.01.006-.01.007-.01.006-.009a.325.325 0 01.023-.025l1.512-1.517a.322.322 0 01.457 0 .325.325 0 010 .458l-1.284 1.288 1.483 1.487 6.51-6.532.175-.175L18.394 5.9 16.28 8.02l-2.336 2.344a.322.322 0 01-.457 0 .325.325 0 010-.458l1.785-1.79H5.895v6.261l-.007.065a.323.323 0 01-.64-.065zm17.123 13.5a.387.387 0 01.66.273v4.226a.387.387 0 01-.387.387H18.42a.387.387 0 01-.274-.66zm-.114 1.206l-2.906 2.907h2.906V19.32zM11.385 13.2l-.326.927.616.619.925-.328-1.215-1.219zm8.058-8.352l-.593.594 1.483 1.487.592-.594-1.482-1.487zm1.575-1.1a.338.338 0 00-.479 0l-.64.641 1.483 1.488.64-.642a.341.341 0 000-.48z"/>
</svg>
