<svg xmlns="http://www.w3.org/2000/svg" width="20" height="20" viewBox="0 0 20 20">
    <path fill="#9E9E9E" d="M13.863 1c.58 0 1.054.473 1.054 1.054v15.392c0 .581-.473 1.054-1.055 1.054H6.054C5.474 18.5 5 18.027 5 17.446V2.054C5 1.474 5.473 1 6.054 1zm.47 14.583h-8.75v1.863c0 .23.167.423.387.463l.084.008h7.809c.26 0 .47-.211.47-.471v-1.863zm-4.012.292c.443 0 .804.361.804.805v.14c0 .445-.36.805-.805.805h-.724c-.443 0-.804-.36-.804-.804v-.141c0-.444.36-.805.804-.805zm0 .584h-.725c-.122 0-.22.099-.22.221v.14c0 .123.098.222.22.222h.725c.122 0 .22-.1.22-.221v-.141c0-.122-.098-.221-.22-.221zm4.013-13.126h-8.75V15h8.75V3.333zm-.472-1.75H6.054c-.26 0-.47.212-.47.471l-.001.696h8.75v-.696c0-.23-.166-.423-.386-.463l-.085-.008zm-2.445.292c.16 0 .291.13.291.292 0 .16-.13.291-.291.291H8.5c-.16 0-.292-.13-.292-.291 0-.161.131-.292.292-.292zm2.042 0c.16 0 .291.13.291.292 0 .16-.13.291-.291.291h-.292c-.161 0-.292-.13-.292-.291 0-.161.13-.292.292-.292z"/>
</svg>
