<svg width="53" height="49" viewBox="0 0 53 49" fill="none" xmlns="http://www.w3.org/2000/svg">
    <g filter="url(#a)">
        <rect x="4" y="2" width="45" height="41" rx="4" fill="#fff"/>
    </g>
    <path d="m31.22 13-3 3c-.166.167-.4.6 0 1l3 3" stroke="#42BFAD" stroke-width="2" stroke-linecap="round"/>
    <path d="M28.5 16.5H34c.667 0 2 .5 2 2.5v3M21.78 34l3-3c.166-.167.4-.6 0-1l-3-3" stroke="#42BFAD" stroke-width="2" stroke-linecap="round"/>
    <path d="M24.5 30.5H19c-.667 0-2-.5-2-2.5v-3" stroke="#42BFAD" stroke-width="2" stroke-linecap="round"/>
    <rect x="16" y="13" width="8" height="8" rx="1" stroke="#42BFAD" stroke-width="2"/>
    <rect x="29" y="25" width="8" height="8" rx="1" stroke="#42BFAD" stroke-width="2"/>
    <defs>
        <filter id="a" x="0" y="0" width="53" height="49" filterUnits="userSpaceOnUse" color-interpolation-filters="sRGB">
            <feFlood flood-opacity="0" result="BackgroundImageFix"/>
            <feColorMatrix in="SourceAlpha" values="0 0 0 0 0 0 0 0 0 0 0 0 0 0 0 0 0 0 127 0" result="hardAlpha"/>
            <feOffset dy="2"/>
            <feGaussianBlur stdDeviation="2"/>
            <feColorMatrix values="0 0 0 0 0.810766 0 0 0 0 0.784236 0 0 0 0 0.784236 0 0 0 0.5 0"/>
            <feBlend in2="BackgroundImageFix" result="effect1_dropShadow_192_6224"/>
            <feBlend in="SourceGraphic" in2="effect1_dropShadow_192_6224" result="shape"/>
        </filter>
    </defs>
</svg>
