<svg xmlns="http://www.w3.org/2000/svg" width="24" height="24" viewBox="0 0 24 24">
    <g fill="none" fill-rule="evenodd">
        <g fill="#00BEA7" fill-rule="nonzero">
            <g>
                <path d="M20.25 12.957c-.414 0-.749.352-.749.789v4.671H4.5v-4.671c0-.437-.335-.79-.75-.79S3 13.31 3 13.747v5.465c0 .437.334.789.75.789h16.5c.416 0 .75-.352.75-.79v-5.464c0-.437-.334-.79-.75-.79z" transform="translate(-474.000000, -448.000000) translate(474.000000, 448.000000)"/>
                <path d="M11.494 14.302c.39.383.858.186 1.016 0l4.366-4.447c.281-.287.281-.749 0-1.036-.281-.286-.735-.286-1.016 0l-3.143 3.2V2.731c0-.405-.32-.731-.717-.731-.397 0-.717.326-.717.731v9.285l-3.143-3.2c-.281-.287-.735-.287-1.016 0-.281.286-.281.749 0 1.035l4.37 4.451z" transform="translate(-474.000000, -448.000000) translate(474.000000, 448.000000)"/>
            </g>
        </g>
    </g>
</svg>
