<svg xmlns="http://www.w3.org/2000/svg" width="24" height="24" viewBox="0 0 24 24">
    <g fill="none" fill-rule="evenodd">
        <g>
            <g>
                <g>
                    <path d="M0 0L24 0 24 24 0 24z" transform="translate(-452.000000, -293.000000) translate(441.000000, 284.000000) translate(11.000000, 9.000000)"/>
                    <path fill="#1FC2AC" fill-rule="nonzero" d="M20 3H5c-1.1 0-2 .9-2 2v14c0 1.1.9 2 2 2h15c1.1 0 2-.9 2-2V5c0-1.1-.9-2-2-2zm0 2v3H5V5h15zm-5 14h-5v-9h5v9zM5 10h3v9H5v-9zm12 9v-9h3v9h-3z" transform="translate(-452.000000, -293.000000) translate(441.000000, 284.000000) translate(11.000000, 9.000000)"/>
                </g>
            </g>
        </g>
    </g>
</svg>
