<svg width="17" height="17" viewBox="0 0 17 17" fill="none" xmlns="http://www.w3.org/2000/svg">
<path d="M13.8574 1.19141H3.14257C1.96114 1.19141 1 2.15255 1 3.33398V9.96699C1 11.1484 1.96114 12.1096 3.14254 12.1096H4.69917V15.5158C4.69917 15.6335 4.76966 15.7398 4.87809 15.7856C4.91488 15.8012 4.95364 15.8087 4.99208 15.8087C5.0669 15.8087 5.14053 15.7801 5.19631 15.7259L8.91748 12.1096H13.8574C15.0389 12.1096 16 11.1484 16 9.96699V3.33398C16 2.15255 15.0389 1.19141 13.8574 1.19141ZM15.4141 9.96699C15.4141 10.8253 14.7158 11.5236 13.8574 11.5236H8.79856C8.7223 11.5236 8.64906 11.5534 8.59439 11.6065L5.28514 14.8225V11.8166C5.28514 11.6548 5.15398 11.5236 4.99217 11.5236H3.14257C2.28423 11.5236 1.58594 10.8253 1.58594 9.96699V3.33398C1.58594 2.47566 2.28423 1.77737 3.14254 1.77737H13.8574C14.7157 1.77737 15.414 2.47566 15.414 3.33398V9.96699H15.4141Z" fill="#212121" stroke="#212121" stroke-width="0.5"/>
</svg>
