<svg width="13" height="13" viewBox="0 0 13 13" fill="none" xmlns="http://www.w3.org/2000/svg">
<path d="M2.45223 0.65662C2.21505 0.419732 1.89338 0.28665 1.55796 0.28665C1.22255 0.28665 0.900868 0.419733 0.663694 0.656621C0.426519 0.893509 0.293276 1.2148 0.293276 1.54981C0.293276 1.88482 0.426519 2.20611 0.663694 2.443L4.53885 6.31348L0.663695 10.184C0.426521 10.4208 0.293277 10.7421 0.293278 11.0771C0.293278 11.4122 0.426521 11.7334 0.663695 11.9703C0.90087 12.2072 1.22255 12.3403 1.55796 12.3403C1.89338 12.3403 2.21506 12.2072 2.45223 11.9703L6.32739 8.09985L10.2025 11.9703C10.4397 12.2072 10.7614 12.3403 11.0968 12.3403C11.4322 12.3403 11.7539 12.2072 11.9911 11.9703C12.2283 11.7334 12.3615 11.4122 12.3615 11.0771C12.3615 10.7421 12.2283 10.4208 11.9911 10.184L8.11592 6.31347L11.9911 2.44299C12.2283 2.20611 12.3615 1.88482 12.3615 1.54981C12.3615 1.2148 12.2283 0.893507 11.9911 0.656619C11.7539 0.419731 11.4322 0.286649 11.0968 0.286649C10.7614 0.286649 10.4397 0.419732 10.2025 0.65662L6.32739 4.5271L2.45223 0.65662Z" fill="#E97756"/>
</svg>
