<svg width="13" height="16" viewBox="0 0 13 16" fill="none" xmlns="http://www.w3.org/2000/svg">
<path d="M12.2492 14.0001H1.74925C1.55033 14.0001 1.35957 14.0792 1.21892 14.2198C1.07826 14.3605 0.999246 14.5512 0.999246 14.7501C0.999246 14.949 1.07826 15.1398 1.21892 15.2805C1.35957 15.4211 1.55033 15.5001 1.74925 15.5001H12.2492C12.4482 15.5001 12.6389 15.4211 12.7796 15.2805C12.9202 15.1398 12.9992 14.949 12.9992 14.7501C12.9992 14.5512 12.9202 14.3605 12.7796 14.2198C12.6389 14.0792 12.4482 14.0001 12.2492 14.0001ZM1.74925 12.5001H1.81675L4.94425 12.2151C5.28684 12.181 5.60727 12.0301 5.85175 11.7876L12.6017 5.03764C12.8637 4.76086 13.0053 4.39152 12.9955 4.01054C12.9856 3.62956 12.8252 3.26802 12.5492 3.00514L10.4942 0.950138C10.226 0.69821 9.87459 0.553657 9.50675 0.543977C9.1389 0.534297 8.78033 0.660165 8.49925 0.897638L1.74925 7.64764C1.50682 7.89211 1.35587 8.21254 1.32175 8.55514L0.999246 11.6826C0.989143 11.7925 1.0034 11.9032 1.04099 12.0069C1.07859 12.1106 1.1386 12.2048 1.21675 12.2826C1.28683 12.3521 1.36994 12.4071 1.46132 12.4445C1.55269 12.4818 1.65054 12.5007 1.74925 12.5001ZM9.45175 2.00014L11.4992 4.04764L9.99925 5.51014L7.98925 3.50014L9.45175 2.00014ZM2.77675 8.68264L6.99925 4.49014L9.02425 6.51514L4.82425 10.7151L2.57425 10.9251L2.77675 8.68264Z" fill="#FFC700"/>
</svg>
