<svg width="8" height="8" viewBox="0 0 8 8" fill="none" xmlns="http://www.w3.org/2000/svg">
<path d="M0.225802 0.227755C0.278053 0.175372 0.340126 0.133811 0.408464 0.105453C0.476803 0.0770962 0.550064 0.0625 0.624052 0.0625C0.69804 0.0625 0.771302 0.0770962 0.83964 0.105453C0.907978 0.133811 0.970051 0.175372 1.0223 0.227755L3.99905 3.20563L6.9758 0.227755C7.0281 0.175456 7.09019 0.13397 7.15852 0.105666C7.22685 0.0773624 7.30009 0.0627945 7.37405 0.0627945C7.44801 0.0627945 7.52125 0.0773624 7.58958 0.105666C7.65792 0.13397 7.72 0.175456 7.7723 0.227755C7.8246 0.280054 7.86609 0.342142 7.89439 0.410474C7.9227 0.478806 7.93726 0.552043 7.93726 0.626005C7.93726 0.699967 7.9227 0.773205 7.89439 0.841537C7.86609 0.909869 7.8246 0.971957 7.7723 1.02426L4.79443 4.00101L7.7723 6.97776C7.8246 7.03006 7.86609 7.09214 7.89439 7.16047C7.9227 7.22881 7.93726 7.30204 7.93726 7.37601C7.93726 7.44997 7.9227 7.52321 7.89439 7.59154C7.86609 7.65987 7.8246 7.72196 7.7723 7.77426C7.72 7.82656 7.65792 7.86804 7.58958 7.89635C7.52125 7.92465 7.44801 7.93922 7.37405 7.93922C7.30009 7.93922 7.22685 7.92465 7.15852 7.89635C7.09019 7.86804 7.0281 7.82656 6.9758 7.77426L3.99905 4.79638L1.0223 7.77426C0.970003 7.82656 0.907916 7.86804 0.839584 7.89635C0.771252 7.92465 0.698014 7.93922 0.624052 7.93922C0.55009 7.93922 0.476852 7.92465 0.408521 7.89635C0.340189 7.86804 0.278101 7.82656 0.225802 7.77426C0.173503 7.72196 0.132017 7.65987 0.103713 7.59154C0.0754093 7.52321 0.0608414 7.44997 0.0608414 7.37601C0.0608414 7.30204 0.0754093 7.22881 0.103713 7.16047C0.132017 7.09214 0.173503 7.03006 0.225802 6.97776L3.20368 4.00101L0.225802 1.02426C0.173418 0.972004 0.131858 0.909932 0.1035 0.841593C0.0751431 0.773255 0.0605469 0.699994 0.0605469 0.626005C0.0605469 0.552017 0.0751431 0.478756 0.1035 0.410417C0.131858 0.342079 0.173418 0.280007 0.225802 0.227755Z" fill="#212121"/>
<path d="M0.225802 0.227755C0.278053 0.175372 0.340126 0.133811 0.408464 0.105453C0.476803 0.0770962 0.550064 0.0625 0.624052 0.0625C0.69804 0.0625 0.771302 0.0770962 0.83964 0.105453C0.907978 0.133811 0.970051 0.175372 1.0223 0.227755L3.99905 3.20563L6.9758 0.227755C7.0281 0.175456 7.09019 0.13397 7.15852 0.105666C7.22685 0.0773624 7.30009 0.0627945 7.37405 0.0627945C7.44801 0.0627945 7.52125 0.0773624 7.58958 0.105666C7.65792 0.13397 7.72 0.175456 7.7723 0.227755C7.8246 0.280054 7.86609 0.342142 7.89439 0.410474C7.9227 0.478806 7.93726 0.552043 7.93726 0.626005C7.93726 0.699967 7.9227 0.773205 7.89439 0.841537C7.86609 0.909869 7.8246 0.971957 7.7723 1.02426L4.79443 4.00101L7.7723 6.97776C7.8246 7.03006 7.86609 7.09214 7.89439 7.16047C7.9227 7.22881 7.93726 7.30204 7.93726 7.37601C7.93726 7.44997 7.9227 7.52321 7.89439 7.59154C7.86609 7.65987 7.8246 7.72196 7.7723 7.77426C7.72 7.82656 7.65792 7.86804 7.58958 7.89635C7.52125 7.92465 7.44801 7.93922 7.37405 7.93922C7.30009 7.93922 7.22685 7.92465 7.15852 7.89635C7.09019 7.86804 7.0281 7.82656 6.9758 7.77426L3.99905 4.79638L1.0223 7.77426C0.970003 7.82656 0.907916 7.86804 0.839584 7.89635C0.771252 7.92465 0.698014 7.93922 0.624052 7.93922C0.55009 7.93922 0.476852 7.92465 0.408521 7.89635C0.340189 7.86804 0.278101 7.82656 0.225802 7.77426C0.173503 7.72196 0.132017 7.65987 0.103713 7.59154C0.0754093 7.52321 0.0608414 7.44997 0.0608414 7.37601C0.0608414 7.30204 0.0754093 7.22881 0.103713 7.16047C0.132017 7.09214 0.173503 7.03006 0.225802 6.97776L3.20368 4.00101L0.225802 1.02426C0.173418 0.972004 0.131858 0.909932 0.1035 0.841593C0.0751431 0.773255 0.0605469 0.699994 0.0605469 0.626005C0.0605469 0.552017 0.0751431 0.478756 0.1035 0.410417C0.131858 0.342079 0.173418 0.280007 0.225802 0.227755Z" stroke="#212121"/>
</svg>
