<svg xmlns="http://www.w3.org/2000/svg" xmlns:xlink="http://www.w3.org/1999/xlink" width="24" height="24" viewBox="0 0 24 24">
    <defs>
        <path id="prefix__a" d="M12.5 11h-.79l-.28-.27C12.41 9.59 13 8.11 13 6.5 13 2.91 10.09 0 6.5 0S0 2.91 0 6.5 2.91 13 6.5 13c1.61 0 3.09-.59 4.23-1.57l.27.28v.79l5 4.99L17.49 16l-4.99-5zm-6 0C4.01 11 2 8.99 2 6.5S4.01 2 6.5 2 11 4.01 11 6.5 8.99 11 6.5 11z"/>
    </defs>
    <g fill="none" fill-rule="evenodd" opacity=".5" transform="translate(4 4)">
        <use fill="#212121" fill-rule="nonzero" xlink:href="#prefix__a"/>
    </g>
</svg>
