<svg xmlns="http://www.w3.org/2000/svg" width="20" height="20" viewBox="0 0 20 20">
    <path fill="#9E9E9E" d="M10 0c3.86 0 7 3.14 7 7 0 1.265-.341 2.506-.987 3.586l-5.415 9.042c-.105.174-.293.282-.496.283-.206 0-.394-.104-.5-.276l-5.557-8.954C3.36 9.577 3 8.304 3 7c0-3.86 3.14-7 7-7zm0 1.159C6.784 1.159 4.159 3.784 4.159 7c0 1.087.308 2.147.877 3.066l5.052 8.141 4.923-8.22c.538-.9.826-1.932.826-2.987 0-3.216-2.62-5.841-5.837-5.841zM10 3.5c1.93 0 3.5 1.57 3.5 3.5 0 1.896-1.52 3.5-3.5 3.5-1.955 0-3.5-1.582-3.5-3.5 0-1.93 1.57-3.5 3.5-3.5zm0 1.159C8.713 4.659 7.659 5.713 7.659 7c0 1.29 1.048 2.341 2.341 2.341 1.314 0 2.337-1.07 2.337-2.341 0-1.287-1.05-2.341-2.337-2.341z"/>
</svg>
