<svg xmlns="http://www.w3.org/2000/svg" width="59" height="60" viewBox="0 0 59 60">
    <path fill="#757575" d="M41.39 9c2.334 0 4.293 1.584 4.809 3.705 2.66.073 4.801 2.201 4.801 4.809v28.674C51 48.84 48.783 51 46.058 51H16.61c-2.333 0-4.293-1.584-4.808-3.705C9.142 47.222 7 45.094 7 42.486V16.231C7 12.244 10.332 9 14.426 9zM24.669 24.695c-.588-.01-1.123.28-1.423.776l-9.86 16.277v4.44c0 .39.075.765.21 1.11.462 1.185 1.638 2.029 3.014 2.029h29.448c1.777 0 3.223-1.409 3.223-3.14v-5.946l-2.949-2.632-1.719-1.534-.201-.18c-.594-.53-1.51-.552-2.129-.051l-3.865 3.121c-.688.557-1.553.834-2.432.794l2.002 3.58c.227.406.073.915-.343 1.136-.131.069-.272.102-.41.102-.305 0-.6-.158-.756-.437l-6.17-11.033-4.246-7.59c-.282-.505-.804-.812-1.394-.822zm14.396 20.307l.13.018c.064.012.127.032.187.057.061.025.119.056.173.092.055.036.106.078.152.124s.088.097.124.152c.036.054.067.112.092.173.025.06.045.123.058.187.013.064.019.13.019.195s-.006.13-.019.195c-.013.064-.033.127-.058.187s-.056.119-.092.173c-.036.055-.078.106-.124.152-.023.023-.047.045-.072.065-.026.021-.052.04-.08.059-.054.036-.112.067-.173.092-.06.025-.123.045-.187.057-.064.013-.13.02-.195.02s-.131-.007-.195-.02c-.064-.012-.127-.032-.187-.057-.061-.025-.119-.056-.173-.092-.028-.018-.054-.038-.08-.059-.025-.02-.05-.042-.072-.065-.046-.046-.088-.097-.124-.152-.036-.054-.067-.112-.092-.173-.025-.06-.045-.123-.057-.187-.013-.064-.02-.13-.02-.195s.007-.131.02-.195c.012-.064.032-.127.057-.187.025-.061.056-.12.092-.173.036-.055.078-.106.124-.152s.097-.088.152-.124c.054-.036.112-.067.173-.092.06-.025.123-.045.187-.057.129-.027.261-.027.39 0zm2.325-34.328H14.426c-3.147 0-5.707 2.493-5.707 5.557v26.255c0 1.641 1.3 2.99 2.949 3.127v-28.1c0-2.653 2.217-4.812 4.942-4.812h5.31c.475 0 .86.375.86.837 0 .462-.385.837-.86.837h-5.31c-1.777 0-3.223 1.408-3.223 3.139v20.94l8.378-13.834c.62-1.021 1.716-1.617 2.933-1.599 1.218.02 2.292.655 2.875 1.696l2.73 4.883 1.515 2.707 2.711 4.848c.264.472.727.801 1.27.903.542.101 1.097-.037 1.522-.38l3.865-3.123c.976-.788 2.308-.947 3.427-.49l1.72 1.274 2.948 2.632V17.514c0-1.641-1.3-2.99-2.949-3.127l-1.719-.012H28.795c-.474 0-.859-.375-.859-.837 0-.462.385-.837.86-.837h15.608c-.462-1.184-1.638-2.027-3.014-2.027zM39.5 20c2.481 0 4.5 2.019 4.5 4.5S41.981 29 39.5 29 35 26.981 35 24.5s2.019-4.5 4.5-4.5zm0 1.746c-1.518 0-2.754 1.236-2.754 2.754s1.236 2.754 2.754 2.754 2.754-1.236 2.754-2.754-1.236-2.754-2.754-2.754zm-14.435-8.744l.13.017c.064.013.127.032.187.057.061.025.119.056.173.092.055.036.106.078.152.124s.088.098.124.152c.036.055.067.113.092.173.025.06.045.123.057.187.013.065.02.13.02.196 0 .065-.007.13-.02.195-.012.064-.032.127-.057.187s-.056.118-.092.173c-.036.054-.078.106-.124.152s-.097.088-.152.124c-.054.036-.112.067-.173.092-.06.025-.123.044-.187.057-.064.013-.13.02-.195.02s-.131-.007-.195-.02c-.064-.013-.127-.032-.188-.057-.06-.025-.118-.056-.172-.092-.055-.036-.106-.078-.152-.124s-.088-.098-.125-.152c-.036-.055-.066-.113-.091-.173-.025-.06-.045-.123-.057-.187-.013-.065-.02-.13-.02-.195 0-.066.007-.13.02-.196.012-.064.032-.127.057-.187s.055-.118.091-.173c.037-.054.079-.106.125-.152s.097-.088.152-.124c.054-.036.112-.067.172-.092.061-.025.124-.044.188-.057.129-.025.261-.025.39 0z" opacity=".463"/>
</svg>
