<svg xmlns="http://www.w3.org/2000/svg" width="19" height="19" viewBox="0 0 19 19">
    <g fill="none" fill-rule="evenodd">
        <g fill="#3FBFAD" fill-rule="nonzero">
            <g>
                <path d="M5.67 13.177c1.351 0 2.451 1.1 2.451 2.452 0 1.352-1.1 2.452-2.452 2.452-1.14 0-2.101-.783-2.374-1.84H.711c-.308 0-.558-.274-.558-.612 0-.338.25-.613.558-.613h2.584c.273-1.056 1.234-1.839 2.374-1.839zm0 1.07c-.762 0-1.382.62-1.382 1.382 0 .761.62 1.381 1.381 1.381.762 0 1.382-.62 1.382-1.381 0-.762-.62-1.381-1.382-1.381zm12.634.77c.3 0 .543.274.543.612 0 .338-.243.613-.543.613h-8.72c-.3 0-.544-.275-.544-.613 0-.338.243-.613.543-.613h8.72zM13.33 6.434c1.14 0 2.1.783 2.374 1.839h2.584c.308 0 .558.275.558.613 0 .338-.25.613-.558.613h-2.584c-.273 1.056-1.234 1.839-2.374 1.839-1.352 0-2.452-1.1-2.452-2.452 0-1.352 1.1-2.452 2.452-2.452zm0 1.071c-.762 0-1.382.62-1.382 1.381 0 .762.62 1.381 1.382 1.381.761 0 1.38-.62 1.38-1.38 0-.763-.619-1.382-1.38-1.382zm-3.914.768c.3 0 .543.275.543.613 0 .338-.243.613-.543.613H.697c-.3 0-.544-.275-.544-.613 0-.338.243-.613.543-.613h8.72zM6.282 0c1.352 0 2.452 1.1 2.452 2.452 0 1.352-1.1 2.451-2.452 2.451-1.14 0-2.1-.782-2.374-1.838H.71c-.307 0-.556-.275-.556-.613 0-.339.25-.613.556-.613h3.2C4.18.781 5.141 0 6.281 0zm0 1.07c-.761 0-1.38.62-1.38 1.382 0 .761.619 1.38 1.38 1.38.762 0 1.381-.619 1.381-1.38 0-.762-.62-1.382-1.38-1.382zm12.022.769c.3 0 .543.274.543.613 0 .338-.243.613-.543.613h-8.108c-.3 0-.543-.275-.543-.613 0-.339.243-.613.543-.613h8.108z" transform="translate(-705 -109) translate(705 109)"/>
            </g>
        </g>
    </g>
</svg>
