<svg width="16" height="20" fill="none" xmlns="http://www.w3.org/2000/svg">
    <mask id="a" fill="#fff">
        <path fill-rule="evenodd" clip-rule="evenodd" d="M14 8.5v5l1.793 1.793a.707.707 0 0 1-.5 1.207H0c0-.64.254-1.254.707-1.707L2 13.5v-5c0-3.08 1.63-5.64 4.5-6.32V1.5C6.5.67 7.17 0 8 0s1.5.67 1.5 1.5v.68c2.86.68 4.5 3.25 4.5 6.32zm-4 9a2 2 0 1 1-4 0h4z"/>
    </mask>
    <path d="M14 13.5h-2v.828l.586.586L14 13.5zm-14 3h-2v2h2v-2zm.707-1.707-1.414-1.414 1.414 1.414zM2 13.5l1.414 1.414.586-.586V13.5H2zM6.5 2.18l.461 1.946L8.5 3.761V2.18h-2zm3 0h-2v1.58l1.537.366L9.5 2.18zM10 17.5h2v-2h-2v2zm-4 0v-2H4v2h2zm10-4v-5h-4v5h4zm1.207.379-1.793-1.793-2.828 2.828 1.793 1.793 2.828-2.828zM18 15.793c0-.718-.285-1.407-.793-1.914l-2.828 2.828a1.293 1.293 0 0 1-.379-.914h4zM15.293 18.5A2.707 2.707 0 0 0 18 15.793h-4c0-.714.579-1.293 1.293-1.293v4zM0 18.5h15.293v-4H0v4zm-.707-5.121A4.414 4.414 0 0 0-2 16.5h4c0-.11.044-.215.121-.293L-.707 13.38zm1.293-1.293-1.293 1.293 2.828 2.828 1.293-1.293-2.828-2.828zM0 8.5v5h4v-5H0zM6.039.234C2.06 1.176 0 4.723 0 8.5h4c0-2.383 1.199-3.956 2.961-4.374L6.04.234zM4.5 1.5v.68h4V1.5h-4zM8-2a3.498 3.498 0 0 0-3.5 3.5h4c0 .275-.225.5-.5.5v-4zm3.5 3.5C11.5-.435 9.935-2 8-2v4a.502.502 0 0 1-.5-.5h4zm0 .68V1.5h-4v.68h4zM16 8.5c0-3.77-2.072-7.323-6.037-8.266l-.926 3.892C10.792 4.543 12 6.129 12 8.5h4zm-8 13c2.205 0 4-1.795 4-4H8v4zm-4-4a4 4 0 0 0 4 4v-4H4zm6-2H6v4h4v-4z" fill="#000" mask="url(#a)"/>
</svg>
