<svg xmlns="http://www.w3.org/2000/svg" width="28" height="28" viewBox="0 0 28 28">
    <path fill="#212121" d="M20.72 5C21.979 5 23 6.023 23 7.28v3.262c0 .65-.529 1.179-1.179 1.179h-2.594v.375l1.08 1.079c1.086 1.083 1.684 2.525 1.684 4.06v4.177c0 1.198-.271 2.403-.784 3.486-.093.196-.328.28-.524.186-.196-.093-.28-.327-.186-.523.463-.978.708-2.067.708-3.149v-4.178c0-1.323-.516-2.568-1.453-3.503l-.525-.524v6.738c0 .796-.648 1.444-1.444 1.444-.622 0-1.172-.397-1.37-.987l-.591-1.778c-.06-.18-.229-.3-.418-.3-.243 0-.441.197-.441.44v3.047c0 .476.093.94.276 1.38l.578 1.387c.084.2-.011.43-.212.514-.049.02-.1.03-.15.03-.155 0-.3-.09-.364-.242l-.578-1.387c-.223-.536-.336-1.102-.336-1.682v-1.955H12.14c-.217 0-.393-.176-.393-.393 0-.217.176-.393.393-.393h2.037v-.306c0-.677.55-1.227 1.227-1.227.528 0 .996.337 1.163.839l.593 1.777c.09.269.34.45.623.45.363 0 .658-.295.658-.658V7.28c0-.57.212-1.093.56-1.493H7.279c-.823 0-1.493.67-1.493 1.493v14.542c0 .217.176.393.393.393h5.162c.217 0 .393.176.393.393 0 .217-.176.393-.393.393H6.179C5.529 23 5 22.471 5 21.821V7.279C5 6.023 6.023 5 7.28 5zm-7.663 17.214c.103 0 .204.042.278.115.073.073.115.175.115.278 0 .103-.042.205-.115.278-.074.073-.175.115-.278.115-.104 0-.205-.042-.278-.115-.073-.073-.115-.175-.115-.278 0-.103.042-.205.115-.278.073-.073.174-.115.278-.115zm-3.432-5.66c.433 0 .786.353.786.787v1.729c0 .433-.353.786-.786.786h-1.73c-.433 0-.786-.353-.786-.786v-1.73c0-.433.353-.785.786-.785zm0 .787h-1.73v1.729h1.73v-1.73zm0-5.503c.433 0 .786.353.786.787v1.729c0 .433-.353.786-.786.786h-1.73c-.433 0-.786-.353-.786-.786v-1.73c0-.433.353-.786.786-.786zm7.021 2.516c.217 0 .393.176.393.393 0 .217-.176.393-.393.393H12.14c-.217 0-.393-.176-.393-.393 0-.217.176-.393.393-.393zm-7.021-1.73h-1.73v1.73h1.73v-1.73zM20.72 5.787c-.824 0-1.494.67-1.494 1.493v3.656h2.594c.217 0 .393-.177.393-.393V7.279c0-.823-.67-1.493-1.493-1.493zM9.625 7.122c.433 0 .786.353.786.786v1.73c0 .433-.353.786-.786.786h-1.73c-.433 0-.786-.353-.786-.786v-1.73c0-.433.353-.786.786-.786zm7.021 2.516c.217 0 .393.176.393.393 0 .217-.176.393-.393.393h-2.709c-.217 0-.393-.176-.393-.393 0-.217.176-.393.393-.393zm-4.506 0c.103 0 .205.042.278.115.073.073.115.174.115.278 0 .103-.042.204-.115.277-.073.074-.175.116-.278.116-.104 0-.205-.042-.278-.116-.073-.073-.115-.174-.115-.277 0-.104.042-.205.115-.278.073-.073.174-.115.278-.115zm-2.515-1.73h-1.73v1.73h1.73v-1.73z"/>
</svg>
