<svg xmlns="http://www.w3.org/2000/svg" width="28" height="28" viewBox="0 0 28 28">
    <path fill="#3FBFAD" d="M20.779 3c.263 0 .51.103.696.29l1.004 1.006c.185.187.288.435.288.698 0 .264-.103.512-.288.699l-.868.87-.901.904h2.48c.18 0 .324.145.324.324v6.597l.967-.97c.092-.093.231-.12.352-.07.12.05.199.168.199.299v11.03c0 .178-.145.323-.323.323H13.715c-.13 0-.248-.079-.298-.2-.05-.121-.022-.26.07-.353l1.858-1.864H5.478c-.642 0-1.248-.248-1.707-.697-.43-.42-.687-.975-.731-1.57-.005-.023-.008-.046-.008-.07V6.486c0-1.404 1.14-2.547 2.54-2.547.178 0 .323.145.323.324v3.204h10.023l2.247-2.254 1.05-1.053.868-.87c.186-.187.433-.29.696-.29zM5.249 4.614c-.891.154-1.571.935-1.571 1.873V18.55c.039-.044.078-.087.12-.128.4-.39.906-.635 1.45-.704v-2.045c0-.179.145-.324.324-.324.178 0 .323.145.323.324v2.349c0 .179-.145.324-.323.324-.032 0-.064 0-.096.002l-.023.002-.072.005-.02.003-.075.01c-.005 0-.01 0-.014.002l-.08.014-.005.001c-.583.122-1.07.513-1.322 1.037l-.001.003-.035.077-.007.018-.025.063-.012.034-.016.048c-.006.016-.01.033-.015.05l-.01.033-.016.063-.004.021-.016.076-.001.01c-.005.028-.01.056-.013.085-.008.061-.013.123-.015.184.031.98.82 1.748 1.8 1.748H15.99l1.309-1.313c.112-.112.285-.125.41-.038.017.01.032.023.047.038.126.126.126.332 0 .458l-3.262 3.272h9.891v-1.545h-.595c-.179 0-.323-.145-.323-.324 0-.179.144-.324.323-.324h.595v-.976h-.595c-.179 0-.323-.145-.323-.324 0-.179.144-.324.323-.324h.595v-.976h-.595c-.179 0-.323-.145-.323-.324 0-.179.144-.324.323-.324h.595v-.976h-.595c-.179 0-.323-.145-.323-.324 0-.179.144-.324.323-.324h.595v-2.858l-5.68 5.699-.025.022c-.06.049-.132.073-.204.073-.072 0-.144-.024-.204-.073l-.024-.022c-.126-.126-.126-.332 0-.458l4.619-4.634v-6.92h-2.804l-6.645 6.666-.026.023-.006.004-.022.016-.008.005c-.007.004-.015.009-.023.012l-.008.004-.023.01-.005.002-1.969.697h6.416c.178 0 .323.145.323.324 0 .18-.145.324-.323.324H8.802c-.178 0-.323-.145-.323-.324 0-.179.145-.324.323-.324h1.074c.003-.016.007-.033.013-.049l.429-1.219.63-1.788.002-.007.008-.019.006-.012.01-.019.007-.01.006-.01.007-.01.006-.009.023-.025 1.512-1.517c.126-.126.33-.126.457 0 .126.127.126.332 0 .458l-1.284 1.288 1.483 1.487 6.51-6.532.175-.175L18.394 5.9 16.28 8.02l-2.336 2.344c-.126.127-.33.127-.457 0-.126-.126-.126-.331 0-.458l1.785-1.79H5.895v6.261l-.007.065c-.03.148-.16.26-.316.26-.179 0-.323-.146-.323-.325zm17.123 13.5c.11-.111.277-.144.421-.085.145.06.239.201.239.358v4.226c0 .214-.173.387-.387.387H18.42c-.157 0-.298-.094-.357-.239-.06-.144-.027-.31.083-.421zm-.114 1.206l-2.906 2.907h2.906V19.32zM11.385 13.2l-.326.927.616.619.925-.328-1.215-1.219zm8.058-8.352l-.593.594 1.483 1.487.592-.594-1.482-1.487zm1.575-1.1c-.132-.133-.347-.133-.479 0l-.64.641 1.483 1.488.64-.642c.132-.133.132-.348 0-.48z"/>
</svg>
