<svg xmlns="http://www.w3.org/2000/svg" width="28" height="28" viewBox="0 0 28 28">
    <path d="M5.029 25v2H4.53c-.275 0-.498-.224-.498-.5V25h.997zm4.986 1v1H7.023v-1h2.992zm6.98 0v1H15v-1h1.994zm-3.99 0v1h-.996v-1h.997zm6.98-1v1.5c0 .276-.223.5-.498.5h-.499v-2h.997zm-.997-24c.01 0 .018.005.03.008.048.002.095.011.14.026l.042.015c.053.022.101.052.142.09l5.484 5.163c.04.04.072.084.096.134l.016.044c.015.04.024.081.027.124 0 .01.006.018.006.029v14.081c0 .26-.223.47-.499.47H21.98v2.347c0 .259-.224.469-.499.469H7.521c-.275 0-.498-.21-.498-.47V4.287c0-.26.223-.47.499-.47h2.493V1.47c0-.259.223-.469.498-.469zm-8.973 3.755H8.02v18.306h12.963v-1.877h-10.47c-.275 0-.498-.21-.498-.47V4.755zM5.029 21v2h-.997v-2h.997zm13.46-19.061h-7.477v18.306h12.962V7.102h-4.986c-.275 0-.498-.21-.498-.47V1.94zM5.03 18v1h-.997v-1h.997zm0-5v3h-.997v-3h.997zm12.464-4c1.927 0 3.49 1.567 3.49 3.5S19.42 16 17.493 16c-1.928 0-3.49-1.567-3.49-3.5.002-1.932 1.563-3.498 3.49-3.5zm0 1C16.116 10 15 11.12 15 12.5s1.116 2.5 2.493 2.5c1.376 0 2.492-1.12 2.492-2.5-.001-1.38-1.116-2.498-2.492-2.5zm.498 1v1h.997v1h-.997v1h-.997v-1h-.997v-1h.997v-1h.997zM5.03 9v2h-.997V9h.997zm.997-3v1H4.032v-.5c0-.276.223-.5.498-.5h1.496zm13.46-3.397v3.56h3.783l-3.782-3.56z"/>
</svg>
