<svg xmlns="http://www.w3.org/2000/svg" width="24" height="24" viewBox="0 0 24 24">
    <path d="M12 2c2.671 0 5.182 1.04 7.071 2.929C20.96 6.818 22 9.329 22 12c0 2.671-1.04 5.182-2.929 7.071C17.182 20.96 14.671 22 12 22c-2.671 0-5.182-1.04-7.071-2.929C3.04 17.182 2 14.671 2 12c0-2.671 1.04-5.182 2.929-7.071C6.818 3.04 9.329 2 12 2zm0 1.172c-4.868 0-8.828 3.96-8.828 8.828 0 4.868 3.96 8.828 8.828 8.828 4.868 0 8.828-3.96 8.828-8.828 0-4.868-3.96-8.828-8.828-8.828zm.109 2.592c.324.006.582.273.576.596l-.022 1.298 1.298.022c.324.006.583.273.577.597-.006.323-.273.581-.597.575l-2.514-.043c-.716-.013-1.309.559-1.321 1.274-.013.715.56 1.307 1.276 1.32l1.257.022c1.363.024 2.452 1.15 2.429 2.512-.024 1.362-1.152 2.45-2.515 2.427l-.042-.001-.023 1.297c-.006.324-.273.582-.597.576-.324-.006-.582-.273-.576-.596l.022-1.298-1.298-.022c-.324-.006-.582-.273-.577-.597.006-.323.273-.581.597-.575l2.514.043c.716.013 1.309-.559 1.321-1.274.013-.715-.56-1.307-1.276-1.32l-1.257-.022c-1.363-.024-2.452-1.15-2.429-2.512.024-1.362 1.152-2.45 2.516-2.427l.041.001.023-1.297c.006-.324.273-.582.597-.576z"/>
</svg>
