<svg xmlns="http://www.w3.org/2000/svg" width="24" height="24" viewBox="0 0 24 24">
    <path d="M20.25 13.957c.416 0 .75.352.75.789v5.465c0 .437-.334.789-.75.789H3.75c-.416 0-.75-.352-.75-.79v-5.464c0-.437.334-.79.75-.79.414 0 .749.353.749.79v4.671H19.5v-4.671c0-.437.335-.79.75-.79zM12 3c.397 0 .717.326.717.731v9.288l3.143-3.2c.281-.286.735-.286 1.016 0 .281.287.281.75 0 1.036l-4.366 4.447c-.158.186-.626.383-1.016 0l-4.37-4.45c-.281-.287-.281-.75 0-1.036.281-.287.735-.287 1.016 0l3.143 3.2V3.73c0-.405.32-.731.717-.731z"/>
</svg>
