<svg xmlns="http://www.w3.org/2000/svg" width="24" height="24" viewBox="0 0 24 24">
    <path fill="#757575" fill-rule="evenodd" d="M12.667 16.333c.736 0 1.333.597 1.333 1.334V18c0 .736-.597 1.333-1.333 1.333h-.334C11.597 19.333 11 18.736 11 18v-.333c0-.737.597-1.334 1.333-1.334h.334zm0-6.333c.736 0 1.333.597 1.333 1.333v.334c0 .736-.597 1.333-1.333 1.333h-.334C11.597 13 11 12.403 11 11.667v-.334c0-.736.597-1.333 1.333-1.333h.334zm0-6.333C13.403 3.667 14 4.263 14 5v.333c0 .737-.597 1.334-1.333 1.334h-.334C11.597 6.667 11 6.07 11 5.333V5c0-.737.597-1.333 1.333-1.333h.334z"/>
</svg>
