<svg xmlns="http://www.w3.org/2000/svg" width="18" height="18" viewBox="0 0 18 18">
    <path fill="#9E9E9E" d="M9.23 4.05c1.088-.015 2.17-.144 3.232-.384C11.728 1.594 10.562.19 9.23 0zm-.46 0V0C7.438.191 6.271 1.594 5.537 3.666c1.061.24 2.144.369 3.231.384zm4.312-.45c.744-.19 1.465-.458 2.149-.8l-.028-.029c-.05-.05-.1-.097-.15-.145l-.177-.166c-.052-.047-.106-.092-.16-.138-.06-.052-.12-.104-.183-.155l-.166-.13-.19-.144-.174-.121c-.065-.045-.13-.09-.196-.133-.06-.04-.12-.077-.18-.114l-.203-.121c-.06-.036-.121-.07-.184-.105l-.21-.112-.188-.095c-.071-.035-.143-.068-.216-.101-.064-.03-.128-.058-.192-.085L12.21.815c-.064-.026-.129-.051-.194-.075-.077-.029-.154-.055-.23-.08-.066-.023-.131-.045-.198-.066-.078-.024-.157-.047-.236-.069l-.099-.029-.1-.028-.076-.018c.928.872 1.617 1.955 2.005 3.15zm-8.164 0C5.306 2.405 5.995 1.322 6.923.45l-.076.018c-.066.017-.132.036-.197.055l-.12.034-.118.035c-.066.02-.13.043-.196.065-.077.026-.155.052-.23.08L5.79.813l-.224.091-.191.085c-.075.033-.148.067-.22.102l-.188.094c-.07.037-.141.074-.211.113-.062.034-.123.068-.183.104-.07.04-.137.081-.205.123l-.178.112-.198.135c-.057.041-.115.08-.171.122-.067.047-.13.096-.192.145-.056.043-.111.085-.165.13-.063.05-.124.102-.184.155-.054.046-.107.09-.16.137-.06.054-.117.11-.176.166-.051.048-.102.096-.149.145l-.013.014-.014.014c.684.342 1.405.61 2.15.801zM18 8.55c-.072-1.813-.816-3.554-2.115-4.95-.792.382-1.63.68-2.5.887.426 1.321.65 2.688.665 4.063zm-14.05 0c.015-1.375.24-2.742.665-4.063-.87-.207-1.708-.505-2.5-.887C.815 4.996.072 6.737 0 8.55zm9.435 0c-.017-1.37-.229-2.733-.63-4.05-1.157.25-2.338.384-3.524.399V8.55zm-4.616 0V4.899C7.583 4.884 6.402 4.75 5.245 4.5c-.402 1.317-.613 2.68-.63 4.05H8.77zm3.986 4.5c.401-1.317.613-2.68.63-4.05H9.23v3.651c1.186.015 2.367.149 3.524.399zm3.13.9c1.3-1.396 2.043-3.137 2.115-4.95h-3.95c-.015 1.375-.239 2.742-.665 4.063.87.207 1.708.505 2.5.887zm-13.77 0c.792-.382 1.63-.68 2.5-.887-.426-1.321-.65-2.688-.665-4.063H0c.072 1.813.816 3.554 2.115 4.95zm3.13-.9c1.157-.25 2.338-.384 3.524-.399V9H4.615c.017 1.37.228 2.733.63 4.05zm3.986 4.5c1.33-.191 2.497-1.594 3.23-3.666-1.06-.24-2.143-.369-3.23-.384zm-.462 0V13.5c-1.087.015-2.17.144-3.23.384.733 2.072 1.9 3.475 3.23 3.666zm2.308-.45l.076-.018c.066-.017.132-.036.197-.054.08-.023.159-.045.237-.07.066-.02.132-.043.197-.065.077-.026.154-.052.23-.08.065-.024.13-.05.194-.075l.224-.091c.065-.027.129-.056.191-.085.075-.033.148-.067.22-.102.062-.03.125-.064.188-.094l.211-.113c.061-.034.122-.068.183-.104.069-.04.136-.081.204-.123.06-.037.12-.074.178-.112.067-.044.133-.09.198-.135l.172-.121c.064-.047.129-.096.191-.145.056-.043.111-.085.165-.13.063-.05.123-.103.184-.155.054-.047.107-.09.16-.138.06-.054.117-.11.175-.165.05-.049.102-.096.152-.146l.027-.028c-.685-.342-1.406-.611-2.15-.801-.388 1.195-1.076 2.278-2.004 3.15zm-4.154 0c-.928-.872-1.617-1.955-2.004-3.15-.745.19-1.466.459-2.15.8l.027.03c.05.05.102.097.152.145.058.056.116.112.176.166.052.047.106.092.16.139.06.052.12.103.183.154.055.044.11.087.167.13l.19.144.173.122c.065.045.13.09.197.133l.18.114.202.121c.06.036.122.07.185.104.07.039.139.076.21.112.062.033.125.065.187.096.072.035.144.068.216.101.065.03.128.058.193.085l.223.091.195.076c.076.028.153.054.23.08l.198.065c.079.025.157.047.236.07.066.018.131.037.198.054l.076.018z"/>
</svg>
