<svg xmlns="http://www.w3.org/2000/svg" width="18" height="18" viewBox="0 0 24 24">
    <g fill="none" fill-rule="evenodd">
        <g>
            <g>
                <path fill="#999" fill-rule="nonzero" d="M9.42 14.428h7.115c.807 0 1.465-.653 1.465-1.452v-2.968-.01-.021c0-.006 0-.01-.003-.016l-.002-.018c0-.006-.003-.011-.003-.016-.003-.005-.003-.01-.005-.019l-.006-.015c-.002-.006-.002-.011-.005-.016l-.008-.019-.008-.013-.008-.016-.008-.013c-.002-.005-.008-.01-.01-.016l-.011-.013c-.003-.005-.008-.008-.01-.013-.003-.005-.009-.008-.011-.013-.003-.005-.008-.008-.01-.01l-.014-.014c-.005-.002-.008-.008-.013-.01l-.016-.01-.014-.009c-.005-.002-.01-.005-.015-.01l-.016-.008-.016-.008-.016-.008c-.006-.002-.01-.002-.016-.005-.005-.003-.013-.005-.019-.005-.005 0-.01-.003-.013-.003-.008-.003-.013-.003-.021-.003l-.01-.002-9.019-1.234V7.175c0-.013 0-.026-.002-.037 0-.002 0-.005-.003-.01l-.003-.024c-.002-.008-.002-.013-.005-.021 0-.005-.003-.008-.003-.013l-.008-.024-.002-.01-.01-.021c-.004-.003-.004-.008-.006-.01-.003-.006-.005-.011-.01-.017l-.009-.013-.008-.013c-.002-.005-.008-.01-.01-.016l-.008-.008-.016-.015-.008-.008c-.005-.006-.01-.01-.019-.016-.002-.003-.008-.005-.01-.008l-.016-.013-.022-.013-.007-.006-.035-.015-1.956-.816c-.183-.076-.393.008-.47.19-.077.181.008.389.191.465l1.736.726V15.191c0 .736.557 1.347 1.277 1.439-.13.215-.207.468-.207.736 0 .792.65 1.434 1.446 1.434.796 0 1.446-.645 1.446-1.434 0-.263-.071-.513-.199-.723h3.222c-.127.213-.199.46-.199.723 0 .792.65 1.434 1.446 1.434.797 0 1.447-.645 1.447-1.434 0-.789-.65-1.433-1.447-1.433H9.42c-.414 0-.748-.335-.748-.742v-.963c.217.126.475.2.748.2zm1.783 2.936c0 .4-.329.723-.73.723-.4 0-.73-.326-.73-.723 0-.398.33-.724.73-.724.401 0 .73.324.73.724zm5.717 0c0 .4-.33.723-.73.723-.4 0-.73-.326-.73-.723 0-.398.33-.724.73-.724.4 0 .73.324.73.724zm-.385-3.646H9.42c-.414 0-.748-.335-.748-.742V9.138l8.611 1.175v2.66c0 .413-.337.745-.748.745z" transform="translate(-4406 -884) translate(4406 884)"/>
            </g>
        </g>
    </g>
</svg>
