<svg xmlns="http://www.w3.org/2000/svg" width="18" height="18" viewBox="0 0 18 18">
    <path fill="#212121" d="M12.817 16l.08.01c.214.04.345.202.291.363l-.4 1.2c-.046.136-.208.227-.387.227-.032 0-.065-.003-.098-.009-.214-.04-.345-.203-.29-.364l.4-1.2c.052-.16.27-.259.484-.218zm.683.6c.166 0 .3.108.3.24v.72c0 .132-.134.24-.3.24-.166 0-.3-.108-.3-.24v-.72c0-.132.134-.24.3-.24zm.603-.59c.214-.041.431.057.485.217l.4 1.2c.054.161-.077.324-.291.364-.033.006-.065.009-.097.009-.18 0-.342-.09-.388-.227l-.4-1.2c-.054-.16.077-.324.291-.364zM9.04 1.002l.076.02 8.7 3.6c.112.046.185.155.185.277 0 .121-.073.23-.185.277L13.8 6.84v.542l3.6-1.482v-.1c0-.165.134-.3.3-.3.166 0 .3.135.3.301v.3c0 .121-.073.231-.186.277L13.8 8.03v3.72c.368-.386.548-.778.6-.905V8.8c0-.166.134-.3.3-.3.166 0 .3.134.3.3v2.1c0 .033-.006.067-.017.098-.013.038-.322.904-1.183 1.554v1.703c.348.125.6.454.6.845 0 .496-.404.9-.9.9s-.9-.404-.9-.9c0-.39.252-.72.6-.845v-7.39L9.776 5.585C9.568 5.718 9.3 5.8 9 5.8c-.673 0-1.2-.395-1.2-.9S8.327 4 9 4c.673 0 1.2.395 1.2.9 0 .067-.01.131-.028.193l3.3 1.232L16.914 4.9 9 1.625 1.084 4.9 9 8.175l3.031-1.254c.153-.063.329.01.392.163s-.01.328-.163.391L9.115 8.777c-.037.015-.076.023-.115.023-.039 0-.078-.008-.115-.023l-8.7-3.6C.073 5.131 0 5.021 0 4.9c0-.122.073-.23.185-.277l8.7-3.6c.074-.03.156-.03.23 0zM13.5 14.8c-.166 0-.3.135-.3.3 0 .165.134.3.3.3.166 0 .3-.135.3-.3 0-.165-.134-.3-.3-.3zm-10.2-6c.166 0 .3.127.3.284v1.93c.173.356 1.375 2.494 5.1 2.607v-2.547c0-.157.134-.285.3-.285.165 0 .3.128.3.285v2.55c1.346-.043 2.297-.353 2.867-.62.149-.07.328-.012.402.129.073.14.013.31-.136.38-.67.314-1.808.687-3.433.687-4.65 0-5.926-2.898-5.979-3.02-.014-.034-.021-.07-.021-.106v-1.99c0-.157.134-.284.3-.284zm-3-3c.166 0 .3.143.3.32v.106L9 9.934l3.185-1.406c.153-.067.329.01.392.173.063.163-.01.35-.162.418l-3.3 1.457c-.037.016-.076.024-.115.024-.039 0-.078-.008-.114-.024l-8.7-3.84C.072 6.686 0 6.57 0 6.44v-.32c0-.177.134-.32.3-.32zM9 4.6c-.366 0-.6.178-.6.3s.234.3.6.3.6-.178.6-.3-.234-.3-.6-.3z" opacity=".49"/>
</svg>
