<svg xmlns="http://www.w3.org/2000/svg" width="18" height="18" viewBox="0 0 18 18">
    <path fill="#212121" d="M6.542 2c-.496.017-.885.443-.87.952v1.116H3.13l-.124.003C2.052 4.118 1 4.71 1 6.256v6.89c0 1.613 1.148 2.187 2.13 2.187h10.74c.982 0 2.13-.574 2.13-2.187V6.25c0-1.614-1.148-2.188-2.13-2.188h-2.543V2.875c-.026-.51-.449-.9-.944-.874H6.542zM3.13 4.704h10.74c.457 0 1.513.152 1.513 1.553v6.89c0 1.401-1.059 1.553-1.513 1.553H3.13c-.457 0-1.513-.152-1.513-1.553v-6.89c0-1.401 1.059-1.553 1.513-1.553zM8.056 7c-.24.002-.433.197-.431.438v1.19h-1.19c-.24 0-.435.194-.435.434v1.715c.002.24.197.433.438.432h1.19v1.19l.007.078c.036.203.214.356.427.356h1.715c.24-.001.433-.197.432-.437v-1.187h1.19c.24 0 .434-.195.434-.435V9.056c-.001-.24-.197-.433-.437-.431h-1.187v-1.19c0-.24-.195-.435-.435-.435zm.155.583h1.414V8.92c0 .161.131.292.292.292h1.333v1.414H9.917c-.161 0-.292.131-.292.292v1.333H8.208v-1.333c0-.161-.13-.292-.292-.292H6.583V9.208H7.92c.161 0 .292-.13.292-.292V7.583zm-1.594-4.97h3.763c.33 0 .33.247.33.34v1.11H6.287V2.915c.004-.11.037-.303.33-.303z" opacity=".49"/>
</svg>
