<svg xmlns="http://www.w3.org/2000/svg" width="18" height="18" viewBox="0 0 18 18">
    <g fill="none" fill-rule="evenodd">
        <g fill="#17BDA7" fill-rule="nonzero">
            <g>
                <path d="M10.052 8l1.134.89h5.198v1.658h2.605l-1.623 5.978c-.143.526-.623.894-1.168.894h-.001l-9.001-.005C6.536 17.398 6 16.847 6 16.187V8h4.052zm7.939 3.31H9.99l-1.375 5.063c-.027.098-.064.192-.109.28l7.691.004.085-.008c.165-.032.302-.156.347-.323l1.362-5.015zM9.789 8.764H6.763v7.424c0 .244.205.456.448.465h.078c.277-.016.515-.206.59-.48l1.527-5.624h6.215v-.896h-4.699l-1.133-.889zm.981 6.361l4.608.005-.001.763-4.607-.004v-.764z" transform="translate(-4436 -851) translate(4436 851)"/>
            </g>
        </g>
    </g>
</svg>
