<svg xmlns="http://www.w3.org/2000/svg" width="18" height="18" viewBox="0 0 18 18">
    <path fill="#212121" fill-opacity=".49" d="M2.282 5.143c-.006.03-.009.06-.01.09v.617c0 .255.162.482.405.571v.908c.001.304.245.554.555.568v5.246c-.31.014-.554.264-.555.568v.905c-.244.092-.405.321-.405.577v.603c0 .113.093.204.208.204h14.03c.115 0 .209-.091.209-.204v-.603c0-.256-.162-.485-.405-.577v-.91c-.001-.304-.245-.554-.555-.569v-5.24c.31-.014.554-.264.555-.568v-.908c.243-.09.404-.316.405-.57v-.614c-.001-.03-.004-.06-.01-.09.105.046.227 0 .273-.103.047-.102 0-.222-.105-.268L9.59 1.024c-.06-.032-.133-.032-.194 0L2.11 4.772c-.102.053-.14.176-.087.276.049.09.16.132.258.095zm.811 1.632V6.46h2.4v.31l-2.4.004zm5.343 1.124v5.244c-.31.014-.554.264-.555.568v.867H5.906v-.867c-.001-.304-.245-.554-.555-.568V7.897c.31-.014.554-.264.555-.568v-.868h1.972v.867c0 .304.245.555.555.57h.003zm-.139-1.124V6.46h2.4v.31l-2.4.004zm5.343 1.124v5.244c-.31.014-.554.264-.555.568v.867H11.11v-.867c-.001-.304-.245-.554-.555-.568V7.897c.31-.014.554-.264.555-.568v-.868h1.972v.867c0 .304.245.555.555.57h.003zm-.14-1.124V6.46h2.4v.31l-2.4.004zm2.4 7.492v.311h-2.402v-.311H15.9zm-5.204 0v.311H8.294v-.311h2.402zM8.641 7.494h-.18c-.092 0-.167-.073-.167-.163v-.149h2.4v.149c0 .09-.075.163-.167.163H8.641zm1.5.407v5.24H8.848V7.9h1.291zm-1.5 5.647h1.886c.092 0 .167.073.167.163v.148h-2.4v-.148c0-.09.075-.163.167-.163h.18zm-3.151.719v.311h-2.4v-.311h2.4zm-2.4-6.932v-.153h2.4v.149c0 .09-.075.163-.167.163h-2.07c-.091-.003-.164-.076-.163-.165v.006zm1.845.57v5.235h-1.29V7.901l1.29.005zm-1.845 5.81c0-.09.075-.163.167-.163h2.066c.092 0 .167.073.167.163v.148h-2.4v-.148zm13.213 1.486v.4H2.685v-.4c0-.117.097-.211.215-.211h13.188c.117 0 .212.092.215.207v.004zm-.405-1.486v.148h-2.4v-.148c0-.09.075-.163.167-.163h2.07c.09.002.16.072.163.159v.004zm-1.845-.57V7.9h1.291v5.24l-1.291.003zm1.845-5.81c0 .09-.075.163-.167.163h-2.065c-.092 0-.166-.073-.166-.163v-.153h2.399l-.001.153zM9.494 1.43l6.196 3.192H3.298L9.494 1.43zM2.685 5.237c0-.112.093-.204.208-.204h13.202c.114 0 .208.092.208.204v.617c0 .113-.094.204-.208.204H2.893c-.115 0-.208-.091-.208-.204v-.617z"/>
</svg>
